<mxfile host="app.diagrams.net" modified="2023-09-12T13:55:09.141Z" agent="Mozilla/5.0 (Windows NT 10.0; Win64; x64) AppleWebKit/537.36 (KHTML, like Gecko) Chrome/116.0.0.0 Safari/537.36" etag="VSM1JdFjDE9BrK7uhWxV" version="21.7.4" type="github">
  <diagram name="PÃ¡gina-1" id="oM5AoI0qr5x26CHoHaNl">
    <mxGraphModel dx="2269" dy="1240" grid="1" gridSize="10" guides="1" tooltips="1" connect="1" arrows="1" fold="1" page="1" pageScale="1" pageWidth="827" pageHeight="1169" math="0" shadow="0">
      <root>
        <mxCell id="0" />
        <mxCell id="1" parent="0" />
        <mxCell id="VWBzi6tTDOa6CH9NLCmq-2" value="&lt;img alt=&quot;Chainlink - DiarioBitcoin&quot; src=&quot;https://encrypted-tbn0.gstatic.com/images?q=tbn:ANd9GcSLyAW4oF_wdZsTt5ygfouT0p6hmkSpzYym0Hlrw9PGN1sJ7yafIwsE69gqmD3NcjaAvRY&amp;amp;usqp=CAU&quot;&gt;" style="text;html=1;strokeColor=none;fillColor=none;align=center;verticalAlign=middle;whiteSpace=wrap;rounded=0;" vertex="1" parent="1">
          <mxGeometry x="125" y="4980" width="290" height="150" as="geometry" />
        </mxCell>
        <mxCell id="VWBzi6tTDOa6CH9NLCmq-1113" style="edgeStyle=orthogonalEdgeStyle;shape=connector;rounded=0;orthogonalLoop=1;jettySize=auto;html=1;exitX=0.5;exitY=0;exitDx=0;exitDy=0;entryX=0.5;entryY=0;entryDx=0;entryDy=0;labelBackgroundColor=default;strokeColor=#375BD2;strokeWidth=2;fontFamily=Architects Daughter;fontSize=20;fontColor=#ffffff;endArrow=classic;" edge="1" parent="1" source="VWBzi6tTDOa6CH9NLCmq-3" target="VWBzi6tTDOa6CH9NLCmq-771">
          <mxGeometry relative="1" as="geometry" />
        </mxCell>
        <mxCell id="VWBzi6tTDOa6CH9NLCmq-3" value="&lt;div style=&quot;line-height: 87%;&quot;&gt;&lt;h1 style=&quot;background-image: none; background-position: initial; background-size: initial; background-repeat: initial; background-attachment: initial; background-origin: initial; background-clip: initial; border: none; box-sizing: border-box; margin: 0.25em 0px 0.25rem; padding: 0px; vertical-align: baseline; line-height: 24.96px;&quot; class=&quot;type__headline__xs&quot;&gt;&lt;font color=&quot;#ffff66&quot; face=&quot;Helvetica&quot; style=&quot;font-size: 30px;&quot;&gt;Main Functions&lt;/font&gt;&lt;br&gt;&lt;/h1&gt;&lt;/div&gt;" style="text;html=1;strokeColor=#3A5431;fillColor=#375BD2;align=center;verticalAlign=middle;whiteSpace=wrap;rounded=1;fontSize=20;fontFamily=Architects Daughter;glass=0;labelBackgroundColor=none;fontColor=#ffffff;gradientColor=#1A1A1A;strokeWidth=2;" vertex="1" parent="1">
          <mxGeometry x="80" y="310" width="380" height="80" as="geometry" />
        </mxCell>
        <mxCell id="VWBzi6tTDOa6CH9NLCmq-5" value="" style="endArrow=none;html=1;rounded=0;" edge="1" parent="1">
          <mxGeometry relative="1" as="geometry">
            <mxPoint x="21" y="90" as="sourcePoint" />
            <mxPoint x="2461" y="90" as="targetPoint" />
          </mxGeometry>
        </mxCell>
        <mxCell id="VWBzi6tTDOa6CH9NLCmq-6" value="1" style="resizable=0;html=1;whiteSpace=wrap;align=right;verticalAlign=bottom;" connectable="0" vertex="1" parent="VWBzi6tTDOa6CH9NLCmq-5">
          <mxGeometry x="1" relative="1" as="geometry" />
        </mxCell>
        <mxCell id="VWBzi6tTDOa6CH9NLCmq-8" value="&lt;h1 style=&quot;border: none; background-image: none; background-position: initial; background-size: initial; background-repeat: initial; background-attachment: initial; background-origin: initial; background-clip: initial; box-sizing: border-box; margin: 0.25em 0px 0.25rem; padding: 0px; vertical-align: baseline; line-height: 24.96px; text-align: start;&quot; class=&quot;type__headline__xs&quot;&gt;&lt;font color=&quot;#375bd2&quot; style=&quot;font-size: 45px;&quot;&gt;RewardVault Contract&lt;/font&gt;&lt;br&gt;&lt;/h1&gt;" style="text;html=1;strokeColor=none;fillColor=none;align=center;verticalAlign=middle;whiteSpace=wrap;rounded=0;" vertex="1" parent="1">
          <mxGeometry x="853" y="150" width="776" height="70" as="geometry" />
        </mxCell>
        <mxCell id="VWBzi6tTDOa6CH9NLCmq-115" value="" style="endArrow=none;html=1;rounded=0;" edge="1" parent="1">
          <mxGeometry relative="1" as="geometry">
            <mxPoint x="11" y="5190" as="sourcePoint" />
            <mxPoint x="2472" y="5190" as="targetPoint" />
          </mxGeometry>
        </mxCell>
        <mxCell id="VWBzi6tTDOa6CH9NLCmq-116" value="" style="resizable=0;html=1;whiteSpace=wrap;align=right;verticalAlign=bottom;" connectable="0" vertex="1" parent="VWBzi6tTDOa6CH9NLCmq-115">
          <mxGeometry x="1" relative="1" as="geometry" />
        </mxCell>
        <mxCell id="VWBzi6tTDOa6CH9NLCmq-133" value="" style="html=1;shadow=0;dashed=0;align=center;verticalAlign=middle;shape=mxgraph.arrows2.arrow;dy=0.6;dx=40;direction=south;notch=0;fontFamily=Architects Daughter;fontSize=20;fontColor=#ffffff;fillColor=#375BD2;strokeColor=#3A5431;gradientColor=#1A1A1A;rounded=1;glass=0;labelBackgroundColor=none;strokeWidth=2;" vertex="1" parent="1">
          <mxGeometry x="230" y="440" width="70" height="138.75" as="geometry" />
        </mxCell>
        <mxCell id="VWBzi6tTDOa6CH9NLCmq-1102" value="" style="edgeStyle=orthogonalEdgeStyle;shape=connector;rounded=0;orthogonalLoop=1;jettySize=auto;html=1;labelBackgroundColor=default;strokeColor=#375BD2;strokeWidth=2;fontFamily=Architects Daughter;fontSize=20;fontColor=#ffffff;endArrow=classic;" edge="1" parent="1" source="VWBzi6tTDOa6CH9NLCmq-771" target="VWBzi6tTDOa6CH9NLCmq-1101">
          <mxGeometry relative="1" as="geometry" />
        </mxCell>
        <mxCell id="VWBzi6tTDOa6CH9NLCmq-771" value="&lt;font color=&quot;#ffff66&quot; style=&quot;font-size: 25px;&quot; face=&quot;Helvetica&quot;&gt;addReward&lt;/font&gt;" style="text;html=1;strokeColor=#3A5431;fillColor=#375BD2;align=center;verticalAlign=middle;whiteSpace=wrap;rounded=1;fontSize=20;fontFamily=Architects Daughter;fontColor=#ffffff;gradientColor=#1A1A1A;glass=0;labelBackgroundColor=none;strokeWidth=2;" vertex="1" parent="1">
          <mxGeometry x="520" y="240" width="220" height="60" as="geometry" />
        </mxCell>
        <mxCell id="VWBzi6tTDOa6CH9NLCmq-900" value="&lt;img alt=&quot;Chainlink LINK Badge Crypto 3D Rendering 11224492 PNG&quot; src=&quot;data:image/jpeg;base64,/9j/4AAQSkZJRgABAQAAAQABAAD/2wCEAAoHCBUVERYSEhQSGRIYGhgZGRISGRIVGBIZGRocGhgaGBgcIS4lHCMrHxgYJjomKy8xNTU1GiQ7QDs0Py40NTEBDAwMEA8QHxISHjQrJSE0NTQ0NT80NDE0NDQ0NDQ0NDY0NTQ0NDQ0MTQ0NDQ0NDY0NDQ0NDQ0NDExNDQ0NDExNP/AABEIAOEA4QMBIgACEQEDEQH/xAAbAAEAAgMBAQAAAAAAAAAAAAAABAYDBQcCAf/EAEQQAAIBAQQFBwgJAwQCAwAAAAECAAMEBREhEjFBUXEGIjRhcrHBEyMyQlKBgsIkM2Jzg5GhsvAHY9EUQ1OS4fEVVKL/xAAaAQEAAwEBAQAAAAAAAAAAAAAAAwQFAgEG/8QALhEAAgEDAgUCBgIDAQAAAAAAAAECAwQRITESMkFxgSIzBUJRYaGxkcEj0eET/9oADAMBAAIRAxEAPwDs0REAREQBERAEREAREQBESLbLUtKm1RsdFRiQoLMdwVRmSdQAzJMAy1aqqpZmVVGtmIAHvM+U6ytkrKSNYUg4flKbdV31bZX/ANXb1ZEUkWexMcPJj26i+2Rr44asdK2PZUZQrKMBqw5pTZzSMCvEYTqUUtOp4nkmRNclOqh5r+UT2amTr2XAwbgwx3tJFK1Kx0c1f2HyPu3jrGInmBkkxETw9EREAREQBERAEREAREQBERAEREAREQBERAEREARE8scBidQgHipUCgk6hNBbr1z18BumK+b1BxzwUY4Y5e8ym0KL2+ocWZLIhwZhk1U7h1d3HVdoW6xxz0SIJ1deGJbaV6AmbSz3h14jcfAyvLydoouFmLUyNmJZTxUn9RnIjVqlE4VVwGxxmh9+z3zt0oT5f+nPHKO5fKVpVtRwO4/zOeqtFWGDAEdew7xuPXKnZrxB1zbWa8yNZxHXr/OVp0JR2JYzTNh5OonoNpr7DnnDsv4HHjPdG1gnROKv7D5H3bGHWCZ9oWlW1HPcdc9VqKsMGAI3EY57xuPXIn9zvsZ59kHyTp6DaS+xUJxHZfX/ANseImanaATgwKt7LbeB1H3TnAySIiIPRERAEREAREQBERAEREAREQBERAEREA+Su33egzRTkNZ3ndwme/LzCAop5x9Ij1Ru4mc/vG1vWqf6eiecfTfYi7cf535XbW34nxS2K9Wrj0o+Wh2tlU0UJFFc6lQftH8/QZ2Wiqoi00AVFGAUfzM9ciWKzJRpimg5o1na52sZl05cm+LRbIhjp3JS1ZIFcMNFwCDsM1unPoeQuB2pHm03PhzrO2H9tvR93s90hU7ayNoVAVbc23gds2aVjjMlbQqDRqKCOudKTWktV+TxpPWOhjs9v65uLLexGTc4b/W/8yq2m7XTnUjpp7BPOHA7ffMVnt+eBxBGtTkR7p5KhCayj1VJR0Z0WhakcYqQeraOImZlBGBAI3GUahbswQSDvGRE3NkvwjKpmPaXWOI2/wA1ypUt5R2Jo1EzeeTYegcvZbEj3HWJ6FYamyPXqPAz5RrqyhlIKnURqMysoIwOYld/ckPc+TVW60GhotjihOjonYcCcjsyBmwoVg6B1OKsMQYa0yMmaIieHoiIgCIiAIiIAiIgCIiAfJrb3vIUVwGGmdQ3dZme8batFCx16gNrHdOcX9fBxLHnVHOCoPWOwAbhlLVtbupLL2K9arwrC3MN8Xk5YU6eLVnOQ14Y62P6/wAEl3bYloJog4u2bvtc/wCBI11WHyYNSodKu/pN7I9kfzZ1SfpTUk0lwx2/ZTT6sy44mZKlndfSVxxUibu5br0QKlQc71VPq9Z6+7u3JEoTuVGWIrJajRbWXoUXGfdKWK33OrYtTwVt3qt/iV6vRZSVYEEbDJoVIzWhxKEo7nwPPqvMJM+FpJwnPETKdczHarPTq+kMG2MMiPfI5efVfCc8OHlHXF0ZBr2apSz9NPaX0hxG33TNZ7ViMjJa2g+6QKirpkrljrA29clT4tJIjaS1RvrhvEpVCE8x9Y3NsIlxWcwNTRZTuIP6zpNkqaVNG3gTPu6ajJNdS1RllY+hF5RJpWWp9kBx8DBvCQ+SdUlHQ+qwI6gw/wAg/nNlewxs1UH2G7jNZyUH1h3hP00v8yFe019yR8yLHERITsREQBERAEREAREQBPhiRbxqaNGow1qjEcQpwhLLweN4WSh8qb5GLuTzF5qgbeHWTn/6mmuuyNpf6isPON6Cf8a7Pf8AzbPNpph7UitmqKXw2E44Lj+U2ZafQRioQUUZLk5PLPZaWK4rq1Vag60Q/ox8Pzke4bp08KtQczWqn1+s9Xfw12iZ1zX+WPkt0KOfVLwIifAcRiMwdo2ygXD7I1qsiOuDjHcdq8DJET1SaeUeNZ3KjeN1vTxYc5PaGte0NnHVNW06CRNJeNxq2LU8Fb2fVbh7J/SXqN0npL+StOj1iVbGfC092mkysVcFWGwyKWl5a6lfYyPU2CRw3PA6jPTPMCN5wcDO0jlszWlsp0m6j5hOE5jaWynTbp+oThKF7svJat+vg93n0er2G7preSnov8PzTY3p0er2G7pruS2p/h+aU1yMn6osUREiOxERAEREAREQBERAPMhX10ar2G7pNkG++i1ew3dOocy7nE+VnL1P0hvu1/c0stwXV5U6b/VqcNH2myOHDMSsofpDfdr+5pe+SPR27bftWbF5KUafp+xnUIqU8M3gERK/fN6DBkVgKYB06hOAIGvPd1+GvHjFyeEabeDzfV7AhkRgEGOk+OAI24Hd17eGulWXl49GsFprp2UZMpyZt7IT6PA6+rWNVf18GsTTp4ikNuo1Os9W4fn1adaWwTYoWUVD1rfoVJ13n0nd7rvSlaaYq0WDIcjsZT7LLrU9Ulzjdx1KtnfylJir7RrVx7LrtHdswnTrhvxbSpGiUqKBpocxnqKttH6+NC5tHS1Wq/Xclp1lLR7m2ke3eh7x4yRI1vPM948ZVjuTPYovLa1sjWcgnDzgI3jmTXU6oYAg5GZv6gno/wCJ8k0F1Wgjm7JvW8c0U+5n1udm7Mwq3nBwPhPRbGYVPPHA+EkSIzLaTlOoXT9QnZnLLScp1O6fqE7Mzr7ZeS1bdfB6vPo9XsN3SByX1P8AD80n3n0er2G7pB5L6n+H5pSXIyz1N/ERIjoREQBERAEREAREQD5IF+dFrdhu6T5r796LW7Dd06p867nE+VnLEP0huwn7ml85IdHbtt+1ZQE6Q33afueX7kf0dvvD+1Zr3/tlC29zwbm1fVtwMoXLZPomW10xw25n/Evtq+rbgZRuWw+ifiJ4yhae4u5eq8r7FCSnjkJs7JZMMzPVhoDAGbBVwm7KRmNnxUwll5EjzlXsL3mVyWTkX6dTsr3ynde0yWhzouEiXgeZ7x4yVIl4+h7x4zFjuaL2Odf1BPR/xPklau886WL+oJ6P+J8krl3a59Ba+wvJn1uZm9RspjU+cHA+E+rqnhT5wcD4SREZ7tJynVro6OnZnJ7Scp1e6Ojp2Zm3+0fJatuvg93p0er2G7pC5Man+H5pMvTo9XsN3SFyXOT/AA/NKHyMs9TfxESM6EREAREQBERAEREA8yBfvRa3Ybuk+a+/ui1uw3dO4cy7nE+V9jlCH6Q33afueX/kb0dvvG/as5+h8+33afueX/kZ0ZvvG/as17/2v4M+19zwbu0+g3CUnlqPon4ieMu1o9BuEpnLUfRPxE8Zn2vuLui9V5X2KxYBzBJUw2FeYJnIm3LczD4JZeRnp1OyvfK2BLLyMHPqdle+Vbr2mTUOdFtkO8z5v3jxkuRLz+r+IeMxo7mi9jm/9QT0f8T5JXLu1ywf1BPR/wAT5JXrt1zftfYXn9lCrzM3S6pjQ+cHA+EyKcphU+cHA+EkREZLScp1m5ujp2ZyS1HKdauXo6dmZ1/tHyWrbr4Pd7dHq9h+6a/kocqnwfNNhe3R6vYfums5IaqnwfNKC5H3LPUssREiOhERAEREAREQBERAPM19/wDRa3Ybumwmu5QdEr9hu6d0+ZdzifK+xyZD59+wn7nl/wCRZ+jN9437VnPUPn3+7T9zy28k73WmTQfAK7Yq25iANFuo4DA7+M2b2EpU9F9DNt5KNRZLrIduu6nVRqbqCrDAj+auMmRMRScXlGo1koNruJrMcMS1M+i51j7Ldff+ghPTnR6tJXUqwBU5EHbKzX5PuKmiuBpnPTb1BuYbTw19U06N2mvW9f2UqtBp5iaChZmdgiKWY6gJc7junyALM2LsBiB6KgbBv4yVd93pRXBBzjrc62/wOqSpWr3Tn6Y7fsmo0FH1Pc+yFep838Q8ZMkK9vq/iHjK0dyd7HNf6gH6j8T5JX7sM3v9QT9R+J8k0N2Gb9t7MSjV5mbtdUwL9YOB8JkU5TEh84OB8JKiBnu1HKdbuTo1Ph4zkNrOU67cfRqfDxMzviG0fJbtuvgyXv0ar2H7jNXyOOVT4Pmm0vfo1bsP3TU8izlV+D5pQXtvuWepaYiJCdCIiAIiIAiIgCIiAfJAvqmWs1ZRrNN8OOicP1k+CJ6nhpnkllYOJaHnC+woo/Jmx/cJ70psbzsZs9pekw5oOKY6nRsdH9MVPWpmutFLQOIzQ6ju+yeufSRmppNddjFlFp4fQuPJblBpaNnrNztSO3rblY79x26teu2TjrZiXfknyj8phZ67edHoOf8AdA2H7QH5jPXjM28tMZnBd1/Zft6+fTLwWuJ8iZhcERKdyo5dUqAZKJR6gyLk406Z4j0m6hl17J3GEpPEUeOSW5Yr3vijZk06zYY+igzeodyrt46htInJuVHLytWfQpEogOSU2IPF3GZPUMu+Vu8b0rWmoXZnJbXUb0mG4eyOofpPVksYXZNOhZqOstyCVTJ6pLUqHTrO7ts0ixC8ATlNpZVwOUwgYTJQOcvpYWEVpPOptFbKYlPnBwPhPStlMKHzg4HwnSREzLajlOu3D0WnwPeZx+1Gdf5PH6JT4HvMzviG0fJbtuvgy3x0at92/dNPyH1Vfg+ebe+ejVvu37jNNyEOVX4PnlBe0+6LHzIt0REgOxERAEREAREQBERAEREA0fKW5FtVLAYCqmJRjsO1T1HAcMjsnNlJVmpVVIIOi6HWCPEbD4GdjlU5Y8n/ACy+Xojz6jNR/uqNnaGzfq3YX7O54HwS2f4KlxR4vVHc55WQocNYOat7QmNthBIIwIIOBBGYII1GSqdRXXQbVv2qd48RIrqVYq2sfkRsIm0tdGUPujoPJTlF5dfI1SBaFGvICso9YfaG0e8bQN1eF406CGpWcIg362O5QM2PUJyRWKsHQlXUgqy5FSNRBkK+LbWrOXrOznUMcAFG5QMlHCZtT4fxVMxeF9C7TufTh7my5W8vnq6VGiGSmctBTz3H9xh6I+yPfjKYtBnbSqHHcNQXgJJSyKDiBJCiW6dvGCwkJVMnmlTAGUzrPCiSESS4I3I+IuMyouEEgTGjO50aa4/a2D3ztRI3IzvaAoxJmS76bMWqMCAclB3b5ms11oh06h033eqJktNpGE5bWyOSLaXzw6xOyXFTK2WiDr0Af+3O8Zyjk1dTWu1KmB8mmD1H2Kuxcd7YYD3nZOy9Q1d0yb+a4lFdC7bRai39SDfjYWSuf7b/ALTNHyAfE1xuFL55teVFULYqxO1NH/sQvjNP/TamfJ16h1MyqPhUk/vErpf4W/uiVv1pF3iIlUlEREAREQBERAEREAREQBPk+xAOfctuT+gWtlFcjnVUeqdtQDd7X57zKqcHXRJwYei27qPUf07uzsoIwOYO+cu5WXCbJU8pTH0Zzl/aY+oeo7D7tgx1rK54kqc3qtn/AEULijh8UdupXDiCVIwIyI3TxVpgiTKtPTXEemNX2h7J6938xhK81FqU9jW1aZUwqSfVUGRnqBctu4Zk+6epZJFI9KmE8mridFAWbcPHdM9CwO+bnQTd6xk+mEpjBAB17TDaQyRKF1k86s34a+MntVVBoqABuEhWi29c2l0clrTacGI8lSP+5VB0mH2U1txOA6zIqk1FZm8I6jFyeIo1Votk3VzcjrTaCGrY0aJzxcecYfZQ+jxbDgZebk5MWezYMi6VX/mqYM3w7F9w44zeTMrX+fTTXktQtusiJdV2UrPTFKioVRmdrM21mb1j/wCtUmyC1vBYpRVqrg4HQw0EO3TqHmrhtAxb7JnoXc9TO0Pzf+GiWVODv6T/AP5UjWsznlvMmWlhbGj5QlrYRZLNzsGBq1R9XSw9Vm9Zs8dEZ6tUsl03ctnorRTUozJ1sTmWPEkyTRoqihUVVUDAKoChRuAGQmWeubworZHnDrnqfYiJwdCIiAIiIAiIgCIiAIiIAiIgHyRrZZUq02p1FDIwwKnaJJiE2nlDc43fd0vY6+g2JptiadT213HD1hlj7jtkOvZy406edTavtjeOvf8AzDrt93UlpomlUGvNWGtGGph/MwSNs5Hb7LVslU0qwwYZq4x0XXYynaP1G2btpdf+scPmX5MyvR4HlbM162Wo+WGgu1m8BJVGglPMZt7bZmY6ttJzJJ4yVdVy2i1HGmmFPbVfFU9x1t8IPulyc1GOZvCIoxcniKIte19cnXRydtNqwZF0KR/3qmIUj7C6292XXLtcvI6z0MHqDy1UZ6dQDQU/YTUOJxPWJZXfAEk4AaycgB1mZlb4h0pLyW4W3WRobk5JWez4Po+UrD/dqAHRP2V1LxzPXLAzbT+c1i3mauVkpmr/AHmOhQH4mBL/AABusiZUuLT51rc1j/xYaFAfh4nT+Mt1ATOnKUnmb/2WopJYSMX/AMsahK2VDWOo1AdGgp1c6qQQ2BGYQMRtAkpLrZ87S+mP+KnilIdTDHSfdzjon2RNoigAAAADIAZYT3I8pbLB1j6mOnTCqFUAKBgFUAAAbABqmWInh6IiIAiIgCIiAIiIAiIgCIiAIiIAiIgCIiAfJBvS7KVopmnWRWXZiM1O9TrB4SdEJtPKPGk9GUGxcnrLZ6+hWoISTjTqVC7odylWJUHccM9WsZ2uqyopZiqooxLMQqoBvJyAkq2WNKq6NRAy7js4EZj3TGl20ho8wNo4FRULOEI1FQxOiesSSpUlPWTbZ5GCjojT0r0asQLHSNRP/s1C1KhhvRiNKrlqKLon2xJdO4gxDWpzXYZhGGjRU/Zo4kHPPFyxGwibqJxlo9ayAJ9iJ4eiIiAIiIAiIgCIiAIiIAiIgCIiAIiIAiIgCIiAIiIB8n2IgHyJ9iAIiIAiIgCIiAIiIAiIgCIiAIiIAiIgH//Z&quot;&gt;" style="text;html=1;strokeColor=none;fillColor=none;align=center;verticalAlign=middle;whiteSpace=wrap;rounded=0;" vertex="1" parent="1">
          <mxGeometry x="2080" y="160" width="220" height="210" as="geometry" />
        </mxCell>
        <mxCell id="VWBzi6tTDOa6CH9NLCmq-1101" value="" style="shape=singleArrow;whiteSpace=wrap;html=1;arrowWidth=0.4;arrowSize=0.4;fontSize=20;fontFamily=Architects Daughter;fillColor=#375BD2;strokeColor=#3A5431;fontColor=#ffffff;gradientColor=#1A1A1A;rounded=1;glass=0;labelBackgroundColor=none;strokeWidth=2;" vertex="1" parent="1">
          <mxGeometry x="900" y="240" width="80" height="60" as="geometry" />
        </mxCell>
        <mxCell id="VWBzi6tTDOa6CH9NLCmq-1103" value="&lt;font face=&quot;Helvetica&quot; style=&quot;font-size: 20px;&quot; color=&quot;#000000&quot;&gt;Allows&lt;/font&gt;" style="text;html=1;strokeColor=none;fillColor=none;align=center;verticalAlign=middle;whiteSpace=wrap;rounded=0;fontSize=20;fontFamily=Architects Daughter;fontColor=#ffffff;" vertex="1" parent="1">
          <mxGeometry x="780" y="230" width="90" height="30" as="geometry" />
        </mxCell>
        <mxCell id="VWBzi6tTDOa6CH9NLCmq-1106" style="edgeStyle=orthogonalEdgeStyle;shape=connector;rounded=0;orthogonalLoop=1;jettySize=auto;html=1;exitX=1;exitY=0.5;exitDx=0;exitDy=0;labelBackgroundColor=default;strokeColor=#375BD2;strokeWidth=2;fontFamily=Architects Daughter;fontSize=20;fontColor=#ffffff;endArrow=classic;" edge="1" parent="1" source="VWBzi6tTDOa6CH9NLCmq-1105">
          <mxGeometry relative="1" as="geometry">
            <mxPoint x="1700" y="270.33333333333337" as="targetPoint" />
          </mxGeometry>
        </mxCell>
        <mxCell id="VWBzi6tTDOa6CH9NLCmq-1105" value="&lt;font style=&quot;font-size: 25px;&quot; face=&quot;Helvetica&quot; color=&quot;#000000&quot;&gt;Administrators to &lt;/font&gt;&lt;font color=&quot;#375bd2&quot; style=&quot;font-size: 25px;&quot; face=&quot;Helvetica&quot;&gt;add&lt;/font&gt;&lt;font style=&quot;font-size: 25px;&quot; face=&quot;Helvetica&quot; color=&quot;#000000&quot;&gt; more &lt;/font&gt;&lt;font color=&quot;#375bd2&quot; style=&quot;font-size: 25px;&quot; face=&quot;Helvetica&quot;&gt;rewards&lt;/font&gt;&lt;font style=&quot;font-size: 25px;&quot; face=&quot;Helvetica&quot; color=&quot;#000000&quot;&gt; to the contract&lt;/font&gt;" style="text;html=1;strokeColor=none;fillColor=none;align=center;verticalAlign=middle;whiteSpace=wrap;rounded=0;fontSize=20;fontFamily=Architects Daughter;fontColor=#ffffff;" vertex="1" parent="1">
          <mxGeometry x="990" y="235" width="470" height="70" as="geometry" />
        </mxCell>
        <mxCell id="VWBzi6tTDOa6CH9NLCmq-1110" style="edgeStyle=orthogonalEdgeStyle;shape=connector;rounded=0;orthogonalLoop=1;jettySize=auto;html=1;exitX=0.5;exitY=0;exitDx=0;exitDy=0;entryX=0.5;entryY=0;entryDx=0;entryDy=0;labelBackgroundColor=default;strokeColor=#375BD2;strokeWidth=2;fontFamily=Architects Daughter;fontSize=20;fontColor=#ffffff;endArrow=classic;" edge="1" parent="1" source="VWBzi6tTDOa6CH9NLCmq-1107" target="VWBzi6tTDOa6CH9NLCmq-1108">
          <mxGeometry relative="1" as="geometry" />
        </mxCell>
        <mxCell id="VWBzi6tTDOa6CH9NLCmq-1111" style="edgeStyle=orthogonalEdgeStyle;shape=connector;rounded=0;orthogonalLoop=1;jettySize=auto;html=1;exitX=0.5;exitY=1;exitDx=0;exitDy=0;entryX=0.5;entryY=1;entryDx=0;entryDy=0;labelBackgroundColor=default;strokeColor=#375BD2;strokeWidth=2;fontFamily=Architects Daughter;fontSize=20;fontColor=#ffffff;endArrow=classic;" edge="1" parent="1" source="VWBzi6tTDOa6CH9NLCmq-1107" target="VWBzi6tTDOa6CH9NLCmq-1109">
          <mxGeometry relative="1" as="geometry" />
        </mxCell>
        <mxCell id="VWBzi6tTDOa6CH9NLCmq-1107" value="&lt;font face=&quot;Helvetica&quot; color=&quot;#000000&quot;&gt;Rewards are split between &lt;/font&gt;" style="text;html=1;strokeColor=none;fillColor=none;align=center;verticalAlign=middle;whiteSpace=wrap;rounded=0;fontSize=20;fontFamily=Architects Daughter;fontColor=#ffffff;" vertex="1" parent="1">
          <mxGeometry x="1470" y="235" width="240" height="30" as="geometry" />
        </mxCell>
        <mxCell id="VWBzi6tTDOa6CH9NLCmq-1108" value="&lt;font color=&quot;#375bd2&quot; style=&quot;font-size: 25px;&quot; face=&quot;Helvetica&quot;&gt;Community Staking Pool&lt;/font&gt;" style="text;html=1;strokeColor=none;fillColor=none;align=center;verticalAlign=middle;whiteSpace=wrap;rounded=0;fontSize=20;fontFamily=Architects Daughter;fontColor=#ffffff;" vertex="1" parent="1">
          <mxGeometry x="1750" y="195" width="280" height="70" as="geometry" />
        </mxCell>
        <mxCell id="VWBzi6tTDOa6CH9NLCmq-1109" value="&lt;font color=&quot;#375bd2&quot; face=&quot;Helvetica&quot; style=&quot;font-size: 25px;&quot;&gt;Operator Staking Poo&lt;/font&gt;" style="text;html=1;strokeColor=none;fillColor=none;align=center;verticalAlign=middle;whiteSpace=wrap;rounded=0;fontSize=20;fontFamily=Architects Daughter;fontColor=#ffffff;" vertex="1" parent="1">
          <mxGeometry x="1740" y="260" width="280" height="70" as="geometry" />
        </mxCell>
        <mxCell id="VWBzi6tTDOa6CH9NLCmq-1112" value="&lt;font face=&quot;Helvetica&quot; style=&quot;font-size: 24px;&quot; color=&quot;#000000&quot;&gt;based on specified reward rates.&lt;/font&gt;" style="text;html=1;strokeColor=none;fillColor=none;align=center;verticalAlign=middle;whiteSpace=wrap;rounded=0;fontSize=20;fontFamily=Architects Daughter;fontColor=#ffffff;" vertex="1" parent="1">
          <mxGeometry x="1610" y="360" width="360" height="30" as="geometry" />
        </mxCell>
        <mxCell id="VWBzi6tTDOa6CH9NLCmq-1117" value="" style="edgeStyle=orthogonalEdgeStyle;shape=connector;rounded=0;orthogonalLoop=1;jettySize=auto;html=1;labelBackgroundColor=default;strokeColor=#375BD2;strokeWidth=2;fontFamily=Architects Daughter;fontSize=20;fontColor=#ffffff;endArrow=classic;" edge="1" parent="1" source="VWBzi6tTDOa6CH9NLCmq-1114" target="VWBzi6tTDOa6CH9NLCmq-1116">
          <mxGeometry relative="1" as="geometry" />
        </mxCell>
        <mxCell id="VWBzi6tTDOa6CH9NLCmq-1114" value="&lt;font color=&quot;#ffff66&quot; face=&quot;Helvetica&quot; style=&quot;font-size: 25px;&quot;&gt;setDelegationRateDenominator&lt;/font&gt;" style="text;html=1;strokeColor=#3A5431;fillColor=#375BD2;align=center;verticalAlign=middle;whiteSpace=wrap;rounded=1;fontSize=20;fontFamily=Architects Daughter;fontColor=#ffffff;gradientColor=#1A1A1A;glass=0;labelBackgroundColor=none;strokeWidth=2;" vertex="1" parent="1">
          <mxGeometry x="520" y="360" width="370" height="60" as="geometry" />
        </mxCell>
        <mxCell id="VWBzi6tTDOa6CH9NLCmq-1116" value="" style="shape=singleArrow;whiteSpace=wrap;html=1;arrowWidth=0.4;arrowSize=0.4;fontSize=20;fontFamily=Architects Daughter;fillColor=#375BD2;strokeColor=#3A5431;fontColor=#ffffff;gradientColor=#1A1A1A;rounded=1;glass=0;labelBackgroundColor=none;strokeWidth=2;" vertex="1" parent="1">
          <mxGeometry x="1050" y="360" width="80" height="60" as="geometry" />
        </mxCell>
        <mxCell id="VWBzi6tTDOa6CH9NLCmq-1118" value="&lt;font face=&quot;Helvetica&quot; style=&quot;font-size: 20px;&quot; color=&quot;#000000&quot;&gt;Allows&lt;/font&gt;" style="text;html=1;strokeColor=none;fillColor=none;align=center;verticalAlign=middle;whiteSpace=wrap;rounded=0;fontSize=20;fontFamily=Architects Daughter;fontColor=#ffffff;" vertex="1" parent="1">
          <mxGeometry x="930" y="360" width="90" height="30" as="geometry" />
        </mxCell>
        <mxCell id="VWBzi6tTDOa6CH9NLCmq-1125" style="edgeStyle=orthogonalEdgeStyle;shape=connector;rounded=0;orthogonalLoop=1;jettySize=auto;html=1;exitX=1;exitY=0.5;exitDx=0;exitDy=0;entryX=0;entryY=0.5;entryDx=0;entryDy=0;labelBackgroundColor=default;strokeColor=#375BD2;strokeWidth=2;fontFamily=Architects Daughter;fontSize=20;fontColor=#ffffff;endArrow=classic;" edge="1" parent="1" source="VWBzi6tTDOa6CH9NLCmq-1121" target="VWBzi6tTDOa6CH9NLCmq-1124">
          <mxGeometry relative="1" as="geometry" />
        </mxCell>
        <mxCell id="VWBzi6tTDOa6CH9NLCmq-1121" value="&lt;font face=&quot;Helvetica&quot; style=&quot;font-size: 25px;&quot;&gt;Administrators to set the denominator of the delegation rate&lt;/font&gt;" style="text;html=1;strokeColor=none;fillColor=none;align=center;verticalAlign=middle;whiteSpace=wrap;rounded=0;fontSize=20;fontFamily=Architects Daughter;fontColor=#000000;" vertex="1" parent="1">
          <mxGeometry x="1140" y="345" width="330" height="90" as="geometry" />
        </mxCell>
        <mxCell id="VWBzi6tTDOa6CH9NLCmq-1124" value="&lt;font style=&quot;font-size: 25px;&quot; face=&quot;Helvetica&quot;&gt;This &lt;font color=&quot;#375bd2&quot;&gt;affects&lt;/font&gt; how &lt;font color=&quot;#375bd2&quot;&gt;rewards&lt;/font&gt; are distributed among different &lt;font color=&quot;#375bd2&quot;&gt;staking pools&lt;/font&gt;&lt;/font&gt;" style="text;html=1;strokeColor=none;fillColor=none;align=center;verticalAlign=middle;whiteSpace=wrap;rounded=0;fontSize=20;fontFamily=Architects Daughter;fontColor=#000000;" vertex="1" parent="1">
          <mxGeometry x="1630" y="440" width="540" height="90" as="geometry" />
        </mxCell>
        <mxCell id="VWBzi6tTDOa6CH9NLCmq-1127" style="edgeStyle=orthogonalEdgeStyle;shape=connector;rounded=0;orthogonalLoop=1;jettySize=auto;html=1;exitX=1;exitY=0.5;exitDx=0;exitDy=0;labelBackgroundColor=default;strokeColor=#375BD2;strokeWidth=2;fontFamily=Architects Daughter;fontSize=20;fontColor=#ffffff;endArrow=classic;" edge="1" parent="1" source="VWBzi6tTDOa6CH9NLCmq-1126">
          <mxGeometry relative="1" as="geometry">
            <mxPoint x="990" y="520.3333333333335" as="targetPoint" />
          </mxGeometry>
        </mxCell>
        <mxCell id="VWBzi6tTDOa6CH9NLCmq-1126" value="&lt;font color=&quot;#ffff66&quot; face=&quot;Helvetica&quot; style=&quot;font-size: 25px;&quot;&gt;setMultiplierDuration&lt;/font&gt;" style="text;html=1;strokeColor=#3A5431;fillColor=#375BD2;align=center;verticalAlign=middle;whiteSpace=wrap;rounded=1;fontSize=20;fontFamily=Architects Daughter;fontColor=#ffffff;gradientColor=#1A1A1A;glass=0;labelBackgroundColor=none;strokeWidth=2;" vertex="1" parent="1">
          <mxGeometry x="520" y="490" width="320" height="60" as="geometry" />
        </mxCell>
        <mxCell id="VWBzi6tTDOa6CH9NLCmq-1128" value="&lt;font face=&quot;Helvetica&quot; style=&quot;font-size: 20px;&quot; color=&quot;#000000&quot;&gt;Allows&lt;/font&gt;" style="text;html=1;strokeColor=none;fillColor=none;align=center;verticalAlign=middle;whiteSpace=wrap;rounded=0;fontSize=20;fontFamily=Architects Daughter;fontColor=#ffffff;" vertex="1" parent="1">
          <mxGeometry x="870" y="480" width="90" height="30" as="geometry" />
        </mxCell>
        <mxCell id="VWBzi6tTDOa6CH9NLCmq-1129" value="&lt;font face=&quot;Helvetica&quot; style=&quot;font-size: 25px;&quot;&gt;Administrators to &lt;font color=&quot;#375bd2&quot;&gt;adjust&lt;/font&gt; the &lt;font color=&quot;#375bd2&quot;&gt;time&lt;/font&gt; it takes &lt;font color=&quot;#375bd2&quot;&gt;for reward&lt;/font&gt; multipliers &lt;font color=&quot;#375bd2&quot;&gt;to reach their maximum value&lt;/font&gt;&lt;/font&gt;" style="text;html=1;strokeColor=none;fillColor=none;align=center;verticalAlign=middle;whiteSpace=wrap;rounded=0;fontSize=20;fontFamily=Architects Daughter;fontColor=#000000;" vertex="1" parent="1">
          <mxGeometry x="1010" y="475" width="520" height="90" as="geometry" />
        </mxCell>
        <mxCell id="VWBzi6tTDOa6CH9NLCmq-1131" style="edgeStyle=orthogonalEdgeStyle;shape=connector;rounded=0;orthogonalLoop=1;jettySize=auto;html=1;exitX=1;exitY=0.5;exitDx=0;exitDy=0;labelBackgroundColor=default;strokeColor=#375BD2;strokeWidth=2;fontFamily=Architects Daughter;fontSize=20;fontColor=#ffffff;endArrow=classic;" edge="1" parent="1" source="VWBzi6tTDOa6CH9NLCmq-1130">
          <mxGeometry relative="1" as="geometry">
            <mxPoint x="1000" y="650.3333333333335" as="targetPoint" />
          </mxGeometry>
        </mxCell>
        <mxCell id="VWBzi6tTDOa6CH9NLCmq-1130" value="&lt;font color=&quot;#ffff66&quot; face=&quot;Helvetica&quot; style=&quot;font-size: 25px;&quot;&gt;migrate&lt;/font&gt;" style="text;html=1;strokeColor=#3A5431;fillColor=#375BD2;align=center;verticalAlign=middle;whiteSpace=wrap;rounded=1;fontSize=20;fontFamily=Architects Daughter;fontColor=#ffffff;gradientColor=#1A1A1A;glass=0;labelBackgroundColor=none;strokeWidth=2;" vertex="1" parent="1">
          <mxGeometry x="520" y="620" width="320" height="60" as="geometry" />
        </mxCell>
        <mxCell id="VWBzi6tTDOa6CH9NLCmq-1132" value="&lt;font face=&quot;Helvetica&quot; style=&quot;font-size: 20px;&quot; color=&quot;#000000&quot;&gt;Allows&lt;/font&gt;" style="text;html=1;strokeColor=none;fillColor=none;align=center;verticalAlign=middle;whiteSpace=wrap;rounded=0;fontSize=20;fontFamily=Architects Daughter;fontColor=#ffffff;" vertex="1" parent="1">
          <mxGeometry x="870" y="610" width="90" height="30" as="geometry" />
        </mxCell>
        <mxCell id="VWBzi6tTDOa6CH9NLCmq-1134" style="edgeStyle=orthogonalEdgeStyle;shape=connector;rounded=0;orthogonalLoop=1;jettySize=auto;html=1;exitX=1;exitY=0.5;exitDx=0;exitDy=0;labelBackgroundColor=default;strokeColor=#375BD2;strokeWidth=2;fontFamily=Architects Daughter;fontSize=20;fontColor=#ffffff;endArrow=classic;" edge="1" parent="1" source="VWBzi6tTDOa6CH9NLCmq-1133">
          <mxGeometry relative="1" as="geometry">
            <mxPoint x="1720" y="655.3333333333335" as="targetPoint" />
          </mxGeometry>
        </mxCell>
        <mxCell id="VWBzi6tTDOa6CH9NLCmq-1133" value="&lt;div style=&quot;text-align: left;&quot;&gt;&lt;span style=&quot;font-size: 25px; font-family: Helvetica; background-color: initial;&quot;&gt;Administrators to &lt;font color=&quot;#375bd2&quot;&gt;migrate&lt;/font&gt; the contract to a &lt;font color=&quot;#375bd2&quot;&gt;new version or address&lt;/font&gt;&lt;/span&gt;&lt;/div&gt;" style="text;html=1;strokeColor=none;fillColor=none;align=center;verticalAlign=middle;whiteSpace=wrap;rounded=0;fontSize=20;fontFamily=Architects Daughter;fontColor=#000000;" vertex="1" parent="1">
          <mxGeometry x="1020" y="610" width="520" height="90" as="geometry" />
        </mxCell>
        <mxCell id="VWBzi6tTDOa6CH9NLCmq-1135" value="&lt;font face=&quot;Helvetica&quot; style=&quot;font-size: 20px;&quot;&gt;During migration&lt;/font&gt;" style="text;html=1;strokeColor=none;fillColor=none;align=center;verticalAlign=middle;whiteSpace=wrap;rounded=0;fontSize=20;fontFamily=Architects Daughter;fontColor=#000000;" vertex="1" parent="1">
          <mxGeometry x="1560" y="620" width="150" height="30" as="geometry" />
        </mxCell>
        <mxCell id="VWBzi6tTDOa6CH9NLCmq-1136" value="&lt;font face=&quot;Helvetica&quot; style=&quot;font-size: 25px;&quot;&gt;&lt;font color=&quot;#375bd2&quot;&gt;Rewards&lt;/font&gt; cannot be claimed and are transferred to the new contract along with configuration details&lt;/font&gt;" style="text;html=1;strokeColor=none;fillColor=none;align=left;verticalAlign=middle;whiteSpace=wrap;rounded=0;fontSize=20;fontFamily=Architects Daughter;fontColor=#000000;" vertex="1" parent="1">
          <mxGeometry x="1730" y="610" width="710" height="90" as="geometry" />
        </mxCell>
        <mxCell id="VWBzi6tTDOa6CH9NLCmq-1143" style="edgeStyle=orthogonalEdgeStyle;shape=connector;rounded=0;orthogonalLoop=1;jettySize=auto;html=1;exitX=0.5;exitY=1;exitDx=0;exitDy=0;entryX=0.5;entryY=1;entryDx=0;entryDy=0;labelBackgroundColor=default;strokeColor=#375BD2;strokeWidth=2;fontFamily=Architects Daughter;fontSize=20;fontColor=#ffffff;endArrow=classic;" edge="1" parent="1" source="VWBzi6tTDOa6CH9NLCmq-1137" target="VWBzi6tTDOa6CH9NLCmq-1139">
          <mxGeometry relative="1" as="geometry" />
        </mxCell>
        <mxCell id="VWBzi6tTDOa6CH9NLCmq-1137" value="&lt;font color=&quot;#ffff66&quot; style=&quot;font-size: 25px;&quot; face=&quot;Helvetica&quot;&gt;setMigrationSource&lt;/font&gt;" style="text;html=1;strokeColor=#3A5431;fillColor=#375BD2;align=center;verticalAlign=middle;whiteSpace=wrap;rounded=1;fontSize=20;fontFamily=Architects Daughter;fontColor=#ffffff;gradientColor=#1A1A1A;glass=0;labelBackgroundColor=none;strokeWidth=2;" vertex="1" parent="1">
          <mxGeometry x="90" y="740" width="320" height="60" as="geometry" />
        </mxCell>
        <mxCell id="VWBzi6tTDOa6CH9NLCmq-1138" value="&lt;font color=&quot;#ffff66&quot; face=&quot;Helvetica&quot; style=&quot;font-size: 25px;&quot;&gt;getMigrationSource&lt;/font&gt;" style="text;html=1;strokeColor=#3A5431;fillColor=#375BD2;align=center;verticalAlign=middle;whiteSpace=wrap;rounded=1;fontSize=20;fontFamily=Architects Daughter;fontColor=#ffffff;gradientColor=#1A1A1A;glass=0;labelBackgroundColor=none;strokeWidth=2;" vertex="1" parent="1">
          <mxGeometry x="470" y="740" width="320" height="60" as="geometry" />
        </mxCell>
        <mxCell id="VWBzi6tTDOa6CH9NLCmq-1144" style="edgeStyle=orthogonalEdgeStyle;shape=connector;rounded=0;orthogonalLoop=1;jettySize=auto;html=1;exitX=1;exitY=0.5;exitDx=0;exitDy=0;labelBackgroundColor=default;strokeColor=#375BD2;strokeWidth=2;fontFamily=Architects Daughter;fontSize=20;fontColor=#ffffff;endArrow=classic;" edge="1" parent="1" source="VWBzi6tTDOa6CH9NLCmq-1139">
          <mxGeometry relative="1" as="geometry">
            <mxPoint x="1400" y="770.3333333333335" as="targetPoint" />
          </mxGeometry>
        </mxCell>
        <mxCell id="VWBzi6tTDOa6CH9NLCmq-1139" value="&lt;font color=&quot;#ffff66&quot; face=&quot;Helvetica&quot; style=&quot;font-size: 23px;&quot;&gt;getDelegationRateDenominator&lt;/font&gt;" style="text;html=1;strokeColor=#3A5431;fillColor=#375BD2;align=center;verticalAlign=middle;whiteSpace=wrap;rounded=1;fontSize=20;fontFamily=Architects Daughter;fontColor=#ffffff;gradientColor=#1A1A1A;glass=0;labelBackgroundColor=none;strokeWidth=2;" vertex="1" parent="1">
          <mxGeometry x="840" y="740" width="320" height="60" as="geometry" />
        </mxCell>
        <mxCell id="VWBzi6tTDOa6CH9NLCmq-1140" value="" style="shape=waypoint;sketch=0;fillStyle=solid;size=6;pointerEvents=1;points=[];fillColor=none;resizable=0;rotatable=0;perimeter=centerPerimeter;snapToPoint=1;rounded=0;fontFamily=Architects Daughter;fontSize=25;fontColor=#000000;html=1;spacing=8;strokeWidth=4;strokeColor=#375BD2;" vertex="1" parent="1">
          <mxGeometry x="430" y="760" width="20" height="20" as="geometry" />
        </mxCell>
        <mxCell id="VWBzi6tTDOa6CH9NLCmq-1142" value="" style="shape=waypoint;sketch=0;fillStyle=solid;size=6;pointerEvents=1;points=[];fillColor=none;resizable=0;rotatable=0;perimeter=centerPerimeter;snapToPoint=1;rounded=0;fontFamily=Architects Daughter;fontSize=25;fontColor=#000000;html=1;spacing=8;strokeWidth=4;strokeColor=#375BD2;" vertex="1" parent="1">
          <mxGeometry x="807" y="760" width="20" height="20" as="geometry" />
        </mxCell>
        <mxCell id="VWBzi6tTDOa6CH9NLCmq-1145" value="&lt;font face=&quot;Helvetica&quot; style=&quot;font-size: 25px;&quot;&gt;&lt;font color=&quot;#375bd2&quot;&gt;Provide information&lt;/font&gt; about the &lt;font color=&quot;#375bd2&quot;&gt;current configuration and contract state&lt;/font&gt;&lt;/font&gt;" style="text;html=1;strokeColor=none;fillColor=none;align=left;verticalAlign=middle;whiteSpace=wrap;rounded=0;fontSize=20;fontFamily=Architects Daughter;fontColor=#000000;" vertex="1" parent="1">
          <mxGeometry x="1420" y="725" width="780" height="90" as="geometry" />
        </mxCell>
        <mxCell id="VWBzi6tTDOa6CH9NLCmq-1146" value="&lt;font face=&quot;Helvetica&quot; style=&quot;font-size: 25px;&quot; color=&quot;#000000&quot;&gt; view functions&lt;/font&gt;" style="text;html=1;strokeColor=none;fillColor=none;align=center;verticalAlign=middle;whiteSpace=wrap;rounded=0;fontSize=20;fontFamily=Architects Daughter;fontColor=#ffffff;" vertex="1" parent="1">
          <mxGeometry x="527.5" y="820" width="205" height="30" as="geometry" />
        </mxCell>
        <mxCell id="VWBzi6tTDOa6CH9NLCmq-1147" value="" style="html=1;shadow=0;dashed=0;align=center;verticalAlign=middle;shape=mxgraph.arrows2.arrow;dy=0.6;dx=40;direction=south;notch=0;fontFamily=Architects Daughter;fontSize=20;fontColor=#ffffff;fillColor=#375BD2;strokeColor=#3A5431;gradientColor=#1A1A1A;rounded=1;glass=0;labelBackgroundColor=none;strokeWidth=2;" vertex="1" parent="1">
          <mxGeometry x="235" y="880" width="70" height="138.75" as="geometry" />
        </mxCell>
        <mxCell id="VWBzi6tTDOa6CH9NLCmq-1149" style="edgeStyle=orthogonalEdgeStyle;shape=connector;rounded=0;orthogonalLoop=1;jettySize=auto;html=1;exitX=1;exitY=0.5;exitDx=0;exitDy=0;labelBackgroundColor=default;strokeColor=#375BD2;strokeWidth=2;fontFamily=Architects Daughter;fontSize=20;fontColor=#ffffff;endArrow=classic;" edge="1" parent="1" source="VWBzi6tTDOa6CH9NLCmq-1148">
          <mxGeometry relative="1" as="geometry">
            <mxPoint x="650" y="1090.3333333333335" as="targetPoint" />
          </mxGeometry>
        </mxCell>
        <mxCell id="VWBzi6tTDOa6CH9NLCmq-1159" style="edgeStyle=orthogonalEdgeStyle;shape=connector;rounded=0;orthogonalLoop=1;jettySize=auto;html=1;exitX=0.5;exitY=1;exitDx=0;exitDy=0;entryX=0;entryY=0.5;entryDx=0;entryDy=0;labelBackgroundColor=default;strokeColor=#375BD2;strokeWidth=2;fontFamily=Architects Daughter;fontSize=20;fontColor=#ffffff;endArrow=classic;" edge="1" parent="1" source="VWBzi6tTDOa6CH9NLCmq-1148" target="VWBzi6tTDOa6CH9NLCmq-1158">
          <mxGeometry relative="1" as="geometry" />
        </mxCell>
        <mxCell id="VWBzi6tTDOa6CH9NLCmq-1148" value="&lt;div style=&quot;line-height: 87%;&quot;&gt;&lt;h1 style=&quot;background-image: none; background-position: initial; background-size: initial; background-repeat: initial; background-attachment: initial; background-origin: initial; background-clip: initial; border: none; box-sizing: border-box; margin: 0.25em 0px 0.25rem; padding: 0px; vertical-align: baseline; line-height: 24.96px;&quot; class=&quot;type__headline__xs&quot;&gt;&lt;font color=&quot;#ffff66&quot; style=&quot;font-size: 30px;&quot; face=&quot;Helvetica&quot;&gt;Structures and Events&lt;/font&gt;&lt;br&gt;&lt;/h1&gt;&lt;/div&gt;" style="text;html=1;strokeColor=#3A5431;fillColor=#375BD2;align=center;verticalAlign=middle;whiteSpace=wrap;rounded=1;fontSize=20;fontFamily=Architects Daughter;glass=0;labelBackgroundColor=none;fontColor=#ffffff;gradientColor=#1A1A1A;strokeWidth=2;" vertex="1" parent="1">
          <mxGeometry x="80" y="1050" width="380" height="80" as="geometry" />
        </mxCell>
        <mxCell id="VWBzi6tTDOa6CH9NLCmq-1151" style="edgeStyle=orthogonalEdgeStyle;shape=connector;rounded=0;orthogonalLoop=1;jettySize=auto;html=1;exitX=1;exitY=0.5;exitDx=0;exitDy=0;labelBackgroundColor=default;strokeColor=#375BD2;strokeWidth=2;fontFamily=Architects Daughter;fontSize=20;fontColor=#ffffff;endArrow=classic;" edge="1" parent="1" source="VWBzi6tTDOa6CH9NLCmq-1150">
          <mxGeometry relative="1" as="geometry">
            <mxPoint x="1450" y="1090.3333333333335" as="targetPoint" />
          </mxGeometry>
        </mxCell>
        <mxCell id="VWBzi6tTDOa6CH9NLCmq-1150" value="&lt;div style=&quot;&quot;&gt;&lt;font style=&quot;font-size: 25px;&quot; face=&quot;Helvetica&quot;&gt;The contract uses various &lt;font color=&quot;#375bd2&quot;&gt;structures&lt;/font&gt; to &lt;font color=&quot;#375bd2&quot;&gt;store information&lt;/font&gt; about &lt;font color=&quot;#375bd2&quot;&gt;rewards&lt;/font&gt; and &lt;font color=&quot;#375bd2&quot;&gt;current configurations&lt;/font&gt;&lt;/font&gt;&lt;br&gt;&lt;/div&gt;" style="text;html=1;strokeColor=none;fillColor=none;align=center;verticalAlign=middle;whiteSpace=wrap;rounded=0;fontSize=20;fontFamily=Architects Daughter;fontColor=#000000;" vertex="1" parent="1">
          <mxGeometry x="655" y="1042.5" width="520" height="95" as="geometry" />
        </mxCell>
        <mxCell id="VWBzi6tTDOa6CH9NLCmq-1156" style="edgeStyle=orthogonalEdgeStyle;shape=connector;rounded=0;orthogonalLoop=1;jettySize=auto;html=1;exitX=0.5;exitY=0;exitDx=0;exitDy=0;entryX=0.5;entryY=0;entryDx=0;entryDy=0;labelBackgroundColor=default;strokeColor=#375BD2;strokeWidth=2;fontFamily=Architects Daughter;fontSize=20;fontColor=#ffffff;endArrow=classic;" edge="1" parent="1" source="VWBzi6tTDOa6CH9NLCmq-1152" target="VWBzi6tTDOa6CH9NLCmq-1153">
          <mxGeometry relative="1" as="geometry" />
        </mxCell>
        <mxCell id="VWBzi6tTDOa6CH9NLCmq-1157" style="edgeStyle=orthogonalEdgeStyle;shape=connector;rounded=0;orthogonalLoop=1;jettySize=auto;html=1;exitX=0.5;exitY=1;exitDx=0;exitDy=0;entryX=0.5;entryY=1;entryDx=0;entryDy=0;labelBackgroundColor=default;strokeColor=#375BD2;strokeWidth=2;fontFamily=Architects Daughter;fontSize=20;fontColor=#ffffff;endArrow=classic;" edge="1" parent="1" source="VWBzi6tTDOa6CH9NLCmq-1152" target="VWBzi6tTDOa6CH9NLCmq-1155">
          <mxGeometry relative="1" as="geometry" />
        </mxCell>
        <mxCell id="VWBzi6tTDOa6CH9NLCmq-1152" value="&lt;font face=&quot;Helvetica&quot;&gt;Such as &lt;/font&gt;" style="text;html=1;strokeColor=none;fillColor=none;align=center;verticalAlign=middle;whiteSpace=wrap;rounded=0;fontSize=20;fontFamily=Architects Daughter;fontColor=#000000;" vertex="1" parent="1">
          <mxGeometry x="1241" y="1050" width="150" height="30" as="geometry" />
        </mxCell>
        <mxCell id="VWBzi6tTDOa6CH9NLCmq-1153" value="&lt;font color=&quot;#ffff66&quot; style=&quot;font-size: 25px;&quot; face=&quot;Helvetica&quot;&gt;RewardBucket&lt;/font&gt;" style="text;html=1;strokeColor=#3A5431;fillColor=#375BD2;align=center;verticalAlign=middle;whiteSpace=wrap;rounded=1;fontSize=20;fontFamily=Architects Daughter;fontColor=#ffffff;gradientColor=#1A1A1A;glass=0;labelBackgroundColor=none;strokeWidth=2;" vertex="1" parent="1">
          <mxGeometry x="1460" y="970" width="320" height="60" as="geometry" />
        </mxCell>
        <mxCell id="VWBzi6tTDOa6CH9NLCmq-1154" value="&lt;font color=&quot;#ffff66&quot; face=&quot;Helvetica&quot; style=&quot;font-size: 25px;&quot;&gt;VaultConfig&lt;/font&gt;" style="text;html=1;strokeColor=#3A5431;fillColor=#375BD2;align=center;verticalAlign=middle;whiteSpace=wrap;rounded=1;fontSize=20;fontFamily=Architects Daughter;fontColor=#ffffff;gradientColor=#1A1A1A;glass=0;labelBackgroundColor=none;strokeWidth=2;" vertex="1" parent="1">
          <mxGeometry x="1460" y="1070" width="320" height="60" as="geometry" />
        </mxCell>
        <mxCell id="VWBzi6tTDOa6CH9NLCmq-1155" value="&lt;font color=&quot;#ffff66&quot; face=&quot;Helvetica&quot; style=&quot;font-size: 25px;&quot;&gt;VestingCheckpointData&lt;/font&gt;" style="text;html=1;strokeColor=#3A5431;fillColor=#375BD2;align=center;verticalAlign=middle;whiteSpace=wrap;rounded=1;fontSize=20;fontFamily=Architects Daughter;fontColor=#ffffff;gradientColor=#1A1A1A;glass=0;labelBackgroundColor=none;strokeWidth=2;" vertex="1" parent="1">
          <mxGeometry x="1460" y="1169" width="320" height="60" as="geometry" />
        </mxCell>
        <mxCell id="VWBzi6tTDOa6CH9NLCmq-1161" value="" style="edgeStyle=orthogonalEdgeStyle;shape=connector;rounded=0;orthogonalLoop=1;jettySize=auto;html=1;labelBackgroundColor=default;strokeColor=#375BD2;strokeWidth=2;fontFamily=Architects Daughter;fontSize=20;fontColor=#ffffff;endArrow=classic;" edge="1" parent="1" source="VWBzi6tTDOa6CH9NLCmq-1158" target="VWBzi6tTDOa6CH9NLCmq-1160">
          <mxGeometry relative="1" as="geometry" />
        </mxCell>
        <mxCell id="VWBzi6tTDOa6CH9NLCmq-1158" value="&lt;div style=&quot;&quot;&gt;&lt;font face=&quot;Helvetica&quot; style=&quot;font-size: 25px;&quot;&gt;It also emits &lt;font color=&quot;#375bd2&quot;&gt;events&lt;/font&gt; such as&lt;/font&gt;&lt;br&gt;&lt;/div&gt;" style="text;html=1;strokeColor=none;fillColor=none;align=center;verticalAlign=middle;whiteSpace=wrap;rounded=0;fontSize=20;fontFamily=Architects Daughter;fontColor=#000000;" vertex="1" parent="1">
          <mxGeometry x="670" y="1330" width="335" height="45" as="geometry" />
        </mxCell>
        <mxCell id="VWBzi6tTDOa6CH9NLCmq-1160" value="" style="shape=singleArrow;whiteSpace=wrap;html=1;arrowWidth=0.4;arrowSize=0.4;rounded=1;fontFamily=Architects Daughter;fontSize=20;fontColor=#ffffff;fillColor=#375BD2;gradientColor=#1A1A1A;strokeColor=#3A5431;glass=0;labelBackgroundColor=none;strokeWidth=2;" vertex="1" parent="1">
          <mxGeometry x="1212.5" y="1322.5" width="80" height="60" as="geometry" />
        </mxCell>
        <mxCell id="VWBzi6tTDOa6CH9NLCmq-1166" style="edgeStyle=orthogonalEdgeStyle;shape=connector;rounded=0;orthogonalLoop=1;jettySize=auto;html=1;exitX=0.5;exitY=0;exitDx=0;exitDy=0;entryX=0.5;entryY=0;entryDx=0;entryDy=0;labelBackgroundColor=default;strokeColor=#375BD2;strokeWidth=2;fontFamily=Architects Daughter;fontSize=20;fontColor=#ffffff;endArrow=classic;" edge="1" parent="1" source="VWBzi6tTDOa6CH9NLCmq-1162" target="VWBzi6tTDOa6CH9NLCmq-1164">
          <mxGeometry relative="1" as="geometry" />
        </mxCell>
        <mxCell id="VWBzi6tTDOa6CH9NLCmq-1162" value="&lt;font color=&quot;#ffff66&quot; style=&quot;font-size: 25px;&quot; face=&quot;Helvetica&quot;&gt;RewardAdded&lt;/font&gt;" style="text;html=1;strokeColor=#3A5431;fillColor=#375BD2;align=center;verticalAlign=middle;whiteSpace=wrap;rounded=1;fontSize=20;fontFamily=Architects Daughter;fontColor=#ffffff;gradientColor=#1A1A1A;glass=0;labelBackgroundColor=none;strokeWidth=2;" vertex="1" parent="1">
          <mxGeometry x="1320" y="1322.5" width="220" height="60" as="geometry" />
        </mxCell>
        <mxCell id="VWBzi6tTDOa6CH9NLCmq-1163" value="&lt;font color=&quot;#ffff66&quot; face=&quot;Helvetica&quot; style=&quot;font-size: 25px;&quot;&gt;DelegationRateDenominatorSet&lt;/font&gt;" style="text;html=1;strokeColor=#3A5431;fillColor=#375BD2;align=center;verticalAlign=middle;whiteSpace=wrap;rounded=1;fontSize=20;fontFamily=Architects Daughter;fontColor=#ffffff;gradientColor=#1A1A1A;glass=0;labelBackgroundColor=none;strokeWidth=2;" vertex="1" parent="1">
          <mxGeometry x="1570" y="1322.5" width="390" height="57.5" as="geometry" />
        </mxCell>
        <mxCell id="VWBzi6tTDOa6CH9NLCmq-1164" value="&lt;font color=&quot;#ffff66&quot; face=&quot;Helvetica&quot; style=&quot;font-size: 25px;&quot;&gt;RewardClaimed&lt;/font&gt;" style="text;html=1;strokeColor=#3A5431;fillColor=#375BD2;align=center;verticalAlign=middle;whiteSpace=wrap;rounded=1;fontSize=20;fontFamily=Architects Daughter;fontColor=#ffffff;gradientColor=#1A1A1A;glass=0;labelBackgroundColor=none;strokeWidth=2;" vertex="1" parent="1">
          <mxGeometry x="1990" y="1323.75" width="260" height="57.5" as="geometry" />
        </mxCell>
        <mxCell id="VWBzi6tTDOa6CH9NLCmq-1167" value="&lt;div style=&quot;&quot;&gt;&lt;font color=&quot;#375bd2&quot; face=&quot;Helvetica&quot; style=&quot;font-size: 25px;&quot;&gt;&lt;span style=&quot;white-space: pre;&quot;&gt;T&lt;/span&gt;o record important changes in the contract and facilitate tracking&lt;/font&gt;&lt;br&gt;&lt;/div&gt;" style="text;html=1;strokeColor=none;fillColor=none;align=center;verticalAlign=middle;whiteSpace=wrap;rounded=0;fontSize=20;fontFamily=Architects Daughter;fontColor=#000000;" vertex="1" parent="1">
          <mxGeometry x="1370" y="1390" width="750" height="65" as="geometry" />
        </mxCell>
        <mxCell id="VWBzi6tTDOa6CH9NLCmq-1168" value="&lt;img alt=&quot;Notification - Free interface icons&quot; src=&quot;data:image/png;base64,iVBORw0KGgoAAAANSUhEUgAAAOEAAADhCAMAAAAJbSJIAAABTVBMVEX/////wQcAAAD0Qzb/oAD/wwfosAYwMDD/xQf/pgAwHgD/xAf/xweAgIC5jAX4RDd4eHigeQXw8PDvQjX9RTiZmZno6Oj/+uva2tqxsbHYowalpaVGRkblPzMoCwlwHxlvb29WVlY5OTmjLST3uwdeXl66urodHR329vbINyzaPDB0IBrR0dEkJCRfSAOxhgUyJgHqkwAVAACilZTKvr21MihfGhXj19ZEEw+aKiI0DgsUFBSrq6vdpwaHZgTKmQZSFxIWEAGGJR5XQgOGZgRMOgJyVgOTbwSMjIwxHwBHLABjSEZCJiUhDg2LgH4qAABCNzY0JyZjT057aWivnp0vHBmCbm1JMjCTg4O8mTz/4ZH/7Lz/zUf/89aVfnFdOQAjGwFDKgaaago3HAd4Twk9EQ1AMQFwSQm6t6zIfgBLLwDRgwCqawCMWAC0cQCVmu0sAAAMkElEQVR4nO2d61sTSRaH7cYOwbQESMhAAAkhIFe5RhQHEUREkVnvuu7sDuOqu7Oo///HrU4I5JxTna6uS1948vsyz+Oku+vlVNU5VXWq6tq1RGtuaHPs6PjFybrNdPLi+LexzdJc3IXSp9JG5W821frMx5GrQLm18ZJD19Kr95txF1BRox864DX1biO9hpzbCMRr6n0p7qJKaW7jRBCQ6bcUMm6+E+fztBF3gUOq9DocH9O7rbgLHUajofk8fYy72OJ6IwVo28cpaY2lTg6ws9ZT4R23pPk8vY27+MHaVAJMQZ+qCpj4/qYD4MnkdH1+otBTmFioTy9upxRxyafQ63frE8Vinqmnp8f7T7FYmF+85fPrBLfFrXVuie8xvAYbUL5YqN/lIya2R517xeWbz1O8c8j8wiQXManhDS9Su1Uv+uCdG3LhHuepd8kcUL3lFHW/pxNfk3Ga89zruGF44nj69fliAJ8nrhmT2BRprHavEGTAVnNcpH+cobh5iGgdnRTja5jxPnn6TdxAWEOkiIvigAyRNsaluJGQ3itYkI/4IW4kqBIu36NwgAxxH78iWZ0NHvNuC3YybcrjAOdd3FDtIiZcCA3Yky/gubkojTgyO3pUmRqv9jJVxwdm8f//iMp2X8QPEsR59JZo3P7c0ljlAbaQbY/CH6G//j0ZQNYUsVscMU43MjxF4Zoabv8hHhVK1NGGCmhsYnikuHSz1w/PU7u7Qv3MopwJWT1FLsNkXzM0zKmaQMuXP57TZEJmRDQoNjaKWvKtnFwjoko6KWtC6vcNVdPZcQG+9s4GVdJ5aRMyI8JXbRvhqwrx2fbYxSOwf7glb0JmRDTm1z/CWBLls+2/f/rHL41n0MDwvoIJiU/U7fSHKsJ8tp2xLOv3T/9kVof/vqAAyBDhyzQ3xF9D8NmPXauh3z/9C/z7thJgTx5WU60DjCGxDqaljNMktNw/wL9LO8NzQjgWXg4ut7BQXQtSOXsOaGW/gf8xrdIMGeEC/I4+jzgQiu8gcwHo1GBQquIrPMIJM4RD1QCkvTsHT1d2yzuZzM5uf7nmtqooI9yBv1TraJhHhCsamuYy/JYbmnoyuFtzsq6bzeUcplw2d8lHCE8mFAnRQFiPu+iw6r76cNdyXYCE5JTBA18LioRFSKhllWbYl++wbHWk4xDeU2uGJKrRsWDqB7g3WAvEo4SP1JwFGQZrcPlHfL7TftcNxjNPqG5DvgVPV5xsMFwqaukYF/BpTcx+HMLthPU03EDm2444H/EW6xOKRsw/Au9T9IdcPzjo5sT5GGEGPq7s8eFEhhrhEGcu5rTshuHzorYb4AWJito4g4nHNdEe5kIujLyVBsBkCKy2jHiTAh6EaYEtQjh6CrnmRAjh6OmVCiCnlxkMWUObhIPwJWqdKepojhUAOY1wRQbQyu3Ct6g1RDTZpuIO6ZSMHCDpTPdVopp8Hb5MYWhB66gkIKumaKJaaTYRVlJbHhBPxEu2wSbhZ/imukI1RXMYChNRpB89CO0lLoQbokLwjZe65ZvhCAZ84oR3Ey05FnqZdF+D3b0tn/c9gwlr8oCsmj5ERpQlxCZ8KQ1I4tFd+TrKlCuj10m2RDyTqDCwwItnD6V7mYYc60/4vnU5r1/E+W3SlRSbcNVSqaMWDWvklhBJ0pB84hduhWWlOuoZsYaTg+vhEUkdlR9X4OSXQ7U62jDiZ1y60Cvd+QJObpdPNsG+UKkfPTcidhj2rbBJUTiaUTDhHAq55YOZdiPilhg276tIktrlWyGa4d7TYELPiP/GJRTNn21U0R6a0S7v7ZGr0GJCy8rukiJ+FZ6UyvfQbQnyARtKddVjQib3CymkLZTm7QVrdAfNC2lAPEOq6OwvhdcRG7rvt9MCANbpgyozUGj6aUeTCZkRaT1lIepCkBmLE7xNJSpje/imb7pMaPGcoqf9QqctJXmcytaUSt4lGtv3q4YzbXKcP3iltfcnfBjzxcI0d6fUK5UtM2i9Xlc/00Ss/ckrr20vzhND5vPFnoV9/s/XlaaBYUblHY2VlCmX8TtkYHuyvlBs7s9r7M0rTszvf/X5rdo8N4pJNTnDC2Uz/P15DZ082p+ue5rev+u39dCT2tI9GjhldFbSJiKJbcJKMTcBLoiuam2G54jPYgVE88Aaxk1EOb/uRkgnyhlC0N/rboYNORYnfhPUsXI+KVqsKIdaCxVGdFckATUkXqCuVHtHcy4381yC70RH/hOcCT5VnYHyVc4iI+JAvdey9xfGbDqDUiTHrf0nFN8HTUmIcOikOaLBjGV+mMrTS2353NAdmnAWbcrlymJ21MeHU7yemiVkjNnM50C+91o3xsCJxEGNQycfOa67+8U/ynn1Rvd2A0i4Yp6QKeda5ZUvNNC5NfNxSf/RCZBQ5/C3kxwn69YyW283jgZeH384fv3maOPt1pCZgyHiIWwo94sRogQROl3CLmGXsEvYJVQGzF5tQjaYKv93KYpDdWIizGYOGx+sGD8kISbC7GVGETlR40oQggRU01aMhdC90/bN8StIiHKIDR//FAdhrh98dDi4lGkjRKk2A13CLmGXsEvYJewSdgm7hF3CIA1cecJKDIRZmLdQuYKE/VESwhzvfiPJJlho9DRjlrAKPrYbDSHMHZ4yS4gShkwlm0BCuLOtapYQfMtYwhAUOjhj2eiR+WgngrGEIUiI9nobnRdG2aWmUzHOCWt74KtG5xPhhqDVaAgtdxV81uikMEynMZwwdEn4GHzW6GRbBNmlPMID8NmKSULYDKNJpyFh222DgCi7VN+GoM7CJxIYdBdov0w0zoJuMDXY1cC4+0lEgKwhQndxZI4Q7pc5iKijYYSH4MM6T12FQodhRLfGjboahf2vAULH60UTlXrCcduvpgjh4PBbVB2N19Wcgk+bGkAhXxFVROMJNURT1RRV0miGv02hiYy249y1ahl+Rf+mLn/hhmhmMR+NnIzuRCBCwbeZERQ60CSqoLQp7C9MTJriA02i60k94WpqIjZFh+lG2ZN6Ajk1tolBIr4WLcqe1BPuTR9oNyJyFeZ2rfnIcdCfWLcRsQmjGt5fyn2KjKh5yg3fCxBdTNoS6Wv0jqEMnAwVWjhy0xu64fPZopq/aBc5tk7nEg2+GSDaeKYl7DA0zmaQ02bjMCHHiLe1eQx82mw8JmRGfIIKoit2I7dXxGNCZsQdXBI99ZRcLxndDBQW6U71rENV8Vuj94UtEZ+oZbmUHPkcfThzKRzY6GiK5PqKqJbUuHKsVVwe1QkNeqa1mcM+RJXFHkO1t6G3O2g7gE5StLNRmtGggMqnzarKqZ1qROTcz7ETax31xKmn0ogcwDj70ZZofyqLyLnc4XECAC2HBG+23FYhzm2NBk72khHOPmloNJgIiXdPVfyNsCleUww9b8MD7E9CHW2Ie1JWOETeZXhJ6GVa4vU2oVw/GU7Y8bt6KJRi01SIiRty84FtHwrcghehHAdPadhhonByeQUb1itcX2FEjsVBFDYivSPnjsQ1TobFs+JNQUB6hUziLOiJhyhISKK1wyQCehWVjDMEQxs86H2YvCralJPFPapgZIOaYZL8IBa+b0CwN4W+wvipc0pCflFwoh8SxjtrESS0cCqYSgQJWStMsORsiNrh00xytYMuihJ0iP5XNCdegn1p52vEEy3B2Qx8j0yKJAZIF+1TI+Glfd7wMBUSHyDSwUUqJDq0uEazZ9KhUIve3Ou2k65wc6Yp9Ilhl9lShxh+HTFlFVVmFbGUoh61IpmxMMKZVUyilE5TnD2aqvaK6zb89I1nNwT07AZ86naID1anjoyfpAj/ILCsf/UJ6Sd8yvChempCocL/+q6LCN3WYXS/vbLQrpMzEcC/4DOGT4VQFXKjz0UI0Yn5hs9FVBVe8vgeWE/7vqNHjG0u1CR0O6K9FkS4hh5IeCWla6t7QYB4TT7azl9Cc8glBjTFNXxthcnN9ppEQvbnHSoqATS1s1Cn6Nrc3plPd9N3Rn4rPJcUpzhZDp+vcxj7rv+gv0x8K2wId6dMz35ixr7rP2/Q3xk+5UqXOGkAjPH7Wt8FZF/f2nfu/T9J94UtjfEKb9unP36esV5n7eznD475PIVP3YpLkmPnStzlDqHeYBwq06etaxXZRySg5SjudtCnEg5tAnU7XYAMcTkYKsUW9DRXDQM4nuyBvY9C9KiGT101Jl6WKlfpiNV4KglNuM6kJZLhajaww1lO9OShiEY7MvamJ1DroCXfLmcm9fZrqTRKIR9URtPnAjuqNDpcGV9m0dyD5fHK8GwMvcv/ASr6o1IDybdlAAAAAElFTkSuQmCC&quot;&gt;" style="text;html=1;strokeColor=none;fillColor=none;align=center;verticalAlign=middle;whiteSpace=wrap;rounded=0;" vertex="1" parent="1">
          <mxGeometry x="1950" y="960" width="220" height="210" as="geometry" />
        </mxCell>
        <mxCell id="VWBzi6tTDOa6CH9NLCmq-1169" value="" style="html=1;shadow=0;dashed=0;align=center;verticalAlign=middle;shape=mxgraph.arrows2.arrow;dy=0.6;dx=40;direction=south;notch=0;fontFamily=Architects Daughter;fontSize=20;fontColor=#ffffff;fillColor=#375BD2;strokeColor=#3A5431;gradientColor=#1A1A1A;rounded=1;glass=0;labelBackgroundColor=none;strokeWidth=2;" vertex="1" parent="1">
          <mxGeometry x="235" y="1400" width="70" height="138.75" as="geometry" />
        </mxCell>
        <mxCell id="VWBzi6tTDOa6CH9NLCmq-1171" style="edgeStyle=orthogonalEdgeStyle;shape=connector;rounded=0;orthogonalLoop=1;jettySize=auto;html=1;exitX=1;exitY=0.5;exitDx=0;exitDy=0;labelBackgroundColor=default;strokeColor=#375BD2;strokeWidth=2;fontFamily=Architects Daughter;fontSize=20;fontColor=#ffffff;endArrow=classic;" edge="1" parent="1" source="VWBzi6tTDOa6CH9NLCmq-1170">
          <mxGeometry relative="1" as="geometry">
            <mxPoint x="639.9999999999998" y="1610.4615384615386" as="targetPoint" />
          </mxGeometry>
        </mxCell>
        <mxCell id="VWBzi6tTDOa6CH9NLCmq-1170" value="&lt;div style=&quot;line-height: 87%;&quot;&gt;&lt;h1 style=&quot;background-image: none; background-position: initial; background-size: initial; background-repeat: initial; background-attachment: initial; background-origin: initial; background-clip: initial; border: none; box-sizing: border-box; margin: 0.25em 0px 0.25rem; padding: 0px; vertical-align: baseline; line-height: 24.96px;&quot; class=&quot;type__headline__xs&quot;&gt;&lt;font color=&quot;#ffff66&quot; face=&quot;Helvetica&quot; style=&quot;font-size: 30px;&quot;&gt;Claiming Rewards&lt;/font&gt;&lt;br&gt;&lt;/h1&gt;&lt;/div&gt;" style="text;html=1;strokeColor=#3A5431;fillColor=#375BD2;align=center;verticalAlign=middle;whiteSpace=wrap;rounded=1;fontSize=20;fontFamily=Architects Daughter;glass=0;labelBackgroundColor=none;fontColor=#ffffff;gradientColor=#1A1A1A;strokeWidth=2;" vertex="1" parent="1">
          <mxGeometry x="75" y="1570" width="380" height="80" as="geometry" />
        </mxCell>
        <mxCell id="VWBzi6tTDOa6CH9NLCmq-1173" value="&lt;img alt=&quot;Recompensa - Iconos gratis de deportes y competiciÃ³n&quot; src=&quot;data:image/png;base64,iVBORw0KGgoAAAANSUhEUgAAAOEAAADhCAMAAAAJbSJIAAABa1BMVEX///8AAAD/3c78gIb/7OP753v/0GR8i5bnpS7qsU3/g4n29vaAj5v/49T/hYs6QEVLVFuPfHP/7X7/1mfrzL7uqi//02X/8ejHx8fKr6MiIiL/5tb2fYP/73/4+Pji4uLW1tZPT0+xsbHS0tKbm5tgYGDs7OxdaHHEta6tWFyDg4OlpaVxcXE/Pz/BYmc9HyCRm6I1NTVyOj1VVVWjU1fVbHFRKSvpdnxKPB0WFha3t7fr2tJra2uJRkkbGxupqamAgIAiERJ+WhkqKipbQRLcnSzHjigvGBkWCwxIJCa/nEuCQkXcs1a4XWLm1HHMvGQzLxmri0MeFQYqHghMNg/vw16CYivVoUasn5lxYltZSSOLcTZyaTi+r104KAuzgCSjllBxURf8joVyXS28hiasnlSBdz+3ijzeqEmSbjDVxb7QtKhjVlBKRCRbVC2Sfj8sKRaYbR5XQR2nfjeMZBvDk0CfiYCGdGxqd4FL35L/AAAXh0lEQVR4nN1dCVsaS9a2NRoDkRlRXFFA0euCOrhg0OAS4r7GJTHRmGTMqsaYm0Tvz59e6tReTQNNN993Zp7nRmi66+WcOvspamq8o8G+VDqrZdOpvkEPn+odxZ9qhJ7G/V6O+zSisTTi94Jcpt6ExtNY0O9FuUm9XQJATev6/wRxTAJQ56LfyyqDBuP9MfJXkIjo8mRuchn/laC4GOuP/1/RsME+BKgrGTf/TmJEmZlQQP/fTAa/kjQxxpN5BHmx+iU3yOjM7NQAJaDToUCdQYHQNHkxPTCVZXRslWPskKkUDLAOiIbI00KH3yDsaFS9cC1HAOoQczZXJv2GoaakzbKnaYD2XKxeiB3qNa/NsAB1iDMT6surVFCDCxhPbnp4mihMbW24LlDHU6BueI1ckpkeHs7hv7PVqW5Ai66P6yZBp+jw1sT6+lpmeiYg4jMxBmamM2vryxNbw1HjA6HA+Dq6R1V6rYPAjSjgCYRMUuCzMKJL4O8ocL4arX+ftbTlqBpQYQpEkaQu+g1HQgPW0sbLAahDHLduM+U3HAmhTcjrzGIptGzdyG84IsWsheVUCAPmnquri+ogjL2pYjX4ArHCj/SYkDszLFu5Di46M56bzGQmJtYmNjKZyenxmahcBQV2rBtVn9VHxnBWXLJuBHIy6z6RM8yKcP0sMol+A+IJGcMJQeii45MSdECT41FBrNG3seQ3JJbAI51meBIIzeaWbfCZqik3wzIyAB5rNclpbACWG2X4N2PHPoqRrNMahS9loDq0TbAjSYJcWs+EZjNSPDLKzFIYA8P49bFkh98eascAvdBJss5AVIwAs/tP3hj0ZF/EmKNcoRDD+gE/A43YFLPKNSKjofFl5i3t5nRz+7ihxaKG4+3N0zfsBcvjFBtZ1ZvwTVr72DVOYICBwBbzztnb+vpwSwOhtra2lraGzQvmqi0SYkU32Fv3+QOQi+i38PoCszQDv78N94TrDaIxmjhb2jaf0DIwS27BybgvepXlYIbow9A4zb49BM+kBp7aWrZpRhJJpVOOPnExRj1+I0cFuSGiCrWbPQqejI0mRmpHDmOIenico2U17jnCBJbOGR0VpQhJiin7lsMnhahj3CRA6ISV/s8ZvKETXgOErNPELOuRUGnCs3oRoExSGxpaGi6kEE2vCBg55zFCZCc2uIie4uAnKb5wT32bDOMLBUTdsG74wkRIysxyAPEePNiVAezZ+3zzeU8iqQ0t2xjiDgcRBRsep27mrIdy8W5gBla5L5XQnjPzzQsZxLZj7OnMcF8bEnxv1SkKlrhoEL5t7bsUYPgHevuHFGID2MZ1+W29zTAid5RdSWDDFmB9PRbEXQlCCmKGixmtV71NTiXMZ67JtcytHGD4LdFCMibqEA/k2sZyU70tGVuqdFm+CXelDKwP32CE38MyharvRflWXDZf81aZpqyFMAEvuFm8HwO0qxHalZlFXaOC7c/QN45ar6U8RYgyazvkq4YcmfZeATD8nkL4IyyV04YWUEaSO496ijAuqgQsgHKA9fW3FMLbeqnh1wUVtA21v1FA3O8pwhpUeyf+NqgZqaU3aE+jSRdlOULYikTZBNAr3gIEg4g1QhTEr0cBEFl77dz6z1mPzAk35PQU3QnvcaTBljxGiJwaqMNACvBAJaLYGK6g/9ZLfXCDkMmAxCTUaryOEPtZhHWoKCZ3t+uJMXwe+YCvVDAROeFgbAGhx9sQoieEEFaxr+Rgz3frineRd9Y/DI2kYOKt9N5ep9ySzD4MIHWnshTYGB42NjYeWv/cValTYOJkgPEkvE7VoPhwltUzShaCMXwWaYw8s/75QyWmDaBOka5BjrfH8SGyh8shxiafUYo0HNb/D1Rfj0KjVZ2Hq0SiUf60pc0gwkQU8SOrDzVTbzci6rTLBRibvEfw7e7t7b399P79j89nZ2c33xHA84iOMIIMxv73m4uLi5enpy9ebG5ub29jjG0oGkYpdMgs5nu9w4c7fpGQhtCfsAvDe0iv8PTTRPhT/uaTbZDaFvRKiBFTLeEZxGAaPZLTBWdhACiHoBvDRpNUb2+3sWLK6TEt7VGZpjcPK0IshGIRGMOwpPJi0vOICTDyXPH+LULYhkIMKGXh3EGXN1zE5Sbw/2EbQly4qylo1WIh6BolE8E5hVoWjlu8ifNxNh+noUJWZHjLuS8CvYsghGD1BdoEZWMZ/Qn8BJyF9cB3C0KPLMmzIacU2wp2Gx4cHB6enx89/70CAHWIKz+fH52fHx4eHDDXchuRlJRx6LJQ+a0ILBymUylGIuWWJC/wsg8+rqysNEYsaqQJXtPfXz3ElwMLIcAgSTecia18O1iC56Dp00yfvSeBISWmh6ssMJEiBCARUnDcqHQNCGrFXZug9Zz1OpZCTHqN3ok/7SHSW3ITe3GgTOmEVAB1ZlZaTFFMwaX76v7LuaG7xGB8sAX4jLD7mLip4NXs0J0PaCtWOsYYFb9cCUKdzvDSj1ZUbIysHOGrLhqoSAMQ0r0d4FdUOiGFoqZoXSGEVGrtQLEZ6S142kaHUoCQaUBCAUyloyjHCOt7KKMh3Yy0f7rJBlJShHXeIHQspcZmJP73bxFi5Dd+d3+bixT9lFLQNA4QMpvxo4Dwo3wLKjUNJLsqXQtGpdFlDmFIUYzBm/EDz0TISElrbTJrEULJrooXSlETG2cudn58ktdE91Dq+EjgIajRTUkuQ2bxEQsrX4FaRAtjatFG4XBfWnKCWPG5wEMUQvFbUOW1QZNO5asXQZilm+Y978+ydDe4N4KqAUWzKW1cUHreXkzT4Pm0aUX0xIopUjarjTyhIFFa1G+wXKK1EA/QmwJUAp42roiAGbLWerAi2kPL3N9K8AkRMO4j8yaliCe41rkshqQFCuJ92IaR1VVwcPBGFMVUyGLAOJRXE1+DEARvsZmozyJCMBeWUxNZNRTokYURoooXopiCooFMFLR+LXjWaBqEvmdFNpFCeEO2YaQRvJhnjQZGVIV6I/JQkU30KtVmUC8SVGVGGJP1xoGOKPKR+NmHH40X0N+ikHIZYaRmPEhgUIScN8jqo40o2Auwhs8ikUYSCSI2Qmwo2IuWl8w2BGfG4+ITklNksFSVGeiCekcHSpiNyDM9FTaiJru51ycwyKtrfIG0B5UCGz9oIn1Aue8DDmGVVNecVUihanhOcFH58EPEV95e7Evv7XWFlKtyw+gnaxIlueFP9eJrLxiE0DUEsw1+Vbm5TgVwq1jPreeGw3KzG9YDY/7VN6yYIs5Ocw6N150Kqm4Tts59y0L5ZOnank/MSRjaIcNC6IoCrxv2odfj3citIdENVBZo55Qt0ZzhnHF494x5h9qIuGMox3cMeTyQKHZ9ARNvwgqEb1U5YwZhC4wmUBNGqCUw7ilCFAdTmSI8cUbJKVVIvOFSAOEW0p6/TwGEjnb6zr507i3xX3SdFegbtCcWMCSTF7rOhAIOcWrAX9M26Bv70n1p10FLdX6FP5mvnIntfDqolmOLjSS4aDsGFeR/B23CfCbXBQ3K5jsFcff95/eSlloTVFvL9o/TF6Rc0Qa2np8B8K8Lmu9kh7HBG3rDhWU5OMBk9NIQgKBlJri6jxUAe9vJLp1GwLMfDEQZ8a42C1Ax5OCtQeyTShPJp3wvASAeReSO1gB/yVunRjUVhHNit8peYTnAlmMcXg3zg0/odY8PdLFUjZbhDg+iRtdkeSk1QDKgx8sFzAB4HR8iz5udMzcgkgngz46n89oaTlUAycy719N55CjE3GyIHkGkhpz398QsuHTCcpt46Dn6VqHQLBb7tNcAwTO1GDk9S03JUueU6dFSuADAtpZjakqWKhUEZunDtLS45wi50+eokx/oQWDt8y496SwkDnX+nVJXk3JPaJY9ccJbpxQRd6osKZqGZtap12/2gI/itDo7yb08wxd7MPl09hd3hiCZVQpEGQYcfN4zPBumFUFH17Z9yvR8TVITt9yRGr4dcxJnT16lAgJGUg06+7F9TJ0acbz9gj1QQVunzSB7pELa6xQNTXMJhgvU6Zaz4sktB08uTHrz5EB4b5LyHdiTPxKemwmOBvtGcEct21kwsyHgUNEG096Fu0m1rpEqOfo7DpxcpkPiQMghxo1xZqYfn8AzFvcbGEWgV9mjvnSMk+sKWJgm+VOUYAtX2dmJKK3BZB9MjLPDdkcNZYZnheO+EOOX/IbEERzlIjnNLBDd2ZJxcn1rJyo5sg2CzCpjIURTihPpQqHo+PBWZmJteXl9eXltIrM1PB4NSQ5ro/VMdegYIOzf2JwqaBzjGdWpzvbITxJ/VRUTMQuhZlo6hcjBtNXExCWyu8o93XOG3MrbBKktERYyB36VQlHqbOEqYmKKMQDklN0Ac4SulGXsObwB1uV+6jcwIPrIKM082do897huPJfZmNiYlJg8gDc7PKlfkcmN11kf4U/Aro5jBWtq0M+rEH96YnpnfJhynyd2JKozENih8EwO7+xM478PUGvmgN/QLIJ8xp9fmpI2+LZpe8f8Hcx+xf0GZxJi4d+PHr1Ur5nPggoBJE3PItD0VhVMxCx8ZA+R6Sq2PVb/WYQM8MX9hleDizQ6C3WyEVSai6Edm+usUVrERM+PaRMJtZ1or0yEj16xyYnzI6oXCmfSaICHT86ZT3xAEzbARD8zGBYhFj5/BPTqGyz5w7uVxsaVVdLQNmkkj0N0guPlq6+PHn39Al/L+W88XlM1TISz9149ounPly9/VmDkMLJC+DixNb1FbMQh+dTXP1/erTbSQ4rARL9/CSJhLePiEU900/oK37aHAH5lP8HNYH6wrvL5N5PkLOQQ6qIqzWV8tfsI7rD1mYlpByw0uSjmDw+Eb4VDCEzM+wkQamw8N/jFSufT/xT4WjAT/UyYIha+LLRW6RkDfxf81DPfmahkIb9WYOGA2S8DRxY4ZqJPByXXFMFCLlRAEJ8U/Bxq7k97eKoJQzCaX2gXQkM3DvcgoPxSkIlIB/v1myz5IllIQvaUiom8DkZM9OjED55gTq9oFtoykTt8AV3oSwkY/bCM9o1a36tfL799EUwFYiGdOltSMfHP72c/Ke8NT0P7ARDy+GhpX/98+9t64YidU8OnJtBJF8jOcUz8ivqinv/+CG4tutCHKnAvapT8ZbDuy0v69PhzFuGhyELMxEMWIR1IHemhiY4SMdHdqbXBDopU6S7EwvNXvy4Ev5oev8csZJOfQRkThfj58MO71XO3mRgUfuJvRJaYDdr8lCPLRISfr0KMSJh4rr6le3Ndc7K7S8xRTHYdpo+YiVhV8F8T7MRflJaxvWfcHYCL8ruLItIvvxARNbmN+CIWkpCsUEy8UN9QcyudoVy34N4Pyq7Kj4AIrBRiIRkKx0z8ii7tG0lrEnKniCG9tUnCLhhg388mrB+9Qd4KHk5HcaFMTyAmrgPCb9bfhucT7EgmuI3uTuZUugktEpwKaiMuPE3iXyuG7GmEZaHM6+pF74HLgL4MkMZgfPQphdKdEgZiQPYvitBDxObHmNUQlVqMMctHzio6uUxTs5D3Gb5Yf3QxX0JsMWUK85g7AHuRkD58TBPaLpLrY3Md4uZAAcdRhHKcVT5XlmYi8ohEvT3YMedWDQq5Kf96/JCix/+2nux0o4MpN6a3ITuj8puR5l43fPdX6HMVHWdGiysPIfhjxlmsiIXKYznhBMZvRM8suQNFQe4gRLrmcAUnIdTxKxVDI9cn7gIONbmDsCZhfeCdk0QSzoMgPVPhHL4twqmBgYGnqdRIsiMes4+4kc05AkVql0fCuay/C1/rAtkipCmfGLFTb+gqlEG0n/3sYq6V2k0XyTFCi1JzCr3HNoDb53PZ3/KudBtUkQh1SozKticTdxQqrDCN1JXuvSgeoU5Tc6Jk0T8aWKiuQjPRq3Mti0Oou6VCiEytunBtLEEurniBwhZhPp3Pd3Wxg/SYUqx4kbOUHZTGSMRW+ayoLcL5dp0ezM9fXp6k+MhGwIgzIU7kDjOx8vk0e4QPLDKAts/Pn6R4do5QmhV8eEeqAxSTB9UJRwgx0AeXdxwrKe8saDKmK+7ouXFTqBMeHCFUDEKLm5fNDEh6uCU+1+e8PN3fNxd3H49IRSK0ODmUoDGmqqclVEbFIzRAPrhkMI74VetzQiUhNBh5yTgmSR9+hjkY7y8QD1iX2SFUAjQxDjFZulS/l4yMJZEPNZYspLqlCB/+Y3263Q6iLqsnjFrNp+bi3qBkfze7wB6RI3z8l/5al1pIAeP8a42l7NjASN9cf0V1Tx+f4c3bslGO8OHjh/9c2nMQYWS3I0VjqeRiRyzoNlMHhSKSQfHiET58+B8nAM3tqMKIkD5dSs7FY4OuQI2nFE+xUXTlIjS245C6MEAonRhYWuzoLyca7JhS3t3mDJTyEZqmY0D5bIEWpkZLgdk7usDeJ998d3KHv1t1EOYGQsvPGchrjik/WqTQxrgxee11a3eTTt2gztUxqTsILZCXQ82vxxTRJE/ZYhqC+p+yH+66a22qtaipE70WrzjCB1aQ9UAPJ4dO7lL26sf81p2alDnuXunOWsBnQLy3XlUmtNxESCM1AsrLoZPm6zS3fShyEocILQbXV90UPp1ardeVtUYVwsf/aS8dIo/0cuju/npMTBIUzNHEltgPZO9bOXy1td0Wi5WFEhXCf+enhsqGyCDVxVeX3+Z7WubsudjBaeg82X4UNVl+VbZIhKZePHELIoP1wfwJ0UY2e5F3zsaY7UfxsBSEpluqk+sIASd22VVn7AjO2Wt++xGElpVSmosS48NyMV6C/pEWUnnnbKFZ3H5YSJGmUU5m2iJsbaoYxHkEUdK7xjtn+RO5eDLbUJ2WtEdo3KFCEC81+cpGOZV73dlkh6/pDl2n9AQLItTv0l0RiGgvLtCrkTpndviuQB2p09AOEFaIke2IWXG8Folz1q2Gp+uY1mt8rdruOENYCZDARBBTwTmz3X76gmrvycXFRk8yhBWQVushppoPcudPic6ZgO+OutquvlMEwsKMbC/K02tPWE9x5pyx62jqpGM1Wye+OIT2INsvhy7nLR/NEUIkZbxz1iV1zmjqvrqmP5C0DTaLRmg8QLFiU1Fk89d3J0Pz7Q6oWZOQyjmjvuNWJsNXqKhQCkI5I9vZ7KmWvr5vvjs5ORlSkiT1oXbO8KOZDahNFcyIlIZQBrJdnSdySFkb5wye2tRJewRpBzXykhEKIMtFmL8rJJ7GBmRMiqOpmnIQshjbh8rBN2brnKGntTIKZslZNqs8hLW0lWy/45ftmApvPwMfo5kGnKYky0ZoPrzJwjl/eXL/2kl6mKGFAs6Z9YjaEzrhM+a81uwKQgZrbW3r1cnd62uH6VP72Aio+4r54opp9nMZIcbZ1K1TbWvr1VWnLRXUnub92A1YXCdcRRDyaG3IyR1a72l8xbYNVBxhuaTHuHQafazoMZoqR8hZ+GwJXXDVjbCJtfAltYhVM0LOxV4qrXZeINfmJ75axsInSq2t2iJsbnWk7CqCr4kJVdKlH3ZSoIP2+sQfkOwGzJYzuF6wRzj72oFP7DJ1sxtwpKyGKydd0F2F4zY3iUmiFeFil4HQ2AeeSSsXwxdv4UtEqNPrggkUN/A1ddIudpcL8zTF9OrnKy6t3ayL7UrHI5o/zEsRjgiNFUYiumIg+SSaSx2dCet2f9EjpP+gZ9TUdHClhApKK59Ei7uDjwwspf9FCL1ktjcMLgoZpvz9leuM1C08HTKXYeEFivPrJwRPiYn9gGN3ta5uyVKSaI5J2ZJGV8Yl0nrd6dqW5F1sl1s2g6o+LdbSBvsEac3eX7mwJZu4GL5cCy8hxYEeoqmNJYXs0tid0UFXBrru2k7GQJRv4WUUlAiqomDVL7awpps7WwskY5RJmqu7a/ZmFZuYjS+N5bsIpVM23yT7IyyI8tev75uLontJG2Nlx7x6g5gKbfRYsnDnYQlUXbM38aXCKy6OKrMBy6K5sqtpFCX8PnVWToOj7khr11LcbyhqwtM5JdPYUr8PM1NFUW+8LzkgaY8tQNmF9NTIYkdl0P0Pi4zJ2ndFV2AAAAAASUVORK5CYII=&quot;&gt;" style="text;html=1;strokeColor=none;fillColor=none;align=center;verticalAlign=middle;whiteSpace=wrap;rounded=0;" vertex="1" parent="1">
          <mxGeometry x="512.5" y="1375" width="220" height="210" as="geometry" />
        </mxCell>
        <mxCell id="VWBzi6tTDOa6CH9NLCmq-1176" value="" style="edgeStyle=orthogonalEdgeStyle;shape=connector;rounded=0;orthogonalLoop=1;jettySize=auto;html=1;labelBackgroundColor=default;strokeColor=#375BD2;strokeWidth=2;fontFamily=Architects Daughter;fontSize=20;fontColor=#ffffff;endArrow=classic;" edge="1" parent="1" source="VWBzi6tTDOa6CH9NLCmq-1174" target="VWBzi6tTDOa6CH9NLCmq-1175">
          <mxGeometry relative="1" as="geometry" />
        </mxCell>
        <mxCell id="VWBzi6tTDOa6CH9NLCmq-1174" value="&lt;div style=&quot;&quot;&gt;&lt;font style=&quot;font-size: 25px;&quot; face=&quot;Helvetica&quot;&gt;This function allows a &lt;font color=&quot;#375bd2&quot;&gt;staker&lt;/font&gt; to &lt;font color=&quot;#375bd2&quot;&gt;claim&lt;/font&gt; their rewards&lt;/font&gt;&lt;br&gt;&lt;/div&gt;" style="text;html=1;strokeColor=none;fillColor=none;align=center;verticalAlign=middle;whiteSpace=wrap;rounded=0;fontSize=20;fontFamily=Architects Daughter;fontColor=#000000;" vertex="1" parent="1">
          <mxGeometry x="670" y="1573.75" width="345" height="72.5" as="geometry" />
        </mxCell>
        <mxCell id="VWBzi6tTDOa6CH9NLCmq-1178" style="edgeStyle=orthogonalEdgeStyle;shape=connector;rounded=0;orthogonalLoop=1;jettySize=auto;html=1;exitX=1;exitY=0.5;exitDx=0;exitDy=0;exitPerimeter=0;entryX=0.5;entryY=0;entryDx=0;entryDy=0;labelBackgroundColor=default;strokeColor=#375BD2;strokeWidth=2;fontFamily=Architects Daughter;fontSize=20;fontColor=#ffffff;endArrow=classic;" edge="1" parent="1" source="VWBzi6tTDOa6CH9NLCmq-1175" target="VWBzi6tTDOa6CH9NLCmq-1177">
          <mxGeometry relative="1" as="geometry" />
        </mxCell>
        <mxCell id="VWBzi6tTDOa6CH9NLCmq-1175" value="" style="shape=singleArrow;whiteSpace=wrap;html=1;arrowWidth=0.4;arrowSize=0.4;rounded=1;fontFamily=Architects Daughter;fontSize=20;fontColor=#ffffff;fillColor=#375BD2;gradientColor=#1A1A1A;strokeColor=#3A5431;glass=0;labelBackgroundColor=none;strokeWidth=2;" vertex="1" parent="1">
          <mxGeometry x="1227.5" y="1580" width="80" height="60" as="geometry" />
        </mxCell>
        <mxCell id="VWBzi6tTDOa6CH9NLCmq-1177" value="&lt;div style=&quot;&quot;&gt;&lt;font face=&quot;Helvetica&quot; style=&quot;font-size: 25px;&quot;&gt;&lt;font color=&quot;#375bd2&quot;&gt;Updates&lt;/font&gt; the staker&#39;s rewards&lt;/font&gt;&lt;br&gt;&lt;/div&gt;" style="text;html=1;strokeColor=none;fillColor=none;align=center;verticalAlign=middle;whiteSpace=wrap;rounded=0;fontSize=20;fontFamily=Architects Daughter;fontColor=#000000;" vertex="1" parent="1">
          <mxGeometry x="1350" y="1480" width="362.5" height="50" as="geometry" />
        </mxCell>
        <mxCell id="VWBzi6tTDOa6CH9NLCmq-1179" value="&lt;div style=&quot;&quot;&gt;&lt;font face=&quot;Helvetica&quot; style=&quot;font-size: 25px;&quot;&gt;Applies multipliers&lt;/font&gt;&lt;br&gt;&lt;/div&gt;" style="text;html=1;strokeColor=none;fillColor=none;align=center;verticalAlign=middle;whiteSpace=wrap;rounded=0;fontSize=20;fontFamily=Architects Daughter;fontColor=#000000;" vertex="1" parent="1">
          <mxGeometry x="1370" y="1526.25" width="212.5" height="43.75" as="geometry" />
        </mxCell>
        <mxCell id="VWBzi6tTDOa6CH9NLCmq-1180" value="&lt;div style=&quot;&quot;&gt;&lt;font style=&quot;font-size: 25px;&quot; face=&quot;Helvetica&quot;&gt;&lt;font color=&quot;#375bd2&quot;&gt;Transfers&lt;/font&gt; the &lt;font color=&quot;#375bd2&quot;&gt;rewards&lt;/font&gt; to the staker&lt;/font&gt;&lt;br&gt;&lt;/div&gt;" style="text;html=1;strokeColor=none;fillColor=none;align=center;verticalAlign=middle;whiteSpace=wrap;rounded=0;fontSize=20;fontFamily=Architects Daughter;fontColor=#000000;" vertex="1" parent="1">
          <mxGeometry x="1370" y="1573.13" width="390" height="43.75" as="geometry" />
        </mxCell>
        <mxCell id="VWBzi6tTDOa6CH9NLCmq-1181" value="" style="shape=waypoint;sketch=0;fillStyle=solid;size=6;pointerEvents=1;points=[];fillColor=none;resizable=0;rotatable=0;perimeter=centerPerimeter;snapToPoint=1;rounded=0;fontFamily=Architects Daughter;fontSize=25;fontColor=#000000;html=1;spacing=8;strokeWidth=4;strokeColor=#375BD2;" vertex="1" parent="1">
          <mxGeometry x="1340" y="1495" width="20" height="20" as="geometry" />
        </mxCell>
        <mxCell id="VWBzi6tTDOa6CH9NLCmq-1182" value="" style="shape=waypoint;sketch=0;fillStyle=solid;size=6;pointerEvents=1;points=[];fillColor=none;resizable=0;rotatable=0;perimeter=centerPerimeter;snapToPoint=1;rounded=0;fontFamily=Architects Daughter;fontSize=25;fontColor=#000000;html=1;spacing=8;strokeWidth=4;strokeColor=#375BD2;" vertex="1" parent="1">
          <mxGeometry x="1340" y="1538.75" width="20" height="20" as="geometry" />
        </mxCell>
        <mxCell id="VWBzi6tTDOa6CH9NLCmq-1183" value="" style="shape=waypoint;sketch=0;fillStyle=solid;size=6;pointerEvents=1;points=[];fillColor=none;resizable=0;rotatable=0;perimeter=centerPerimeter;snapToPoint=1;rounded=0;fontFamily=Architects Daughter;fontSize=25;fontColor=#000000;html=1;spacing=8;strokeWidth=4;strokeColor=#375BD2;" vertex="1" parent="1">
          <mxGeometry x="1340" y="1585" width="20" height="20" as="geometry" />
        </mxCell>
        <mxCell id="VWBzi6tTDOa6CH9NLCmq-1185" value="" style="shape=curlyBracket;whiteSpace=wrap;html=1;rounded=1;flipH=1;labelPosition=right;verticalLabelPosition=middle;align=left;verticalAlign=middle;fontFamily=Architects Daughter;fontSize=20;fontColor=#ffffff;fillColor=none;gradientColor=none;strokeWidth=2;" vertex="1" parent="1">
          <mxGeometry x="1820" y="1470" width="20" height="180" as="geometry" />
        </mxCell>
        <mxCell id="VWBzi6tTDOa6CH9NLCmq-1186" value="&lt;div style=&quot;font-size: 25px;&quot;&gt;&lt;font style=&quot;font-size: 25px;&quot; face=&quot;Helvetica&quot;&gt;It &lt;font color=&quot;#375bd2&quot;&gt;emits&lt;/font&gt; an event to record the reward claimed&lt;/font&gt;&lt;br&gt;&lt;/div&gt;" style="text;html=1;strokeColor=none;fillColor=none;align=center;verticalAlign=middle;whiteSpace=wrap;rounded=0;fontSize=20;fontFamily=Architects Daughter;fontColor=#000000;" vertex="1" parent="1">
          <mxGeometry x="1860" y="1527.5" width="525" height="65" as="geometry" />
        </mxCell>
        <mxCell id="VWBzi6tTDOa6CH9NLCmq-1187" value="&lt;div style=&quot;&quot;&gt;&lt;font style=&quot;font-size: 70px;&quot; face=&quot;Helvetica&quot; color=&quot;#375bd2&quot;&gt;í ½í³¢&lt;/font&gt;&lt;br&gt;&lt;/div&gt;" style="text;html=1;strokeColor=none;fillColor=none;align=center;verticalAlign=middle;whiteSpace=wrap;rounded=0;fontSize=20;fontFamily=Architects Daughter;fontColor=#000000;" vertex="1" parent="1">
          <mxGeometry x="2035" y="1440" width="100" height="103.75" as="geometry" />
        </mxCell>
        <mxCell id="VWBzi6tTDOa6CH9NLCmq-1188" value="" style="html=1;shadow=0;dashed=0;align=center;verticalAlign=middle;shape=mxgraph.arrows2.arrow;dy=0.6;dx=40;direction=south;notch=0;fontFamily=Architects Daughter;fontSize=20;fontColor=#ffffff;fillColor=#375BD2;strokeColor=#3A5431;gradientColor=#1A1A1A;rounded=1;glass=0;labelBackgroundColor=none;strokeWidth=2;" vertex="1" parent="1">
          <mxGeometry x="235" y="1684" width="70" height="138.75" as="geometry" />
        </mxCell>
        <mxCell id="VWBzi6tTDOa6CH9NLCmq-1190" style="edgeStyle=orthogonalEdgeStyle;shape=connector;rounded=0;orthogonalLoop=1;jettySize=auto;html=1;exitX=1;exitY=0.5;exitDx=0;exitDy=0;labelBackgroundColor=default;strokeColor=#375BD2;strokeWidth=2;fontFamily=Architects Daughter;fontSize=20;fontColor=#ffffff;endArrow=classic;" edge="1" parent="1" source="VWBzi6tTDOa6CH9NLCmq-1189">
          <mxGeometry relative="1" as="geometry">
            <mxPoint x="680" y="1890" as="targetPoint" />
          </mxGeometry>
        </mxCell>
        <mxCell id="VWBzi6tTDOa6CH9NLCmq-1189" value="&lt;div style=&quot;line-height: 87%;&quot;&gt;&lt;h1 style=&quot;background-image: none; background-position: initial; background-size: initial; background-repeat: initial; background-attachment: initial; background-origin: initial; background-clip: initial; border: none; box-sizing: border-box; margin: 0.25em 0px 0.25rem; padding: 0px; vertical-align: baseline; line-height: 24.96px;&quot; class=&quot;type__headline__xs&quot;&gt;&lt;font color=&quot;#ffff66&quot; face=&quot;Helvetica&quot; style=&quot;font-size: 30px;&quot;&gt;Transferring Rewards&lt;/font&gt;&lt;br&gt;&lt;/h1&gt;&lt;/div&gt;" style="text;html=1;strokeColor=#3A5431;fillColor=#375BD2;align=center;verticalAlign=middle;whiteSpace=wrap;rounded=1;fontSize=20;fontFamily=Architects Daughter;glass=0;labelBackgroundColor=none;fontColor=#ffffff;gradientColor=#1A1A1A;strokeWidth=2;" vertex="1" parent="1">
          <mxGeometry x="75" y="1850" width="380" height="80" as="geometry" />
        </mxCell>
        <mxCell id="VWBzi6tTDOa6CH9NLCmq-1191" value="&lt;font color=&quot;#375bd2&quot; style=&quot;font-size: 22px;&quot; face=&quot;Helvetica&quot;&gt;&lt;u&gt;claimReward&lt;/u&gt;&lt;/font&gt;" style="text;html=1;strokeColor=none;fillColor=none;align=center;verticalAlign=middle;whiteSpace=wrap;rounded=0;fontSize=20;fontFamily=Architects Daughter;fontColor=#000000;" vertex="1" parent="1">
          <mxGeometry x="1040" y="1570" width="150" height="30" as="geometry" />
        </mxCell>
        <mxCell id="VWBzi6tTDOa6CH9NLCmq-1192" value="&lt;font color=&quot;#375bd2&quot; style=&quot;font-size: 22px;&quot; face=&quot;Helvetica&quot;&gt;&lt;u&gt;_transferRewards&lt;/u&gt;&lt;/font&gt;" style="text;html=1;strokeColor=none;fillColor=none;align=center;verticalAlign=middle;whiteSpace=wrap;rounded=0;fontSize=20;fontFamily=Architects Daughter;fontColor=#000000;" vertex="1" parent="1">
          <mxGeometry x="470" y="1840" width="190" height="40" as="geometry" />
        </mxCell>
        <mxCell id="VWBzi6tTDOa6CH9NLCmq-1195" style="edgeStyle=orthogonalEdgeStyle;shape=connector;rounded=0;orthogonalLoop=1;jettySize=auto;html=1;exitX=1;exitY=0.5;exitDx=0;exitDy=0;labelBackgroundColor=default;strokeColor=#375BD2;strokeWidth=2;fontFamily=Architects Daughter;fontSize=20;fontColor=#000000;endArrow=classic;" edge="1" parent="1" source="VWBzi6tTDOa6CH9NLCmq-1193">
          <mxGeometry relative="1" as="geometry">
            <mxPoint x="1250" y="1890.4615384615386" as="targetPoint" />
          </mxGeometry>
        </mxCell>
        <mxCell id="VWBzi6tTDOa6CH9NLCmq-1193" value="&lt;div style=&quot;&quot;&gt;&lt;font style=&quot;font-size: 25px;&quot; face=&quot;Helvetica&quot;&gt;This is a &lt;font color=&quot;#375bd2&quot;&gt;private&lt;/font&gt; function used to &lt;font color=&quot;#375bd2&quot;&gt;transfer rewards&lt;/font&gt; to a staker&lt;/font&gt;&lt;br&gt;&lt;/div&gt;" style="text;html=1;strokeColor=none;fillColor=none;align=center;verticalAlign=middle;whiteSpace=wrap;rounded=0;fontSize=20;fontFamily=Architects Daughter;fontColor=#000000;" vertex="1" parent="1">
          <mxGeometry x="690" y="1853.75" width="345" height="72.5" as="geometry" />
        </mxCell>
        <mxCell id="VWBzi6tTDOa6CH9NLCmq-1194" value="&lt;div style=&quot;&quot;&gt;&lt;font style=&quot;font-size: 70px;&quot; face=&quot;Helvetica&quot; color=&quot;#375bd2&quot;&gt;í ½í´&lt;/font&gt;&lt;br&gt;&lt;/div&gt;" style="text;html=1;strokeColor=none;fillColor=none;align=center;verticalAlign=middle;whiteSpace=wrap;rounded=0;fontSize=20;fontFamily=Architects Daughter;fontColor=#000000;" vertex="1" parent="1">
          <mxGeometry x="792.5" y="1746.25" width="100" height="103.75" as="geometry" />
        </mxCell>
        <mxCell id="VWBzi6tTDOa6CH9NLCmq-1196" value="&lt;font style=&quot;font-size: 20px;&quot; face=&quot;Helvetica&quot;&gt;Checks&lt;/font&gt;" style="text;html=1;strokeColor=none;fillColor=none;align=center;verticalAlign=middle;whiteSpace=wrap;rounded=0;fontSize=20;fontFamily=Architects Daughter;fontColor=#000000;" vertex="1" parent="1">
          <mxGeometry x="1062.5" y="1853.75" width="150" height="30" as="geometry" />
        </mxCell>
        <mxCell id="VWBzi6tTDOa6CH9NLCmq-1199" value="" style="edgeStyle=orthogonalEdgeStyle;shape=connector;rounded=0;orthogonalLoop=1;jettySize=auto;html=1;labelBackgroundColor=default;strokeColor=#375BD2;strokeWidth=2;fontFamily=Architects Daughter;fontSize=20;fontColor=#000000;endArrow=classic;" edge="1" parent="1" source="VWBzi6tTDOa6CH9NLCmq-1197" target="VWBzi6tTDOa6CH9NLCmq-1198">
          <mxGeometry relative="1" as="geometry" />
        </mxCell>
        <mxCell id="VWBzi6tTDOa6CH9NLCmq-1197" value="&lt;div style=&quot;&quot;&gt;&lt;font style=&quot;font-size: 25px;&quot; face=&quot;Helvetica&quot;&gt;If there are rewards to claim and then transfers them using &lt;/font&gt;&lt;br&gt;&lt;/div&gt;" style="text;html=1;strokeColor=none;fillColor=none;align=center;verticalAlign=middle;whiteSpace=wrap;rounded=0;fontSize=20;fontFamily=Architects Daughter;fontColor=#000000;" vertex="1" parent="1">
          <mxGeometry x="1270" y="1854.37" width="400" height="71.88" as="geometry" />
        </mxCell>
        <mxCell id="VWBzi6tTDOa6CH9NLCmq-1198" value="" style="shape=singleArrow;whiteSpace=wrap;html=1;arrowWidth=0.4;arrowSize=0.4;rounded=1;fontFamily=Architects Daughter;fontSize=20;fontColor=#ffffff;fillColor=#375BD2;gradientColor=#1A1A1A;strokeColor=#3A5431;glass=0;labelBackgroundColor=none;strokeWidth=2;" vertex="1" parent="1">
          <mxGeometry x="1910" y="1860.31" width="80" height="60" as="geometry" />
        </mxCell>
        <mxCell id="VWBzi6tTDOa6CH9NLCmq-1200" value="&lt;font color=&quot;#ffff66&quot; style=&quot;font-size: 25px;&quot; face=&quot;Helvetica&quot;&gt;i_LINK.transfer&lt;/font&gt;" style="text;html=1;strokeColor=#3A5431;fillColor=#375BD2;align=center;verticalAlign=middle;whiteSpace=wrap;rounded=1;fontSize=20;fontFamily=Architects Daughter;fontColor=#ffffff;gradientColor=#1A1A1A;glass=0;labelBackgroundColor=none;strokeWidth=2;" vertex="1" parent="1">
          <mxGeometry x="2010" y="1853.75" width="260" height="57.5" as="geometry" />
        </mxCell>
        <mxCell id="VWBzi6tTDOa6CH9NLCmq-1201" value="&lt;img alt=&quot;ImÃ¡genes de Transferencia - Descarga gratuita en Freepik&quot; src=&quot;data:image/jpeg;base64,/9j/4AAQSkZJRgABAQAAAQABAAD/2wCEAAkGBxAQEBUPEA8QDxUWDg8WFRUQFRUQFRcWFhUXFhYWFRUYHSgiGB8lGxcVIjEhJikrLi4uFx8zODMtOCgtLi0BCgoKDg0OGxAQGy0lICUtLS0tLS0tLS0tLy0tLy8tLS0tLS0tLS0tLS0tLS0tLS0tLS0tLS0tLS0tLS0tLS0tLf/AABEIAMsA+QMBIgACEQEDEQH/xAAbAAEAAgMBAQAAAAAAAAAAAAAABQYCAwQBB//EAEsQAAIBAwIDBAUGCAwFBQAAAAECAwAEERIhBTFBBhNRYSIycYGRFEJSU6GxIyQ0cpLB0fAHFTNidHWCk7Kz0+IWVHPh8URjZJSi/8QAGgEBAAIDAQAAAAAAAAAAAAAAAAEEAgMFBv/EADIRAAEDAgQDBwQCAgMAAAAAAAEAAhEDMQQSIUFRYXEFEyKBkaHwMrHB0eHxFCNCUqL/2gAMAwEAAhEDEQA/ALtSlKsrjJSlKIlKUoiUpSiJSlM0RKUzTNESlKURKUpREpSlESlKURKUpREpSlESlKURKUpREpSlESlKURKUpREpSlESlKURKUpRF6rEHIOD5Vu+Vy/WP8TWilFIcRZb/lcv1j/pGhu5PrH/AEjWilRCnM7is45nX1WZfYSKxdiTkkk+J3ryvalRJsvKVx3/ABDuyEWN5pG5JHjltlnY7INxuT7Aa5mlveZFnGT8wtJIf0sL9xqtXxmHoECq8Ana59BJW+lha1USxsjj/alayAzsKh04w0ZC3UQhBOBKjd5Dk8gzEAoT/OGPOpattOqyq0PYQQdwZC11KbqbsrxBW75K/wBE1gsZJ0gb+FYYpWaw0W42z/RNa442b1QTWOKUTT5/SydCpwRisaUqVCUpSiJSlKIlKUoiUpSiJSlKIlKUoiUpWcaFjiiLClbZotJ8v3xWqikiEpSlFCUpSiJWi/u1hieZgSEjZiF3JwM4A8Ty99dTRMAGKkA8iRgH2VxdoUj+QzNl2cRFtKjbCEOfbkKeVBdZBsmDot8HDYltSgmmWWSZnllCp3hY6cjc4UYwq4zgDblmoCZYoJM21mZNDkTTBVeT+TJwJHbXI26k+ttkc9qkobj8bYaspLaxPF4Eoz95j+y8R/8AFRvE5UR5PSuraQyAqIgZVm9AYZVKspbYggYPo5O2DXh3YipiakObMtBMSJJgEuymTl1A0IbExAXq8jabfCbGOnADbgefGYXbHEsmZO872KSFfQYBkII2Zds7qdxyO3Lq4C5TvLVmLdyyaCxyxhcEx5PXBDpn+YK572eRLZRtHM6xRgR4IEj4B0jwX0j7FNdnBY43vblmfQFhs4wQNQ1gzSMGx4LJGf7VXewn1G1yJ8JDv/MAHQcy2d9eCq9psa6lO4IjznTX1UjSs2XcgHVuQCOvsrCvVrziUpSiJSlKIlKzij1GksZU4qFMaSsKUpUqEpSlESlKURKUpRFshi1HAIBxsD1Phnoa6GhLKg9XEbaidgo7x+f7K8hbVt3cYAGSTqwB4n0q3lg3I6i/pKHzg4JXGx57bZ8cc9zgStzWiFHH9+leg43FZSyZ20Km/TUD7Dk1rrNalm7knJrClKKEpSlEWcMLOdKqWPgK22s6pk92HbbSW5D+z1NbpbpVXu4sgEekx2Zj4eQ/f28NRdZmGnQ6/LLbPcPIcuxb7h7B0rURSlSsSZuq3cW6wKIJ+8ECNqt7iL17cjOEcgHSFBIDEFSp0t59JM7qriWyuArEpL6SEZBGcKWBOCRkEc+Qqbrhn4JaO2t7W3dvFokJ+OK5GJ7Ip1nZmmJMkQHDW8agidxME6kSunR7TcxsPE85g+d55bqEjmzJlHF9cgFVCDRBDnmWIJCeeSXPIVPcLse4j0ai7FmZ3Oxd23ZsdPADoAB0rpiiVAFRVUDkFAUD2AVlVzC4OnhwcupO+lhYADQAcBvqSSquJxTq8A6Abfkm5WUblSGBwQcg11T3SyKdaYfbDLsD+cK46VahVw4gQlK67S5AHdyDUhOfNT9IVpuYdDFQwYbYI3yDypKZdJC1UpSpWKyRiDkV4zZ3NeV7RTKV1xRadRB1KY3ww67bjyI8K545AvzVb87P6iK7lOBg/gyPSKpnYKM+lknc/Z1rErZTG64ZYtOMnc816jwz5+Va67Z3A37tGByQ2H38c+lsfEVxVIWDgAUpSlSsUpSlEXtZySZCjHqqR/8Aon9da6yRSSABkk4HtqFIWNK2ywFRnKsM4ypzg+BqKv8AivdyCGOJ55CmoqhVQqZIDOzEAZIIA5nB8KyaC6yEEXUhWq6uo4l1yyLGo+c5Cj2b9fKoyTi86gs1kwA6tPAo+LMBXVLwe4WOK5eCKa5Yt68iiO3UnIwSd8DAJQEsfActGKqGgzMWyeH5J2AuTw2K34bD986Jgcb/AGWg9oIPoXJH0hbXBX3Hu9x51Kw3ltLGpglSZs5co2dPghXofbvUQsrJMsU1yJJHidgiIkUY0lASObZ9IYBY538K0XVo8kjOq/J5U091OpDBwfmSLsSuRgqehBBzy4tPt0Z/9rQG3kE24wWtJHEjbWF039lANPdnW0GOtxoD1U/XlQNp2gmkXIsnyGZWHexjDKdLDc55g112PGNcncyQyQOVLKHKsrgY1aWUkZGRscGvRZDErikawpOlKVioSlKURKUpREpSuHiPExEyxLG80jAsETSMKCAWdmICjJx59KkAkwEXfWcLRDUZnWJdBOtyFRSOrE8hUIeKXA3Ni48zNCB7yW2renDJpoPlk0CSv3gNvB3sRRARs7Pq0M3NsjJA5AnnqxDjSpl0EnYCJP65k6Bb8NS718SI33Wtu0Nv83v5B9KKCeVD7HVCG9xrpseJQz5EUgYj1lOVdfzkbDD3iuOeWSN4/lFyuZJSqxwoqJnQzYLNljgL6wIycbb4rXf2vfSaWjKaU1R3EbAOjg4IxzHMHG6kAg+fCb27Dv8AYwZSJkE9D9TW5oN8t9pXTd2S0t8DjPOPxMeanK8qAteOXHpRNamR42CuyOiKxwCGVWOQGBB8tx0rrtOM6pFhlhkt2fOgsUdXIGSoZScNgE4PQHFeiALmhzdQdfJcctIcWm6lK2Qyac9cow+I50ihLZOQoGMljgb8h99eSIVJU8x76xUajVYUpSpUJSlKIlKUoiVnG5UhhzBB+FFQnkCfYM17LGQScHTk4J6jp9lQpg3WUkwI0qgQagTuTkjIHPkNz8agLcfjtx/07X7pKmah7b8tuPzLP7nrdR+pYVDLD83Cme1vCI4oIzqY/jtkGyRjBmXpj6Wn41zWl40jyxsMd1MFX81oo5P8TN8KmrgHiMV7aNiLu7owxuu5DLFDNHIQeqyOD/ZFVJWm7wyrGBcRosd1bFgpbTkq0bHbqxVjsytgkY28t27SqVQHE6Rl5A5muE8A6ImwdElemwOSl4WjedOhB9JUff26rBMzxxTRGS5kaeJ8TqQ7EnDL60eMAhvmDAHKpi+uu7VTjVqmhQAbeu4XPuBJ91RV4bZpRIYrxfXLwdxcFHkJQq7Ko7tiMNvuDqznatk8zFluJ0ZFViIIBhpZJWBUEgEjVgkKoJwGJJ8ORUYahbIJuY3JMQAJMmRdoa2IMCIVsHLMR+gNzw6XUv2a4cksl3ksMXUeNJGATbxFtseYPvqNvl03dqPC5mHwglFW7s1w5reACTBld3ll07jW/wA0HqFUKoPgtVTif5bb/wBLn/yJa9zgg5lIUyZytA9BC83jWt7wPAuXFTlKUrJVEpSlESlKURKhf/Xyf0G3/wA2apqoU/l8v9Atv8yattH61i/6Cp3tXwhE4bcSam1C0kJIIAxp9LbHQZ61xx3Z79rbACLbwSJ7WaVGx7lT41ZLacXLXVpKimNBFEf5ySwKzBv0iKpMltNHIsRKi7tlZV7zZbm3OBqBA5NpQkgeg68sc/N9uMfUphxOgDgeAzZSCeDZbBO0r0WAaymS1ovHnE++/ktdzaEyTssNvdqzqsgkbTImIk/BYKkFcHUBld5D45rKK8SOyWdO8kVbRXXvD6bAICoY/SOwz4mubickEjK0sV5A+od6ixTsJU0sAjNDlHGSDzPq45GvbmXWA8qm2toyjYkAR5CuCi6B6qg49H1iQBgDnwjTzNYHzcTzgRA1IcTYZQNDqP8ArfzQTHzeTwHGT0UrwiySW+lBLD8StydJA37yULnbw1fCuLjEWieBeem/QZ9iyCrH2TsHRZLmZSkk7KdB9ZIkGIkbz3ZiOhcjpUB2h/KYv6yX/DJXtuzWPpUG0n3a0eR3A6WXnu0A01O8Au72iFPRSgAqy6gSDjOk5Gdwfeaxlk1HVgDlsOQAGAPgBWNZJGTyBPs3raqckiFhSts0ZBOxxk4J6jp9laqlQQlKUooSlKURK9kbJLcskn4nNeVlGuTioUrGoe1/Lbj8y0+56n7iMDGD0Hv2Hu8+fWoC2/Lbj8y0+6St1A+JY1BDSPl1dbeFMXYs5VEzXDly4MipP3MQGV220CM4B61WeLdk+J3RV5L2zWRdklit3jlUZyVDh91PVTkeVWbgtjJFJds4AEt8ZUwc5TuIUyfA6kbapaqkxpoeuq7JEr57L2V4qFAPE4W8/k4z+z7K08O7J8RgkMwvbWSQgjvJoGkdQeaplsIPJQM9a+g3fIe2uatVOnTpEmmxrZvDWj7BZOLnfUSfM/tcHBobpVYXc0MzavRMMZiAXHIgk5Oap/Ex+O2/9Ln/AMiWuni01ze8RlsoruS0it4Yi5h2d3kAYelzAwfsPjtiv8H1md5ZLmdvpSS5Pt2FWBWZSJznUiwH9D3Wl+FfXALdpv6KVpVf7FTOYpYXYv3F5PCGY5JVcYyfefdirBWwiCuYRBhKUpUKEpSlESoXH4/L/QLb/MmrztnfNBYzSISGwigjYjW6qSD0OCayh/g+tNCnXcrJoXVIkuCWxudwQN6kVW0Yc7fT7c+a30sK/EAhqu1tDHquTbyATsI+81guqSdwoiJTbI06TgHfxFV3ivZnil0gSe8sW0nKMtu6OjYxqjdXBU+yoq1juOF3tuReTXMN1cpBKtxh31EBIm18yRsPYMez6bWjNEOaZnl5b/ZdEsNnL57/AMKcWRMHicD+bQZPx6++ua27H8QSUTNe20zqcoZoGcIfFE1BVP8AOxnzr6Ldcvf+o1y1pp0qVMlzGNBO4a0H2A+XlZOLnCHOJ8z+1HcGhvE1fK54ZsldHcxmLHPVqyxznb4Gqp2h/KYv6xX/AAyVfKofaL8pi/rFf8MlXKBknoqOLs3qpmva2WyAnfy29492/L31jKgBwDn9+dQqkaSvJGySfEk/E1jSlSoSlKURKUpREpSvUGSBnG438POiIT+qoa1/Lbj8y0+56sN1CFUnSyYbHpn1hgkty6YHlvVT4JxGO4urmSI6lHyZQ3Q6Q4JHlW2hqZUVRlafm6+g8F4g80l2r6cQ3xiTSMej3EMnpeJzI2/sqVqOj4rahpR3kURS40SF8RZk7tG5tjV6LJv7ulSCsCAQQQRkEbgjxBqkbrtLTd8h7a5q6bvkPbXNUIqH2kM/D72S/iSCVJ4ohJHJOlu4aMBQylzuMAcgTvy61CXP8KTYxHaJGeWqSUuAfHSqDPxqW4NwyC+vb64uolnKXhhQSekqpGMDC8t9vt8TVsg4dBGNKQQoPBUVR9gqatSi10PZmIA3I26/gLbSp1S2WugdJ3VW7HWqx2oZZVnMkjyu6ZwXY4PPB2wBuBuDsKm6rvY9Qr3sSeonEZwg6AZxpHkABViqy4yZXEqNyuI4JSlKhYJSlKIo/tDZpPayxSOI1MZJduSlfSDHyBANVbh/8JbwqIZYI7nQoXvI5Gj1YGAdLJnPw9lSv8ITkWEmCQC8QYjoNYP3gVcf4ug0CPuYmQKAAUVhgDA5itdZ9NjBnbmkneIiF0sBTe7MWOjyVQ4LeTcZu4GMcFvFa3CTsO+WaR2UBkCgAeWdtsnfO1fVa+V9teE29nCl9awpbzQ3MLAxDRnLYKkDbBz8MjkTX1SsCWuaCwQLR78TN1Yc1wcQ4yePzotN1y9/7a5a6rrl7/1GuWsVCVQ+0X5TF/WK/wCGSrtBeRSErHLHIRzCOrEe0A7VQe2N4sEscz50pfoWxucYcHA686s4cakclTxlm9VYQcbivazsNEsfeIDMDo092eatn0tgfAD30nQKxUHIBIzUKplMStdKUqVilKUoiUpSiLZDHqPlnf8AX9ma8kQqcH9/GkbkHI8R9+aje0XETb2ss+d1j9En6RwqZ95FACTCnSFWe1XELi7lPD7ON5QuO/Me2f8A2y52RfEnmduhBkLHsfeNvJcpYqURe6swSdKZ0gyMcg7nJyck1Yex3CRa2caEfhHAklJ3JkcZOT1xsPdUy7hQWYhQBkknAA8STyqrVxjgctPQDfc8+Hy67tDBMDIfrMSPmqrdr2EsFOqSN7lyN3mkZ2PmcED7K6/4LBoiu7dWJjg4jPHECc6V2OkH27+0mo+77RzXjm04SnfPye5O0EQPXXj0j4beYDcqt/ZTgKcPtlt0Yucl5JDzeRvWY/AAeQHPnWbe8DT3hOsQD942WNU0yQGC24+aqRu+Q9tcwrpvOQ9tcwrFYL5jw1b6a7u7jhrRQwPdOrd/6Wp1GGdAFJ3JJ5/O642lm4DxZgWPGMNg4VLeMLnoM/rxUX2c7QwcOiks7kTLMl1NhFjZmcMcqy9MHHU+FSbdrLpwXh4RdMoBOZSIDgdQpBz7s1Nbvc5ytEbEhuoHNy3Uu7yCSZ3AJ08guPsDp+RAgEMZZTJqOSZNWCSfYFqxVXuwS/iKPqDF5JnOOWS5GPsFWGrT/qK4JulK3fJpPq3/AEW/ZWsoQdOk58MHPwrFIPBY0rd8mk+rf9Fv2VrVCTgKSfAAk/CoSDwUR2qCGyn7xdS9yxxy9Ibpv+dprk4PwXijW8Ug4s0ZMMZEbQpIFBUFVLHntjfFd/au1Jsp1cFPwEhywIHojUPtArg4N2nu1tombhU8kYgjAkhYOWAUDUI8ZwcZrGrnyDLF944bSuhgA2XB0+U/hcPaq24kkSyXskVzbRTQvKsA7uRwHA3BXHXGx6+8fXopQ6h1OQyhgfEEZB+Br5T2i7X29zaS20cc4nkVUWF4mEhZmHhkdD1zX07hNuYreGJuaW8KH2qgU/dWvxZAHtgydo4a/wA7q1Uy55aZ85+bLbdcvf8AqNUv+E64ePhkpRimpokYj6LOAw94299XS65e/wDUaieL8NjuoHt5QSkiYOOY6hh5ggEeypY4NcCVrcJBCrMvYPhzKoEBjKgaXjd1flzzkgn3VGXvYy6Qhre9+UBX1CK9HeAnBGGccxgkYwOdb7Xi1xwvTa8RVnhBCw3kYLKV5Kso5g4x5+3GqrbbXCSoJI3WRWGQyEMp9hFaX1K9K7pHqD8391bayhVsIPoQvmXB7q54ZP3F1A0FvLJhdy8cbHqkmT6J6gnIG/Q5vqJk45V0cZ4Yl1A9vINnXGeeluasPMHBqs9i755LULIfwkLvC/U6ozgb+OMb+IqzTrd83NEEX/B/a5eNwwpEEWKsM0On9/365rVWTuTzrGslSMTolKUqVCUpSiJVc7djNtGh5SXluh9hJP6qsdV/tczO1lCWOk8TtyVJONjg7exjUtMGVspDM8BWfj3F4rOFp5c4BAVV9ZmPqqvmfsAJ6VSTBc8RmYcQLQxosLraxkquJNRXvDzLALv1/N5V9CmhV9nVXAYMNQDYYHIIz1B61XJfy+4/6Nn90lVuzy3PEa6mfS3z0XX7ULxRLgeHvefnqr7ZWcUCCKGNIkXksYCqPcPvrdVLW8lAwJXAHIBj+2uGXjl0ZWigWSYoELlpe6UFwSqjOSTgZ5Y3Fba1JtFpfUeA0XJMBUaWL712Wmwk8BCvd3yHtNc1UififEdswH/7P+2tC8bulkRJ1ki7xmVGWXvRqCltJ5EbK2/lVanXwtV4Yyswk2AcJKsPNZjS51JwAW3ilzHBxxZLh1iVuG6Y3kIVdXe7gMdgfW+PnUtfdqLGBS73UBwpOlHWRj5BVJNRHEIluFCzhZgDkCT0sHxGeXuqJPCbeO5tdEMa5nfO2c4hkYc/MA+6rb8G18FxOg25LTS7Ty+FrfVd3YW3dLJNa6SzSPjwDMSv2YPvqfpSsnGTKonVe15SlQoSlKURR/aK2aW0mjQZZoX0gcycZA9+Me+nZXtLZvawobiGJ0gjRkkcRsGRQpwGxkZHMVI1WbvhcE1/IJIUcfJLdtx84ySgnbrgDfyFQaLawyHqrOHxRw8mJXdc3kU/GuHi3kSZk+VmQxMH0oY9gxX+18fOvpdfO+GWMVrk26JASMEx+ixHgW5keVe3HHLnvTBCJZnWNXfMndKoYsF3OSSdLbAdKVaTKNOXOAa0XOm5OvmY9FsZjTWqQ1hJOw6fwr5dcvf+o1y1SZ+J8SxvAef/ADP+2uc8au0ZBOkkavIEDLL3gDEHSGGAQDjGRmqlPEYWo4MZWYSbAOGvRWHGsxpc6k4AK+TRK6lHVXVgQysAykeBB2Ir5hxHh0tjc6uGMYzJclPk7HMLHDEbE7erjn7CKsfyyX61/wBJv21HT/y9r/To/wDBJV8UjTa6ddLbKmMV3lRgbI1U52b44t7GW0NFJG2iaJ/WR/D2HBwfI+FQHZ5dN5xCMchdK/vcMT91XNIVUsyqqliCxAALEDALEc9tt6pvDWaPit+isQrraMQCQD+DGcjruxqlhiC5+UQI/IXS7QB7kSd1PUpSrS4iUpSiJSlaru6SJGlkYIqjJJ6ft9lEXtxOkamR2CKoJZm2AFUfi3Ep7hob8R93aQ3sGktsz+nlpPJfR0/2upziXsLCTiziedWislbMcR2acj574+b+48aud1YQyxdxJEjxkKNBA04XBUY6YwPhWqpXbSdlud+Q4dfsuphcESM7tDt/PJdVQHFuEzGf5TbNFqaNEkjm1BW0ElGV1BKsNTA7EEY5YqeAxsNqVz6VR1N2Zt11a1JlVpY8SFWPkfEfqrL+/l/0q4rvs7dyt3jQ2qtpALRXdzCxA3AYxxjUBk8/GrpXHxbicNrE087hEHvJPRVHUnwqz/m1naaHlCqDs7DM8QEc5KoXGeDTWsLTzMiov/z74kk8lUEbk15wjh1yypcLbRKSpK/Kbm4kdQdsgMraMj34Nd9jby8QmW9vEKwqc29sTyH1kniTsf8AtzteuP6pv0/9tXWksGoE8hbkuXiHsc6GExzLjP3Va7m/+qs/76T/AEq3WXDZ2mWa4MS92H0RwlnGphpLs7AZ9EkAAdTU9rj+qb9P/bQvH9U36f8AtrI1XEQqwYBaPdaaVsjZR6ylvY2n9RrBiM7AgeBOftrBF5SlKKEpSlESoziNjL3ouLdo9fd926S5CuoJZfSXJUglt8H1jUnXtS1xaZCKF/H/AKmz/vpf9KuDiVhdyfhGtrcuqEDuLqeGRhz0BlRc79CcZq0V7WZquN4UNAaZH5/ao/BOHy3sZkhAGlyrpJf3wdGHRlwcfv4GpS37K3aOH7q3dlzpMt3dTaSRjKh0IBxnes+L8Nmhm/jCx/lQPwsXzZ06gj6X78+dk7P8chvYu9iOCNnRvXRvosPuPWq1epUp+NgEdBI+e66+GZRrtyumd/EdfdQ38W8R+rsv76X/AEq3cP4HcNNHLctCqxMWSOEu+pypUM7sFwAGOABzxvtirNSqzsZVc0gka8lbZ2fh2ODg3UcylfM7m6uUv72/gjE0McsUUyj1tKRhWZPzShJ/O8Nx9Mrns7KKEMIo1j1yM7aRjLtzY+ZrXQrd0SYn+9fnmtteiKoDTZQ/D76O4jE0TB1br1B6gjoR4V01A8a4LLYyNe2CaozvcWw5EdXiHQjwHu22qT4VxKK5iE0LalPxB6qw6Gui1zXDM2325H5quBXoOouhy66UpUrQtF9exwRtLK4RFG5P2ADqT4VBcL4XLxR1urtTHaqcwQHnJ4SSeX39Nsls+EcGk4jIt5eqUgU5t7Y9R0klHXPh19nO8VXr4jJ4WX3PDkOfE+nFdfB4L/nUHQftFAAwAAAMADYAeVKUrnrrJUdxu4uo4w1rbpcvrGpHcRejg5Kk7Zzge+pGoLtT2hFmipGvfXEh0wxDck8tTD6I+34kZ0mlzwAJ5LCo4NaSTChLrtvdpItseGFJ3A0o0wYb532Xlseo5HelrwOWeUXXEZFmdf5OFP5GL2D5x5fDrgY39nuCmHVPO3fXMu8sh3xn5i+AGB8B0AAmq6rWMp/QIPET7STC8/XxT6mk6eX4ASlKUVVKUpREpSlESlKURKyBxv8Afv8AZWNKIt3fn+b+gn7K1h8HO3vAI+HKsaVCkuJW43B8F/QX9lYI+Oin2gN99YUpCElZu2d9h7AF+6oDinAWMvyuzl+TXA5n5kg8JF8/HB9hwCJylSDCkOIMi6rsfbW7SUWkvDg85HoiOUIr7E5XUp22PU8jVj4DeXkus3doloPR0ASiVjz1asbD5vxO1RXH+DJdxgEmORDqikXZkYbggjpkDbyB5gVu7KdoHlJs7sCO6jG/QSr9Ynjtzx7fECtiKTQzMxo5305jW32XYweKNR2V518tfZWWlKVQXTXtUzj3AZbWVr/h65J3nth6sg5lkHRuZwPaOoa5V7WylVdTdI/ta6tJtVuVyrPB+KxXcQlibI5Mp9ZW6qw8fvrvqH7Q9n5YpTf8PAEnOaD5ky8yQOj/AH8+edUV/wAaj/k5/j/2rqMIqiWem4+bHf2Xnq+GfSdBX0OlcXft4/YKd+3j9grm9w5do42mLg/PNdtK4u/bx+wU79vH7BTuHIMbTNgfnmuPtLx+OyiDEd5I50wxL6zv05b4yRk+YHMgVC8A4RIrteXbd5cycz0jXpGnhjlt7PEnt/i+J7prp11yrFhWZmYKMH1VJ0r15DqfE131eo0xTZpc3P46fdcrGYo1XZRYJSlK2KklKUoiUpSiJSlKIlKUoiUpSiJSlKIlKUoiUpSiJUR2h4L8pVXjbup4zqhlGxB54J8D9nxBl69qQYMhSDC5eynaL5SGgnXurqLaWM7Z/np4g7ezI6EE2CqtecOie4juCuJEkwrqzIcb7HSRqHPY55nxNTnft4/YKpV8OA6WWO365LtYbHBzPFddtK4u/bx+wU79vH7BWnuHKx/ls4FdtY1yd+3j9gr3vm8adw7koOLbzX//2Q==&quot;&gt;" style="text;html=1;strokeColor=none;fillColor=none;align=center;verticalAlign=middle;whiteSpace=wrap;rounded=0;" vertex="1" parent="1">
          <mxGeometry x="2030" y="1616.88" width="220" height="210" as="geometry" />
        </mxCell>
        <mxCell id="VWBzi6tTDOa6CH9NLCmq-1202" value="" style="html=1;shadow=0;dashed=0;align=center;verticalAlign=middle;shape=mxgraph.arrows2.arrow;dy=0.6;dx=40;direction=south;notch=0;fontFamily=Architects Daughter;fontSize=20;fontColor=#ffffff;fillColor=#375BD2;strokeColor=#3A5431;gradientColor=#1A1A1A;rounded=1;glass=0;labelBackgroundColor=none;strokeWidth=2;" vertex="1" parent="1">
          <mxGeometry x="235" y="1970" width="70" height="138.75" as="geometry" />
        </mxCell>
        <mxCell id="VWBzi6tTDOa6CH9NLCmq-1204" style="edgeStyle=orthogonalEdgeStyle;shape=connector;rounded=0;orthogonalLoop=1;jettySize=auto;html=1;exitX=1;exitY=0.5;exitDx=0;exitDy=0;labelBackgroundColor=default;strokeColor=#375BD2;strokeWidth=2;fontFamily=Architects Daughter;fontSize=20;fontColor=#ffffff;endArrow=classic;" edge="1" parent="1" source="VWBzi6tTDOa6CH9NLCmq-1203">
          <mxGeometry relative="1" as="geometry">
            <mxPoint x="679.9999999999998" y="2170.4615384615386" as="targetPoint" />
          </mxGeometry>
        </mxCell>
        <mxCell id="VWBzi6tTDOa6CH9NLCmq-1203" value="&lt;div style=&quot;line-height: 87%;&quot;&gt;&lt;h1 style=&quot;background-image: none; background-position: initial; background-size: initial; background-repeat: initial; background-attachment: initial; background-origin: initial; background-clip: initial; border: none; box-sizing: border-box; margin: 0.25em 0px 0.25rem; padding: 0px; vertical-align: baseline; line-height: 24.96px;&quot; class=&quot;type__headline__xs&quot;&gt;&lt;font color=&quot;#ffff66&quot; style=&quot;font-size: 30px;&quot; face=&quot;Helvetica&quot;&gt;Updating Rewards&lt;/font&gt;&lt;br&gt;&lt;/h1&gt;&lt;/div&gt;" style="text;html=1;strokeColor=#3A5431;fillColor=#375BD2;align=center;verticalAlign=middle;whiteSpace=wrap;rounded=1;fontSize=20;fontFamily=Architects Daughter;glass=0;labelBackgroundColor=none;fontColor=#ffffff;gradientColor=#1A1A1A;strokeWidth=2;" vertex="1" parent="1">
          <mxGeometry x="80" y="2130" width="380" height="80" as="geometry" />
        </mxCell>
        <mxCell id="VWBzi6tTDOa6CH9NLCmq-1206" value="&lt;img alt=&quot;Premium Vector | Settings icon. black gears. functions symbol&quot; src=&quot;https://encrypted-tbn0.gstatic.com/images?q=tbn:ANd9GcRNGa7qH_c1whkaHJBK0FSrolNGT9PV99bkGQ&amp;amp;usqp=CAU&quot;&gt;" style="text;html=1;strokeColor=none;fillColor=none;align=center;verticalAlign=middle;whiteSpace=wrap;rounded=0;" vertex="1" parent="1">
          <mxGeometry x="633" y="1930" width="220" height="210" as="geometry" />
        </mxCell>
        <mxCell id="VWBzi6tTDOa6CH9NLCmq-1207" value="&lt;font color=&quot;#375bd2&quot; style=&quot;font-size: 22px;&quot; face=&quot;Helvetica&quot;&gt;&lt;u&gt;updateReward&lt;/u&gt;&lt;/font&gt;" style="text;html=1;strokeColor=none;fillColor=none;align=center;verticalAlign=middle;whiteSpace=wrap;rounded=0;fontSize=20;fontFamily=Architects Daughter;fontColor=#000000;" vertex="1" parent="1">
          <mxGeometry x="480" y="2120" width="190" height="40" as="geometry" />
        </mxCell>
        <mxCell id="VWBzi6tTDOa6CH9NLCmq-1213" style="edgeStyle=orthogonalEdgeStyle;shape=connector;rounded=0;orthogonalLoop=1;jettySize=auto;html=1;exitX=0.5;exitY=0;exitDx=0;exitDy=0;entryX=0.5;entryY=0;entryDx=0;entryDy=0;labelBackgroundColor=default;strokeColor=#375BD2;strokeWidth=2;fontFamily=Architects Daughter;fontSize=20;fontColor=#ffffff;endArrow=classic;" edge="1" parent="1" source="VWBzi6tTDOa6CH9NLCmq-1208" target="VWBzi6tTDOa6CH9NLCmq-1210">
          <mxGeometry relative="1" as="geometry" />
        </mxCell>
        <mxCell id="VWBzi6tTDOa6CH9NLCmq-1215" style="edgeStyle=orthogonalEdgeStyle;shape=connector;rounded=0;orthogonalLoop=1;jettySize=auto;html=1;exitX=0.5;exitY=1;exitDx=0;exitDy=0;entryX=0.5;entryY=1;entryDx=0;entryDy=0;labelBackgroundColor=default;strokeColor=#375BD2;strokeWidth=2;fontFamily=Architects Daughter;fontSize=20;fontColor=#ffffff;endArrow=classic;" edge="1" parent="1" source="VWBzi6tTDOa6CH9NLCmq-1208" target="VWBzi6tTDOa6CH9NLCmq-1212">
          <mxGeometry relative="1" as="geometry" />
        </mxCell>
        <mxCell id="VWBzi6tTDOa6CH9NLCmq-1208" value="&lt;div style=&quot;&quot;&gt;&lt;font style=&quot;font-size: 25px;&quot; face=&quot;Helvetica&quot;&gt;This function &lt;font color=&quot;#375bd2&quot;&gt;updates&lt;/font&gt; a staker&#39;s rewards &lt;font color=&quot;#375bd2&quot;&gt;without claiming&lt;/font&gt; them&lt;/font&gt;&lt;br&gt;&lt;/div&gt;" style="text;html=1;strokeColor=none;fillColor=none;align=center;verticalAlign=middle;whiteSpace=wrap;rounded=0;fontSize=20;fontFamily=Architects Daughter;fontColor=#000000;" vertex="1" parent="1">
          <mxGeometry x="690" y="2121.88" width="375" height="96.25" as="geometry" />
        </mxCell>
        <mxCell id="VWBzi6tTDOa6CH9NLCmq-1210" value="&lt;div style=&quot;&quot;&gt;&lt;font style=&quot;font-size: 25px;&quot; face=&quot;Helvetica&quot;&gt;&lt;font color=&quot;#375bd2&quot;&gt;Calculates&lt;/font&gt; the staker&#39;s rewards&lt;/font&gt;&lt;br&gt;&lt;/div&gt;" style="text;html=1;strokeColor=none;fillColor=none;align=center;verticalAlign=middle;whiteSpace=wrap;rounded=0;fontSize=20;fontFamily=Architects Daughter;fontColor=#000000;" vertex="1" parent="1">
          <mxGeometry x="1098.75" y="2070" width="362.5" height="50" as="geometry" />
        </mxCell>
        <mxCell id="VWBzi6tTDOa6CH9NLCmq-1211" value="&lt;div style=&quot;&quot;&gt;&lt;font style=&quot;font-size: 25px;&quot; face=&quot;Helvetica&quot;&gt;&lt;font color=&quot;#375bd2&quot;&gt;Updates&lt;/font&gt; the data&lt;/font&gt;&lt;br&gt;&lt;/div&gt;" style="text;html=1;strokeColor=none;fillColor=none;align=center;verticalAlign=middle;whiteSpace=wrap;rounded=0;fontSize=20;fontFamily=Architects Daughter;fontColor=#000000;" vertex="1" parent="1">
          <mxGeometry x="1100" y="2120" width="201.25" height="50" as="geometry" />
        </mxCell>
        <mxCell id="VWBzi6tTDOa6CH9NLCmq-1216" style="edgeStyle=orthogonalEdgeStyle;shape=connector;rounded=0;orthogonalLoop=1;jettySize=auto;html=1;exitX=0.75;exitY=1;exitDx=0;exitDy=0;entryX=1;entryY=0.5;entryDx=0;entryDy=0;labelBackgroundColor=default;strokeColor=#375BD2;strokeWidth=2;fontFamily=Architects Daughter;fontSize=20;fontColor=#ffffff;endArrow=classic;" edge="1" parent="1" source="VWBzi6tTDOa6CH9NLCmq-1212" target="VWBzi6tTDOa6CH9NLCmq-1210">
          <mxGeometry relative="1" as="geometry" />
        </mxCell>
        <mxCell id="VWBzi6tTDOa6CH9NLCmq-1212" value="&lt;div style=&quot;&quot;&gt;&lt;font style=&quot;font-size: 25px;&quot;&gt;&lt;font color=&quot;#375bd2&quot;&gt;Emits&lt;/font&gt; an &lt;font color=&quot;#375bd2&quot;&gt;event&lt;/font&gt;&lt;/font&gt;&lt;br&gt;&lt;/div&gt;" style="text;html=1;strokeColor=none;fillColor=none;align=center;verticalAlign=middle;whiteSpace=wrap;rounded=0;fontSize=20;fontFamily=Helvetica;fontColor=#000000;" vertex="1" parent="1">
          <mxGeometry x="1091.25" y="2168.13" width="201.25" height="50" as="geometry" />
        </mxCell>
        <mxCell id="VWBzi6tTDOa6CH9NLCmq-1217" value="" style="html=1;shadow=0;dashed=0;align=center;verticalAlign=middle;shape=mxgraph.arrows2.arrow;dy=0.6;dx=40;direction=south;notch=0;fontFamily=Architects Daughter;fontSize=20;fontColor=#ffffff;fillColor=#375BD2;strokeColor=#3A5431;gradientColor=#1A1A1A;rounded=1;glass=0;labelBackgroundColor=none;strokeWidth=2;" vertex="1" parent="1">
          <mxGeometry x="235" y="2240" width="70" height="138.75" as="geometry" />
        </mxCell>
        <mxCell id="VWBzi6tTDOa6CH9NLCmq-1219" style="edgeStyle=orthogonalEdgeStyle;shape=connector;rounded=0;orthogonalLoop=1;jettySize=auto;html=1;exitX=1;exitY=0.5;exitDx=0;exitDy=0;labelBackgroundColor=default;strokeColor=#375BD2;strokeWidth=2;fontFamily=Architects Daughter;fontSize=20;fontColor=#ffffff;endArrow=classic;" edge="1" parent="1" source="VWBzi6tTDOa6CH9NLCmq-1218">
          <mxGeometry relative="1" as="geometry">
            <mxPoint x="659.9999999999998" y="2439.6923076923076" as="targetPoint" />
          </mxGeometry>
        </mxCell>
        <mxCell id="VWBzi6tTDOa6CH9NLCmq-1218" value="&lt;div style=&quot;line-height: 87%;&quot;&gt;&lt;h1 style=&quot;background-image: none; background-position: initial; background-size: initial; background-repeat: initial; background-attachment: initial; background-origin: initial; background-clip: initial; border: none; box-sizing: border-box; margin: 0.25em 0px 0.25rem; padding: 0px; vertical-align: baseline; line-height: 24.96px;&quot; class=&quot;type__headline__xs&quot;&gt;&lt;font color=&quot;#ffff66&quot; style=&quot;font-size: 30px;&quot; face=&quot;Helvetica&quot;&gt;Finalizing Rewards&lt;/font&gt;&lt;span style=&quot;color: rgb(209, 213, 219); font-family: SÃ¶hne, ui-sans-serif, system-ui, -apple-system, &amp;quot;Segoe UI&amp;quot;, Roboto, Ubuntu, Cantarell, &amp;quot;Noto Sans&amp;quot;, sans-serif, &amp;quot;Helvetica Neue&amp;quot;, Arial, &amp;quot;Apple Color Emoji&amp;quot;, &amp;quot;Segoe UI Emoji&amp;quot;, &amp;quot;Segoe UI Symbol&amp;quot;, &amp;quot;Noto Color Emoji&amp;quot;; font-size: 16px; font-weight: 400; text-align: left; background-color: rgb(68, 70, 84);&quot;&gt; &lt;/span&gt;&lt;br&gt;&lt;/h1&gt;&lt;/div&gt;" style="text;html=1;strokeColor=#3A5431;fillColor=#375BD2;align=center;verticalAlign=middle;whiteSpace=wrap;rounded=1;fontSize=20;fontFamily=Architects Daughter;glass=0;labelBackgroundColor=none;fontColor=#ffffff;gradientColor=#1A1A1A;strokeWidth=2;" vertex="1" parent="1">
          <mxGeometry x="80" y="2400" width="380" height="80" as="geometry" />
        </mxCell>
        <mxCell id="VWBzi6tTDOa6CH9NLCmq-1220" value="&lt;font color=&quot;#375bd2&quot; face=&quot;Helvetica&quot; style=&quot;font-size: 22px;&quot;&gt;&lt;u&gt;finalizeReward&lt;/u&gt;&lt;/font&gt;" style="text;html=1;strokeColor=none;fillColor=none;align=center;verticalAlign=middle;whiteSpace=wrap;rounded=0;fontSize=20;fontFamily=Architects Daughter;fontColor=#000000;" vertex="1" parent="1">
          <mxGeometry x="465" y="2400" width="190" height="40" as="geometry" />
        </mxCell>
        <mxCell id="VWBzi6tTDOa6CH9NLCmq-1222" style="edgeStyle=orthogonalEdgeStyle;shape=connector;rounded=0;orthogonalLoop=1;jettySize=auto;html=1;exitX=1;exitY=0.5;exitDx=0;exitDy=0;labelBackgroundColor=default;strokeColor=#375BD2;strokeWidth=2;fontFamily=Architects Daughter;fontSize=20;fontColor=#ffffff;endArrow=classic;" edge="1" parent="1" source="VWBzi6tTDOa6CH9NLCmq-1221">
          <mxGeometry relative="1" as="geometry">
            <mxPoint x="1320" y="2439.6923076923076" as="targetPoint" />
          </mxGeometry>
        </mxCell>
        <mxCell id="VWBzi6tTDOa6CH9NLCmq-1221" value="&lt;div style=&quot;&quot;&gt;&lt;font style=&quot;font-size: 25px;&quot;&gt;This function &lt;font color=&quot;#375bd2&quot;&gt;finalizes&lt;/font&gt; &lt;font color=&quot;#375bd2&quot;&gt;rewards&lt;/font&gt; for a staker&lt;/font&gt;&lt;br&gt;&lt;/div&gt;" style="text;html=1;strokeColor=none;fillColor=none;align=center;verticalAlign=middle;whiteSpace=wrap;rounded=0;fontSize=20;fontFamily=Helvetica;fontColor=#000000;" vertex="1" parent="1">
          <mxGeometry x="670" y="2415.93" width="472.5" height="48.13" as="geometry" />
        </mxCell>
        <mxCell id="VWBzi6tTDOa6CH9NLCmq-1223" value="Might involve" style="text;html=1;strokeColor=none;fillColor=none;align=center;verticalAlign=middle;whiteSpace=wrap;rounded=0;fontSize=20;fontFamily=Helvetica;fontColor=#000000;" vertex="1" parent="1">
          <mxGeometry x="1151.25" y="2400" width="150" height="40" as="geometry" />
        </mxCell>
        <mxCell id="VWBzi6tTDOa6CH9NLCmq-1225" style="edgeStyle=orthogonalEdgeStyle;shape=connector;rounded=0;orthogonalLoop=1;jettySize=auto;html=1;exitX=1;exitY=0.5;exitDx=0;exitDy=0;labelBackgroundColor=default;strokeColor=#375BD2;strokeWidth=2;fontFamily=Architects Daughter;fontSize=20;fontColor=#ffffff;endArrow=classic;" edge="1" parent="1" source="VWBzi6tTDOa6CH9NLCmq-1224">
          <mxGeometry relative="1" as="geometry">
            <mxPoint x="1770" y="2439.6923076923076" as="targetPoint" />
          </mxGeometry>
        </mxCell>
        <mxCell id="VWBzi6tTDOa6CH9NLCmq-1224" value="&lt;div style=&quot;&quot;&gt;&lt;font style=&quot;font-size: 25px;&quot;&gt;Forfeiting some rewards&lt;/font&gt;&lt;br&gt;&lt;/div&gt;" style="text;html=1;strokeColor=none;fillColor=none;align=center;verticalAlign=middle;whiteSpace=wrap;rounded=0;fontSize=20;fontFamily=Helvetica;fontColor=#000000;" vertex="1" parent="1">
          <mxGeometry x="1334.38" y="2415.93" width="271.25" height="48.13" as="geometry" />
        </mxCell>
        <mxCell id="VWBzi6tTDOa6CH9NLCmq-1236" style="edgeStyle=orthogonalEdgeStyle;shape=connector;rounded=0;orthogonalLoop=1;jettySize=auto;html=1;exitX=0.5;exitY=0;exitDx=0;exitDy=0;entryX=0.75;entryY=0;entryDx=0;entryDy=0;labelBackgroundColor=default;strokeColor=#375BD2;strokeWidth=2;fontFamily=Architects Daughter;fontSize=20;fontColor=#ffffff;endArrow=classic;" edge="1" parent="1" source="VWBzi6tTDOa6CH9NLCmq-1226" target="VWBzi6tTDOa6CH9NLCmq-1230">
          <mxGeometry relative="1" as="geometry" />
        </mxCell>
        <mxCell id="VWBzi6tTDOa6CH9NLCmq-1238" style="edgeStyle=orthogonalEdgeStyle;shape=connector;rounded=0;orthogonalLoop=1;jettySize=auto;html=1;exitX=0.5;exitY=1;exitDx=0;exitDy=0;entryX=0.5;entryY=1;entryDx=0;entryDy=0;labelBackgroundColor=default;strokeColor=#375BD2;strokeWidth=2;fontFamily=Architects Daughter;fontSize=20;fontColor=#ffffff;endArrow=classic;" edge="1" parent="1" source="VWBzi6tTDOa6CH9NLCmq-1226" target="VWBzi6tTDOa6CH9NLCmq-1232">
          <mxGeometry relative="1" as="geometry" />
        </mxCell>
        <mxCell id="VWBzi6tTDOa6CH9NLCmq-1226" value="Updates" style="text;html=1;strokeColor=none;fillColor=none;align=center;verticalAlign=middle;whiteSpace=wrap;rounded=0;fontSize=20;fontFamily=Helvetica;fontColor=#000000;" vertex="1" parent="1">
          <mxGeometry x="1605.63" y="2400" width="150" height="40" as="geometry" />
        </mxCell>
        <mxCell id="VWBzi6tTDOa6CH9NLCmq-1227" value="" style="shape=waypoint;sketch=0;fillStyle=solid;size=6;pointerEvents=1;points=[];fillColor=none;resizable=0;rotatable=0;perimeter=centerPerimeter;snapToPoint=1;rounded=0;fontFamily=Architects Daughter;fontSize=25;fontColor=#000000;html=1;spacing=8;strokeWidth=4;strokeColor=#375BD2;" vertex="1" parent="1">
          <mxGeometry x="1080" y="2085" width="20" height="20" as="geometry" />
        </mxCell>
        <mxCell id="VWBzi6tTDOa6CH9NLCmq-1228" value="" style="shape=waypoint;sketch=0;fillStyle=solid;size=6;pointerEvents=1;points=[];fillColor=none;resizable=0;rotatable=0;perimeter=centerPerimeter;snapToPoint=1;rounded=0;fontFamily=Architects Daughter;fontSize=25;fontColor=#000000;html=1;spacing=8;strokeWidth=4;strokeColor=#375BD2;" vertex="1" parent="1">
          <mxGeometry x="1080" y="2135" width="20" height="20" as="geometry" />
        </mxCell>
        <mxCell id="VWBzi6tTDOa6CH9NLCmq-1229" value="" style="shape=waypoint;sketch=0;fillStyle=solid;size=6;pointerEvents=1;points=[];fillColor=none;resizable=0;rotatable=0;perimeter=centerPerimeter;snapToPoint=1;rounded=0;fontFamily=Architects Daughter;fontSize=25;fontColor=#000000;html=1;spacing=8;strokeWidth=4;strokeColor=#375BD2;" vertex="1" parent="1">
          <mxGeometry x="1080" y="2183.13" width="20" height="20" as="geometry" />
        </mxCell>
        <mxCell id="VWBzi6tTDOa6CH9NLCmq-1230" value="&lt;div style=&quot;&quot;&gt;&lt;font face=&quot;Helvetica&quot; style=&quot;font-size: 25px;&quot;&gt;Reward calculations&lt;/font&gt;&lt;br&gt;&lt;/div&gt;" style="text;html=1;strokeColor=none;fillColor=none;align=center;verticalAlign=middle;whiteSpace=wrap;rounded=0;fontSize=20;fontFamily=Architects Daughter;fontColor=#000000;" vertex="1" parent="1">
          <mxGeometry x="1799.69" y="2350" width="241.25" height="50" as="geometry" />
        </mxCell>
        <mxCell id="VWBzi6tTDOa6CH9NLCmq-1231" value="&lt;div style=&quot;&quot;&gt;&lt;font style=&quot;font-size: 25px;&quot; face=&quot;Helvetica&quot;&gt;Handles forfeiting&lt;/font&gt;&lt;br&gt;&lt;/div&gt;" style="text;html=1;strokeColor=none;fillColor=none;align=center;verticalAlign=middle;whiteSpace=wrap;rounded=0;fontSize=20;fontFamily=Architects Daughter;fontColor=#000000;" vertex="1" parent="1">
          <mxGeometry x="1809.38" y="2414.06" width="200.62" height="50" as="geometry" />
        </mxCell>
        <mxCell id="VWBzi6tTDOa6CH9NLCmq-1232" value="&lt;div style=&quot;&quot;&gt;&lt;font face=&quot;Helvetica&quot; style=&quot;font-size: 25px;&quot;&gt;Transfers rewards to the staker if required&lt;/font&gt;&lt;br&gt;&lt;/div&gt;" style="text;html=1;strokeColor=none;fillColor=none;align=center;verticalAlign=middle;whiteSpace=wrap;rounded=0;fontSize=20;fontFamily=Architects Daughter;fontColor=#000000;" vertex="1" parent="1">
          <mxGeometry x="1809.38" y="2480" width="470.62" height="50" as="geometry" />
        </mxCell>
        <mxCell id="VWBzi6tTDOa6CH9NLCmq-1233" value="" style="shape=waypoint;sketch=0;fillStyle=solid;size=6;pointerEvents=1;points=[];fillColor=none;resizable=0;rotatable=0;perimeter=centerPerimeter;snapToPoint=1;rounded=0;fontFamily=Architects Daughter;fontSize=25;fontColor=#000000;html=1;spacing=8;strokeWidth=4;strokeColor=#375BD2;" vertex="1" parent="1">
          <mxGeometry x="1779.69" y="2365" width="20" height="20" as="geometry" />
        </mxCell>
        <mxCell id="VWBzi6tTDOa6CH9NLCmq-1234" value="" style="shape=waypoint;sketch=0;fillStyle=solid;size=6;pointerEvents=1;points=[];fillColor=none;resizable=0;rotatable=0;perimeter=centerPerimeter;snapToPoint=1;rounded=0;fontFamily=Architects Daughter;fontSize=25;fontColor=#000000;html=1;spacing=8;strokeWidth=4;strokeColor=#375BD2;" vertex="1" parent="1">
          <mxGeometry x="1780" y="2430" width="20" height="20" as="geometry" />
        </mxCell>
        <mxCell id="VWBzi6tTDOa6CH9NLCmq-1235" value="" style="shape=waypoint;sketch=0;fillStyle=solid;size=6;pointerEvents=1;points=[];fillColor=none;resizable=0;rotatable=0;perimeter=centerPerimeter;snapToPoint=1;rounded=0;fontFamily=Architects Daughter;fontSize=25;fontColor=#000000;html=1;spacing=8;strokeWidth=4;strokeColor=#375BD2;" vertex="1" parent="1">
          <mxGeometry x="1780" y="2495" width="20" height="20" as="geometry" />
        </mxCell>
        <mxCell id="VWBzi6tTDOa6CH9NLCmq-1239" value="&lt;img alt=&quot;IlustraciÃ³n de Transferencia De Dinero A TravÃ©s De Icono De Vector De Los  TelÃ©fonos MÃ³viles LÃ­nea Contorno Arte Smartphones Con Carteras De Dinero  Monedas Transferir Dinero Sin Hilos TelÃ©fonos MÃ³viles TransacciÃ³n RecibiÃ³&quot; src=&quot;https://encrypted-tbn0.gstatic.com/images?q=tbn:ANd9GcRbnd1wuYBRG2PM7bTe_jkAFd_4FJJHfm5SPu2-vnZ9av8brfj2YtvbrUcGxQaOymrhCM0&amp;amp;usqp=CAU&quot;&gt;" style="text;html=1;strokeColor=none;fillColor=none;align=center;verticalAlign=middle;whiteSpace=wrap;rounded=0;" vertex="1" parent="1">
          <mxGeometry x="1720" y="2108.75" width="220" height="210" as="geometry" />
        </mxCell>
        <mxCell id="VWBzi6tTDOa6CH9NLCmq-1240" value="" style="html=1;shadow=0;dashed=0;align=center;verticalAlign=middle;shape=mxgraph.arrows2.arrow;dy=0.6;dx=40;direction=south;notch=0;fontFamily=Architects Daughter;fontSize=20;fontColor=#ffffff;fillColor=#375BD2;strokeColor=#3A5431;gradientColor=#1A1A1A;rounded=1;glass=0;labelBackgroundColor=none;strokeWidth=2;" vertex="1" parent="1">
          <mxGeometry x="235" y="2515" width="70" height="138.75" as="geometry" />
        </mxCell>
        <mxCell id="VWBzi6tTDOa6CH9NLCmq-1242" style="edgeStyle=orthogonalEdgeStyle;shape=connector;rounded=0;orthogonalLoop=1;jettySize=auto;html=1;exitX=1;exitY=0.5;exitDx=0;exitDy=0;labelBackgroundColor=default;strokeColor=#375BD2;strokeWidth=2;fontFamily=Architects Daughter;fontSize=20;fontColor=#ffffff;endArrow=classic;" edge="1" parent="1" source="VWBzi6tTDOa6CH9NLCmq-1241">
          <mxGeometry relative="1" as="geometry">
            <mxPoint x="639.9999999999998" y="2719.6923076923076" as="targetPoint" />
          </mxGeometry>
        </mxCell>
        <mxCell id="VWBzi6tTDOa6CH9NLCmq-1241" value="&lt;div style=&quot;line-height: 87%;&quot;&gt;&lt;h1 style=&quot;background-image: none; background-position: initial; background-size: initial; background-repeat: initial; background-attachment: initial; background-origin: initial; background-clip: initial; border: none; box-sizing: border-box; margin: 0.25em 0px 0.25rem; padding: 0px; vertical-align: baseline; line-height: 24.96px;&quot; class=&quot;type__headline__xs&quot;&gt;&lt;font color=&quot;#ffff66&quot; style=&quot;font-size: 30px;&quot; face=&quot;Helvetica&quot;&gt;Closing the Vault&lt;/font&gt;&lt;br&gt;&lt;/h1&gt;&lt;/div&gt;" style="text;html=1;strokeColor=#3A5431;fillColor=#375BD2;align=center;verticalAlign=middle;whiteSpace=wrap;rounded=1;fontSize=20;fontFamily=Architects Daughter;glass=0;labelBackgroundColor=none;fontColor=#ffffff;gradientColor=#1A1A1A;strokeWidth=2;" vertex="1" parent="1">
          <mxGeometry x="80" y="2680" width="380" height="80" as="geometry" />
        </mxCell>
        <mxCell id="VWBzi6tTDOa6CH9NLCmq-1243" value="&lt;font color=&quot;#375bd2&quot;&gt;&lt;u&gt;close&lt;/u&gt;&lt;/font&gt;" style="text;html=1;strokeColor=none;fillColor=none;align=center;verticalAlign=middle;whiteSpace=wrap;rounded=0;fontSize=20;fontFamily=Helvetica;fontColor=#000000;" vertex="1" parent="1">
          <mxGeometry x="450" y="2670" width="190" height="40" as="geometry" />
        </mxCell>
        <mxCell id="VWBzi6tTDOa6CH9NLCmq-1252" style="edgeStyle=orthogonalEdgeStyle;shape=connector;rounded=0;orthogonalLoop=1;jettySize=auto;html=1;exitX=0.5;exitY=0;exitDx=0;exitDy=0;entryX=0.5;entryY=0;entryDx=0;entryDy=0;labelBackgroundColor=default;strokeColor=#375BD2;strokeWidth=2;fontFamily=Architects Daughter;fontSize=20;fontColor=#ffffff;endArrow=classic;" edge="1" parent="1" source="VWBzi6tTDOa6CH9NLCmq-1244" target="VWBzi6tTDOa6CH9NLCmq-1246">
          <mxGeometry relative="1" as="geometry" />
        </mxCell>
        <mxCell id="VWBzi6tTDOa6CH9NLCmq-1253" style="edgeStyle=orthogonalEdgeStyle;shape=connector;rounded=0;orthogonalLoop=1;jettySize=auto;html=1;exitX=0.5;exitY=1;exitDx=0;exitDy=0;entryX=0.75;entryY=1;entryDx=0;entryDy=0;labelBackgroundColor=default;strokeColor=#375BD2;strokeWidth=2;fontFamily=Architects Daughter;fontSize=20;fontColor=#ffffff;endArrow=classic;" edge="1" parent="1" source="VWBzi6tTDOa6CH9NLCmq-1244" target="VWBzi6tTDOa6CH9NLCmq-1248">
          <mxGeometry relative="1" as="geometry" />
        </mxCell>
        <mxCell id="VWBzi6tTDOa6CH9NLCmq-1244" value="&lt;div style=&quot;&quot;&gt;&lt;font style=&quot;font-size: 25px;&quot;&gt;This function &lt;font color=&quot;#375bd2&quot;&gt;allows&lt;/font&gt; the contract owner to &lt;font color=&quot;#375bd2&quot;&gt;close the vault&lt;/font&gt;&lt;/font&gt;&lt;br&gt;&lt;/div&gt;" style="text;html=1;strokeColor=none;fillColor=none;align=center;verticalAlign=middle;whiteSpace=wrap;rounded=0;fontSize=20;fontFamily=Helvetica;fontColor=#000000;" vertex="1" parent="1">
          <mxGeometry x="657.5" y="2695.94" width="382.5" height="48.13" as="geometry" />
        </mxCell>
        <mxCell id="VWBzi6tTDOa6CH9NLCmq-1246" value="&lt;div style=&quot;&quot;&gt;&lt;font style=&quot;font-size: 25px;&quot;&gt;It stops any further rewards from vesting&lt;/font&gt;&lt;br&gt;&lt;/div&gt;" style="text;html=1;strokeColor=none;fillColor=none;align=center;verticalAlign=middle;whiteSpace=wrap;rounded=0;fontSize=20;fontFamily=Helvetica;fontColor=#000000;" vertex="1" parent="1">
          <mxGeometry x="1110" y="2639.69" width="460" height="48.13" as="geometry" />
        </mxCell>
        <mxCell id="VWBzi6tTDOa6CH9NLCmq-1247" value="&lt;div style=&quot;&quot;&gt;&lt;font style=&quot;font-size: 25px;&quot;&gt;Transfers unvested rewards to the contract owner&lt;/font&gt;&lt;br&gt;&lt;/div&gt;" style="text;html=1;strokeColor=none;fillColor=none;align=center;verticalAlign=middle;whiteSpace=wrap;rounded=0;fontSize=20;fontFamily=Helvetica;fontColor=#000000;" vertex="1" parent="1">
          <mxGeometry x="1110" y="2689.99" width="560" height="48.13" as="geometry" />
        </mxCell>
        <mxCell id="VWBzi6tTDOa6CH9NLCmq-1248" value="&lt;div style=&quot;&quot;&gt;&lt;font style=&quot;font-size: 25px;&quot;&gt;It emits an event to record the closure&lt;/font&gt;&lt;br&gt;&lt;/div&gt;" style="text;html=1;strokeColor=none;fillColor=none;align=center;verticalAlign=middle;whiteSpace=wrap;rounded=0;fontSize=20;fontFamily=Helvetica;fontColor=#000000;" vertex="1" parent="1">
          <mxGeometry x="1120" y="2745.94" width="427.5" height="48.13" as="geometry" />
        </mxCell>
        <mxCell id="VWBzi6tTDOa6CH9NLCmq-1249" value="" style="shape=waypoint;sketch=0;fillStyle=solid;size=6;pointerEvents=1;points=[];fillColor=none;resizable=0;rotatable=0;perimeter=centerPerimeter;snapToPoint=1;rounded=0;fontFamily=Architects Daughter;fontSize=25;fontColor=#000000;html=1;spacing=8;strokeWidth=4;strokeColor=#375BD2;" vertex="1" parent="1">
          <mxGeometry x="1080" y="2653.75" width="20" height="20" as="geometry" />
        </mxCell>
        <mxCell id="VWBzi6tTDOa6CH9NLCmq-1250" value="" style="shape=waypoint;sketch=0;fillStyle=solid;size=6;pointerEvents=1;points=[];fillColor=none;resizable=0;rotatable=0;perimeter=centerPerimeter;snapToPoint=1;rounded=0;fontFamily=Architects Daughter;fontSize=25;fontColor=#000000;html=1;spacing=8;strokeWidth=4;strokeColor=#375BD2;" vertex="1" parent="1">
          <mxGeometry x="1080" y="2704.0499999999997" width="20" height="20" as="geometry" />
        </mxCell>
        <mxCell id="VWBzi6tTDOa6CH9NLCmq-1251" value="" style="shape=waypoint;sketch=0;fillStyle=solid;size=6;pointerEvents=1;points=[];fillColor=none;resizable=0;rotatable=0;perimeter=centerPerimeter;snapToPoint=1;rounded=0;fontFamily=Architects Daughter;fontSize=25;fontColor=#000000;html=1;spacing=8;strokeWidth=4;strokeColor=#375BD2;" vertex="1" parent="1">
          <mxGeometry x="1080" y="2760" width="20" height="20" as="geometry" />
        </mxCell>
        <mxCell id="VWBzi6tTDOa6CH9NLCmq-1254" value="&lt;img alt=&quot;Vault icon Safe box icon Bitcoin icon png download - 1126*934 - Free  Transparent Vault Icon png Download. - CleanPNG / KissPNG&quot; src=&quot;https://encrypted-tbn0.gstatic.com/images?q=tbn:ANd9GcQb0YkU9QUml0jfYmVmoptYqwACyWwkrilblXZi4c9dXbwLAHNb89dzlpYC4p0X7j6G-ws&amp;amp;usqp=CAU&quot;&gt;" style="text;html=1;strokeColor=none;fillColor=none;align=center;verticalAlign=middle;whiteSpace=wrap;rounded=0;" vertex="1" parent="1">
          <mxGeometry x="1730" y="2615" width="220" height="210" as="geometry" />
        </mxCell>
        <mxCell id="VWBzi6tTDOa6CH9NLCmq-1255" value="" style="html=1;shadow=0;dashed=0;align=center;verticalAlign=middle;shape=mxgraph.arrows2.arrow;dy=0.6;dx=40;direction=south;notch=0;fontFamily=Architects Daughter;fontSize=20;fontColor=#ffffff;fillColor=#375BD2;strokeColor=#3A5431;gradientColor=#1A1A1A;rounded=1;glass=0;labelBackgroundColor=none;strokeWidth=2;" vertex="1" parent="1">
          <mxGeometry x="235" y="2800" width="70" height="138.75" as="geometry" />
        </mxCell>
        <mxCell id="VWBzi6tTDOa6CH9NLCmq-1257" style="edgeStyle=orthogonalEdgeStyle;shape=connector;rounded=0;orthogonalLoop=1;jettySize=auto;html=1;exitX=1;exitY=0.5;exitDx=0;exitDy=0;labelBackgroundColor=default;strokeColor=#375BD2;strokeWidth=2;fontFamily=Architects Daughter;fontSize=20;fontColor=#ffffff;endArrow=classic;" edge="1" parent="1" source="VWBzi6tTDOa6CH9NLCmq-1256">
          <mxGeometry relative="1" as="geometry">
            <mxPoint x="649.9999999999998" y="2999.6923076923076" as="targetPoint" />
          </mxGeometry>
        </mxCell>
        <mxCell id="VWBzi6tTDOa6CH9NLCmq-1256" value="&lt;div style=&quot;line-height: 87%;&quot;&gt;&lt;h1 style=&quot;background-image: none; background-position: initial; background-size: initial; background-repeat: initial; background-attachment: initial; background-origin: initial; background-clip: initial; border: none; box-sizing: border-box; margin: 0.25em 0px 0.25rem; padding: 0px; vertical-align: baseline; line-height: 24.96px;&quot; class=&quot;type__headline__xs&quot;&gt;&lt;font color=&quot;#ffff66&quot; style=&quot;font-size: 30px;&quot; face=&quot;Helvetica&quot;&gt;Internal Helper Functions&lt;/font&gt;&lt;br&gt;&lt;/h1&gt;&lt;/div&gt;" style="text;html=1;strokeColor=#3A5431;fillColor=#375BD2;align=center;verticalAlign=middle;whiteSpace=wrap;rounded=1;fontSize=20;fontFamily=Architects Daughter;glass=0;labelBackgroundColor=none;fontColor=#ffffff;gradientColor=#1A1A1A;strokeWidth=2;" vertex="1" parent="1">
          <mxGeometry x="80" y="2960" width="380" height="80" as="geometry" />
        </mxCell>
        <mxCell id="VWBzi6tTDOa6CH9NLCmq-1259" style="edgeStyle=orthogonalEdgeStyle;shape=connector;rounded=0;orthogonalLoop=1;jettySize=auto;html=1;exitX=1;exitY=0.5;exitDx=0;exitDy=0;labelBackgroundColor=default;strokeColor=#375BD2;strokeWidth=2;fontFamily=Architects Daughter;fontSize=20;fontColor=#ffffff;endArrow=classic;" edge="1" parent="1" source="VWBzi6tTDOa6CH9NLCmq-1258">
          <mxGeometry relative="1" as="geometry">
            <mxPoint x="1280" y="2999.6923076923076" as="targetPoint" />
          </mxGeometry>
        </mxCell>
        <mxCell id="VWBzi6tTDOa6CH9NLCmq-1258" value="&lt;div style=&quot;&quot;&gt;&lt;font style=&quot;font-size: 25px;&quot;&gt;These are &lt;font color=&quot;#375bd2&quot;&gt;private functions&lt;/font&gt; used for various &lt;font color=&quot;#375bd2&quot;&gt;calculations&lt;/font&gt; and &lt;font color=&quot;#375bd2&quot;&gt;operations&lt;/font&gt; within the contract&lt;/font&gt;&lt;br&gt;&lt;/div&gt;" style="text;html=1;strokeColor=none;fillColor=none;align=center;verticalAlign=middle;whiteSpace=wrap;rounded=0;fontSize=20;fontFamily=Helvetica;fontColor=#000000;" vertex="1" parent="1">
          <mxGeometry x="657.5" y="2947.9700000000003" width="410" height="104.06" as="geometry" />
        </mxCell>
        <mxCell id="VWBzi6tTDOa6CH9NLCmq-1262" value="" style="edgeStyle=orthogonalEdgeStyle;shape=connector;rounded=0;orthogonalLoop=1;jettySize=auto;html=1;labelBackgroundColor=default;strokeColor=#375BD2;strokeWidth=2;fontFamily=Architects Daughter;fontSize=20;fontColor=#ffffff;endArrow=classic;" edge="1" parent="1" source="VWBzi6tTDOa6CH9NLCmq-1260" target="VWBzi6tTDOa6CH9NLCmq-1261">
          <mxGeometry relative="1" as="geometry" />
        </mxCell>
        <mxCell id="VWBzi6tTDOa6CH9NLCmq-1260" value="&lt;font color=&quot;#ffff66&quot; style=&quot;font-size: 25px;&quot; face=&quot;Helvetica&quot;&gt;_forfeitStakerBaseReward&lt;/font&gt;" style="text;html=1;strokeColor=#3A5431;fillColor=#375BD2;align=center;verticalAlign=middle;whiteSpace=wrap;rounded=1;fontSize=20;fontFamily=Architects Daughter;fontColor=#ffffff;gradientColor=#1A1A1A;glass=0;labelBackgroundColor=none;strokeWidth=2;" vertex="1" parent="1">
          <mxGeometry x="1320" y="2878.75" width="320" height="61.25" as="geometry" />
        </mxCell>
        <mxCell id="VWBzi6tTDOa6CH9NLCmq-1261" value="" style="shape=singleArrow;whiteSpace=wrap;html=1;arrowWidth=0.4;arrowSize=0.4;fontSize=20;fontFamily=Architects Daughter;fillColor=#375BD2;strokeColor=#3A5431;fontColor=#ffffff;gradientColor=#1A1A1A;rounded=1;glass=0;labelBackgroundColor=none;strokeWidth=2;" vertex="1" parent="1">
          <mxGeometry x="1840" y="2879.375" width="80" height="60" as="geometry" />
        </mxCell>
        <mxCell id="VWBzi6tTDOa6CH9NLCmq-1263" value="&lt;div style=&quot;&quot;&gt;&lt;font style=&quot;font-size: 25px;&quot;&gt;Calculates forfeited rewards&lt;/font&gt;&lt;br&gt;&lt;/div&gt;" style="text;html=1;strokeColor=none;fillColor=none;align=center;verticalAlign=middle;whiteSpace=wrap;rounded=0;fontSize=20;fontFamily=Helvetica;fontColor=#000000;" vertex="1" parent="1">
          <mxGeometry x="1920" y="2885.31" width="340" height="48.13" as="geometry" />
        </mxCell>
        <mxCell id="VWBzi6tTDOa6CH9NLCmq-1266" value="" style="edgeStyle=orthogonalEdgeStyle;shape=connector;rounded=0;orthogonalLoop=1;jettySize=auto;html=1;labelBackgroundColor=default;strokeColor=#375BD2;strokeWidth=2;fontFamily=Architects Daughter;fontSize=20;fontColor=#ffffff;endArrow=classic;" edge="1" parent="1" source="VWBzi6tTDOa6CH9NLCmq-1264" target="VWBzi6tTDOa6CH9NLCmq-1265">
          <mxGeometry relative="1" as="geometry" />
        </mxCell>
        <mxCell id="VWBzi6tTDOa6CH9NLCmq-1264" value="&lt;font color=&quot;#ffff66&quot; face=&quot;Helvetica&quot; style=&quot;font-size: 25px;&quot;&gt;_checkpointStakingPools&lt;/font&gt;" style="text;html=1;strokeColor=#3A5431;fillColor=#375BD2;align=center;verticalAlign=middle;whiteSpace=wrap;rounded=1;fontSize=20;fontFamily=Architects Daughter;fontColor=#ffffff;gradientColor=#1A1A1A;glass=0;labelBackgroundColor=none;strokeWidth=2;" vertex="1" parent="1">
          <mxGeometry x="1320" y="2978.75" width="320" height="61.25" as="geometry" />
        </mxCell>
        <mxCell id="VWBzi6tTDOa6CH9NLCmq-1265" value="" style="shape=singleArrow;whiteSpace=wrap;html=1;arrowWidth=0.4;arrowSize=0.4;fontSize=20;fontFamily=Architects Daughter;fillColor=#375BD2;strokeColor=#3A5431;fontColor=#ffffff;gradientColor=#1A1A1A;rounded=1;glass=0;labelBackgroundColor=none;strokeWidth=2;" vertex="1" parent="1">
          <mxGeometry x="1840" y="2979.375" width="80" height="60" as="geometry" />
        </mxCell>
        <mxCell id="VWBzi6tTDOa6CH9NLCmq-1267" value="&lt;div style=&quot;&quot;&gt;&lt;font style=&quot;font-size: 25px;&quot;&gt;Records checkpoint data&lt;/font&gt;&lt;br&gt;&lt;/div&gt;" style="text;html=1;strokeColor=none;fillColor=none;align=center;verticalAlign=middle;whiteSpace=wrap;rounded=0;fontSize=20;fontFamily=Helvetica;fontColor=#000000;" vertex="1" parent="1">
          <mxGeometry x="1930" y="2985.31" width="290" height="48.13" as="geometry" />
        </mxCell>
        <mxCell id="VWBzi6tTDOa6CH9NLCmq-1270" value="" style="edgeStyle=orthogonalEdgeStyle;shape=connector;rounded=0;orthogonalLoop=1;jettySize=auto;html=1;labelBackgroundColor=default;strokeColor=#375BD2;strokeWidth=2;fontFamily=Architects Daughter;fontSize=20;fontColor=#ffffff;endArrow=classic;" edge="1" parent="1" source="VWBzi6tTDOa6CH9NLCmq-1268" target="VWBzi6tTDOa6CH9NLCmq-1269">
          <mxGeometry relative="1" as="geometry" />
        </mxCell>
        <mxCell id="VWBzi6tTDOa6CH9NLCmq-1268" value="&lt;font color=&quot;#ffff66&quot; face=&quot;Helvetica&quot; style=&quot;font-size: 25px;&quot;&gt;_stopVestingBucketRewards&lt;/font&gt;" style="text;html=1;strokeColor=#3A5431;fillColor=#375BD2;align=center;verticalAlign=middle;whiteSpace=wrap;rounded=1;fontSize=20;fontFamily=Architects Daughter;fontColor=#ffffff;gradientColor=#1A1A1A;glass=0;labelBackgroundColor=none;strokeWidth=2;" vertex="1" parent="1">
          <mxGeometry x="1320" y="3080" width="320" height="61.25" as="geometry" />
        </mxCell>
        <mxCell id="VWBzi6tTDOa6CH9NLCmq-1269" value="" style="shape=singleArrow;whiteSpace=wrap;html=1;arrowWidth=0.4;arrowSize=0.4;fontSize=20;fontFamily=Architects Daughter;fillColor=#375BD2;strokeColor=#3A5431;fontColor=#ffffff;gradientColor=#1A1A1A;rounded=1;glass=0;labelBackgroundColor=none;strokeWidth=2;" vertex="1" parent="1">
          <mxGeometry x="1840" y="3080.625" width="80" height="60" as="geometry" />
        </mxCell>
        <mxCell id="VWBzi6tTDOa6CH9NLCmq-1271" value="&lt;div style=&quot;&quot;&gt;&lt;font style=&quot;font-size: 25px;&quot;&gt;Stops vesting for a particular reward bucket&lt;/font&gt;&lt;br&gt;&lt;/div&gt;" style="text;html=1;strokeColor=none;fillColor=none;align=center;verticalAlign=middle;whiteSpace=wrap;rounded=0;fontSize=20;fontFamily=Helvetica;fontColor=#000000;" vertex="1" parent="1">
          <mxGeometry x="1930" y="3086.56" width="500" height="48.13" as="geometry" />
        </mxCell>
        <mxCell id="VWBzi6tTDOa6CH9NLCmq-1272" value="" style="shape=curlyBracket;whiteSpace=wrap;html=1;rounded=1;labelPosition=left;verticalLabelPosition=middle;align=right;verticalAlign=middle;glass=0;labelBackgroundColor=none;strokeColor=#3A5431;strokeWidth=2;fontFamily=Architects Daughter;fontSize=20;fontColor=#ffffff;fillColor=#375BD2;gradientColor=#1A1A1A;" vertex="1" parent="1">
          <mxGeometry x="1281.25" y="2849.37" width="20" height="300.63" as="geometry" />
        </mxCell>
        <mxCell id="VWBzi6tTDOa6CH9NLCmq-1273" value="" style="html=1;shadow=0;dashed=0;align=center;verticalAlign=middle;shape=mxgraph.arrows2.arrow;dy=0.6;dx=40;direction=south;notch=0;fontFamily=Architects Daughter;fontSize=20;fontColor=#ffffff;fillColor=#375BD2;strokeColor=#3A5431;gradientColor=#1A1A1A;rounded=1;glass=0;labelBackgroundColor=none;strokeWidth=2;" vertex="1" parent="1">
          <mxGeometry x="230" y="3060" width="70" height="138.75" as="geometry" />
        </mxCell>
        <mxCell id="VWBzi6tTDOa6CH9NLCmq-1275" style="edgeStyle=orthogonalEdgeStyle;shape=connector;rounded=0;orthogonalLoop=1;jettySize=auto;html=1;exitX=1;exitY=0.5;exitDx=0;exitDy=0;labelBackgroundColor=default;strokeColor=#375BD2;strokeWidth=2;fontFamily=Architects Daughter;fontSize=20;fontColor=#ffffff;endArrow=classic;" edge="1" parent="1" source="VWBzi6tTDOa6CH9NLCmq-1274">
          <mxGeometry relative="1" as="geometry">
            <mxPoint x="650" y="3269.181818181818" as="targetPoint" />
          </mxGeometry>
        </mxCell>
        <mxCell id="VWBzi6tTDOa6CH9NLCmq-1292" style="edgeStyle=orthogonalEdgeStyle;shape=connector;rounded=0;orthogonalLoop=1;jettySize=auto;html=1;exitX=0.75;exitY=1;exitDx=0;exitDy=0;entryX=0;entryY=0.75;entryDx=0;entryDy=0;labelBackgroundColor=default;strokeColor=#375BD2;strokeWidth=2;fontFamily=Architects Daughter;fontSize=20;fontColor=#ffffff;endArrow=classic;" edge="1" parent="1" source="VWBzi6tTDOa6CH9NLCmq-1274" target="VWBzi6tTDOa6CH9NLCmq-1282">
          <mxGeometry relative="1" as="geometry" />
        </mxCell>
        <mxCell id="VWBzi6tTDOa6CH9NLCmq-1293" style="edgeStyle=orthogonalEdgeStyle;shape=connector;rounded=0;orthogonalLoop=1;jettySize=auto;html=1;exitX=1;exitY=1;exitDx=0;exitDy=0;entryX=0;entryY=0.5;entryDx=0;entryDy=0;labelBackgroundColor=default;strokeColor=#375BD2;strokeWidth=2;fontFamily=Architects Daughter;fontSize=20;fontColor=#ffffff;endArrow=classic;" edge="1" parent="1" source="VWBzi6tTDOa6CH9NLCmq-1274" target="VWBzi6tTDOa6CH9NLCmq-1285">
          <mxGeometry relative="1" as="geometry" />
        </mxCell>
        <mxCell id="VWBzi6tTDOa6CH9NLCmq-1309" style="edgeStyle=orthogonalEdgeStyle;shape=connector;rounded=0;orthogonalLoop=1;jettySize=auto;html=1;exitX=0.5;exitY=1;exitDx=0;exitDy=0;entryX=0;entryY=0.5;entryDx=0;entryDy=0;labelBackgroundColor=default;strokeColor=#375BD2;strokeWidth=2;fontFamily=Architects Daughter;fontSize=20;fontColor=#ffffff;endArrow=classic;" edge="1" parent="1" source="VWBzi6tTDOa6CH9NLCmq-1274" target="VWBzi6tTDOa6CH9NLCmq-1302">
          <mxGeometry relative="1" as="geometry" />
        </mxCell>
        <mxCell id="VWBzi6tTDOa6CH9NLCmq-1314" style="edgeStyle=orthogonalEdgeStyle;shape=connector;rounded=0;orthogonalLoop=1;jettySize=auto;html=1;exitX=0.75;exitY=1;exitDx=0;exitDy=0;entryX=0;entryY=0.5;entryDx=0;entryDy=0;labelBackgroundColor=default;strokeColor=#375BD2;strokeWidth=2;fontFamily=Architects Daughter;fontSize=20;fontColor=#ffffff;endArrow=classic;" edge="1" parent="1" source="VWBzi6tTDOa6CH9NLCmq-1274" target="VWBzi6tTDOa6CH9NLCmq-1310">
          <mxGeometry relative="1" as="geometry" />
        </mxCell>
        <mxCell id="VWBzi6tTDOa6CH9NLCmq-1326" style="edgeStyle=orthogonalEdgeStyle;shape=connector;rounded=0;orthogonalLoop=1;jettySize=auto;html=1;exitX=0.25;exitY=1;exitDx=0;exitDy=0;entryX=0.25;entryY=0;entryDx=0;entryDy=0;labelBackgroundColor=default;strokeColor=#375BD2;strokeWidth=2;fontFamily=Architects Daughter;fontSize=20;fontColor=#ffffff;endArrow=classic;" edge="1" parent="1" source="VWBzi6tTDOa6CH9NLCmq-1274" target="VWBzi6tTDOa6CH9NLCmq-1319">
          <mxGeometry relative="1" as="geometry" />
        </mxCell>
        <mxCell id="VWBzi6tTDOa6CH9NLCmq-1274" value="&lt;div style=&quot;line-height: 87%;&quot;&gt;&lt;h1 style=&quot;background-image: none; background-position: initial; background-size: initial; background-repeat: initial; background-attachment: initial; background-origin: initial; background-clip: initial; border: none; box-sizing: border-box; margin: 0.25em 0px 0.25rem; padding: 0px; vertical-align: baseline; line-height: 24.96px;&quot; class=&quot;type__headline__xs&quot;&gt;&lt;font color=&quot;#ffff66&quot; style=&quot;font-size: 30px;&quot; face=&quot;Helvetica&quot;&gt;Private Functions&lt;/font&gt;&lt;br&gt;&lt;/h1&gt;&lt;/div&gt;" style="text;html=1;strokeColor=#3A5431;fillColor=#375BD2;align=center;verticalAlign=middle;whiteSpace=wrap;rounded=1;fontSize=20;fontFamily=Architects Daughter;glass=0;labelBackgroundColor=none;fontColor=#ffffff;gradientColor=#1A1A1A;strokeWidth=2;" vertex="1" parent="1">
          <mxGeometry x="75" y="3230" width="380" height="80" as="geometry" />
        </mxCell>
        <mxCell id="VWBzi6tTDOa6CH9NLCmq-1277" style="edgeStyle=orthogonalEdgeStyle;shape=connector;rounded=0;orthogonalLoop=1;jettySize=auto;html=1;exitX=1;exitY=0.5;exitDx=0;exitDy=0;labelBackgroundColor=default;strokeColor=#375BD2;strokeWidth=2;fontFamily=Architects Daughter;fontSize=20;fontColor=#ffffff;endArrow=classic;" edge="1" parent="1" source="VWBzi6tTDOa6CH9NLCmq-1276">
          <mxGeometry relative="1" as="geometry">
            <mxPoint x="1180" y="3220.0909090909086" as="targetPoint" />
          </mxGeometry>
        </mxCell>
        <mxCell id="VWBzi6tTDOa6CH9NLCmq-1276" value="&lt;font color=&quot;#ffff66&quot; style=&quot;font-size: 25px;&quot; face=&quot;Helvetica&quot;&gt;_updateRewardBucket&lt;/font&gt;" style="text;html=1;strokeColor=#3A5431;fillColor=#375BD2;align=center;verticalAlign=middle;whiteSpace=wrap;rounded=1;fontSize=20;fontFamily=Architects Daughter;fontColor=#ffffff;gradientColor=#1A1A1A;glass=0;labelBackgroundColor=none;strokeWidth=2;" vertex="1" parent="1">
          <mxGeometry x="680" y="3190" width="320" height="61.25" as="geometry" />
        </mxCell>
        <mxCell id="VWBzi6tTDOa6CH9NLCmq-1280" value="" style="edgeStyle=orthogonalEdgeStyle;shape=connector;rounded=0;orthogonalLoop=1;jettySize=auto;html=1;labelBackgroundColor=default;strokeColor=#375BD2;strokeWidth=2;fontFamily=Architects Daughter;fontSize=20;fontColor=#ffffff;endArrow=classic;" edge="1" parent="1" source="VWBzi6tTDOa6CH9NLCmq-1278" target="VWBzi6tTDOa6CH9NLCmq-1279">
          <mxGeometry relative="1" as="geometry" />
        </mxCell>
        <mxCell id="VWBzi6tTDOa6CH9NLCmq-1278" value="&lt;div style=&quot;&quot;&gt;&lt;font style=&quot;font-size: 25px;&quot;&gt;This function &lt;font color=&quot;#375bd2&quot;&gt;updates&lt;/font&gt; a reward bucket with the provided reward amount and emission rate&lt;/font&gt;&lt;br&gt;&lt;/div&gt;" style="text;html=1;strokeColor=none;fillColor=none;align=center;verticalAlign=middle;whiteSpace=wrap;rounded=0;fontSize=20;fontFamily=Helvetica;fontColor=#000000;" vertex="1" parent="1">
          <mxGeometry x="1200" y="3168.59" width="440" height="104.06" as="geometry" />
        </mxCell>
        <mxCell id="VWBzi6tTDOa6CH9NLCmq-1279" value="" style="shape=singleArrow;whiteSpace=wrap;html=1;arrowWidth=0.4;arrowSize=0.4;rounded=1;glass=0;labelBackgroundColor=none;strokeColor=#3A5431;strokeWidth=2;fontFamily=Architects Daughter;fontSize=20;fontColor=#ffffff;fillColor=#375BD2;gradientColor=#1A1A1A;" vertex="1" parent="1">
          <mxGeometry x="1900" y="3190.6200000000003" width="80" height="60" as="geometry" />
        </mxCell>
        <mxCell id="VWBzi6tTDOa6CH9NLCmq-1281" value="&lt;div style=&quot;&quot;&gt;&lt;font style=&quot;font-size: 25px;&quot;&gt;Calculates the remaining unvested rewards and checks if the amount of rewards is sufficient to cover the emission rate&lt;/font&gt;&lt;br&gt;&lt;/div&gt;" style="text;html=1;strokeColor=none;fillColor=none;align=center;verticalAlign=middle;whiteSpace=wrap;rounded=0;fontSize=20;fontFamily=Helvetica;fontColor=#000000;" vertex="1" parent="1">
          <mxGeometry x="1980.5" y="3145" width="399" height="151.25" as="geometry" />
        </mxCell>
        <mxCell id="VWBzi6tTDOa6CH9NLCmq-1283" style="edgeStyle=orthogonalEdgeStyle;shape=connector;rounded=0;orthogonalLoop=1;jettySize=auto;html=1;exitX=1;exitY=0.5;exitDx=0;exitDy=0;labelBackgroundColor=default;strokeColor=#375BD2;strokeWidth=2;fontFamily=Architects Daughter;fontSize=20;fontColor=#ffffff;endArrow=classic;" edge="1" parent="1" source="VWBzi6tTDOa6CH9NLCmq-1282">
          <mxGeometry relative="1" as="geometry">
            <mxPoint x="1190" y="3327.363636363636" as="targetPoint" />
          </mxGeometry>
        </mxCell>
        <mxCell id="VWBzi6tTDOa6CH9NLCmq-1282" value="&lt;font color=&quot;#ffff66&quot; face=&quot;Helvetica&quot; style=&quot;font-size: 25px;&quot;&gt;_updateRewardDurationEndsAt&lt;/font&gt;" style="text;html=1;strokeColor=#3A5431;fillColor=#375BD2;align=center;verticalAlign=middle;whiteSpace=wrap;rounded=1;fontSize=20;fontFamily=Architects Daughter;fontColor=#ffffff;gradientColor=#1A1A1A;glass=0;labelBackgroundColor=none;strokeWidth=2;" vertex="1" parent="1">
          <mxGeometry x="677.5" y="3296.25" width="385" height="63.75" as="geometry" />
        </mxCell>
        <mxCell id="VWBzi6tTDOa6CH9NLCmq-1284" value="&lt;div style=&quot;text-align: left;&quot;&gt;&lt;font style=&quot;font-size: 25px;&quot;&gt;This function &lt;font color=&quot;#375bd2&quot;&gt;updates&lt;/font&gt; the end time of a reward duration for a bucket based on the reward amount and emission rate&lt;/font&gt;&lt;br&gt;&lt;/div&gt;" style="text;html=1;strokeColor=none;fillColor=none;align=center;verticalAlign=middle;whiteSpace=wrap;rounded=0;fontSize=20;fontFamily=Helvetica;fontColor=#000000;" vertex="1" parent="1">
          <mxGeometry x="1200" y="3303.05" width="1260" height="50.16" as="geometry" />
        </mxCell>
        <mxCell id="VWBzi6tTDOa6CH9NLCmq-1286" style="edgeStyle=orthogonalEdgeStyle;shape=connector;rounded=0;orthogonalLoop=1;jettySize=auto;html=1;exitX=1;exitY=0.5;exitDx=0;exitDy=0;labelBackgroundColor=default;strokeColor=#375BD2;strokeWidth=2;fontFamily=Architects Daughter;fontSize=20;fontColor=#ffffff;endArrow=classic;" edge="1" parent="1" source="VWBzi6tTDOa6CH9NLCmq-1285">
          <mxGeometry relative="1" as="geometry">
            <mxPoint x="1300" y="3425.545454545454" as="targetPoint" />
          </mxGeometry>
        </mxCell>
        <mxCell id="VWBzi6tTDOa6CH9NLCmq-1285" value="&lt;font color=&quot;#ffff66&quot; style=&quot;font-size: 25px;&quot; face=&quot;Helvetica&quot;&gt;_getBucketRewardAndEmissionRateSplit&lt;/font&gt;" style="text;html=1;strokeColor=#3A5431;fillColor=#375BD2;align=center;verticalAlign=middle;whiteSpace=wrap;rounded=1;fontSize=20;fontFamily=Architects Daughter;fontColor=#ffffff;gradientColor=#1A1A1A;glass=0;labelBackgroundColor=none;strokeWidth=2;" vertex="1" parent="1">
          <mxGeometry x="680" y="3390" width="480" height="70" as="geometry" />
        </mxCell>
        <mxCell id="VWBzi6tTDOa6CH9NLCmq-1288" style="edgeStyle=orthogonalEdgeStyle;shape=connector;rounded=0;orthogonalLoop=1;jettySize=auto;html=1;exitX=1;exitY=0.5;exitDx=0;exitDy=0;labelBackgroundColor=default;strokeColor=#375BD2;strokeWidth=2;fontFamily=Architects Daughter;fontSize=20;fontColor=#ffffff;endArrow=classic;" edge="1" parent="1" source="VWBzi6tTDOa6CH9NLCmq-1287">
          <mxGeometry relative="1" as="geometry">
            <mxPoint x="2070" y="3425.545454545454" as="targetPoint" />
          </mxGeometry>
        </mxCell>
        <mxCell id="VWBzi6tTDOa6CH9NLCmq-1287" value="&lt;div style=&quot;&quot;&gt;&lt;font style=&quot;font-size: 25px;&quot;&gt;This function &lt;font color=&quot;#375bd2&quot;&gt;splits&lt;/font&gt; the &lt;font color=&quot;#375bd2&quot;&gt;reward&lt;/font&gt; and &lt;font color=&quot;#375bd2&quot;&gt;aggregate&lt;/font&gt; &lt;font color=&quot;#375bd2&quot;&gt;reward&lt;/font&gt; rates between different reward buckets&lt;/font&gt;&lt;br&gt;&lt;/div&gt;" style="text;html=1;strokeColor=none;fillColor=none;align=center;verticalAlign=middle;whiteSpace=wrap;rounded=0;fontSize=20;fontFamily=Helvetica;fontColor=#000000;" vertex="1" parent="1">
          <mxGeometry x="1307.5" y="3399.92" width="592.5" height="50.16" as="geometry" />
        </mxCell>
        <mxCell id="VWBzi6tTDOa6CH9NLCmq-1289" value="Based on" style="text;html=1;strokeColor=none;fillColor=none;align=center;verticalAlign=middle;whiteSpace=wrap;rounded=0;fontSize=20;fontFamily=Helvetica;fontColor=#000000;" vertex="1" parent="1">
          <mxGeometry x="1900" y="3380" width="150" height="40" as="geometry" />
        </mxCell>
        <mxCell id="VWBzi6tTDOa6CH9NLCmq-1290" value="&lt;div style=&quot;&quot;&gt;&lt;font style=&quot;font-size: 25px;&quot;&gt;The pool targeted and other factors&lt;/font&gt;&lt;br&gt;&lt;/div&gt;" style="text;html=1;strokeColor=none;fillColor=none;align=center;verticalAlign=middle;whiteSpace=wrap;rounded=0;fontSize=20;fontFamily=Helvetica;fontColor=#000000;" vertex="1" parent="1">
          <mxGeometry x="2090" y="3388.75" width="350" height="71.25" as="geometry" />
        </mxCell>
        <mxCell id="VWBzi6tTDOa6CH9NLCmq-1301" style="edgeStyle=orthogonalEdgeStyle;shape=connector;rounded=0;orthogonalLoop=1;jettySize=auto;html=1;exitX=0.5;exitY=1;exitDx=0;exitDy=0;entryX=0.25;entryY=1;entryDx=0;entryDy=0;labelBackgroundColor=default;strokeColor=#375BD2;strokeWidth=2;fontFamily=Architects Daughter;fontSize=20;fontColor=#ffffff;endArrow=classic;" edge="1" parent="1" source="VWBzi6tTDOa6CH9NLCmq-1294" target="VWBzi6tTDOa6CH9NLCmq-1298">
          <mxGeometry relative="1" as="geometry" />
        </mxCell>
        <mxCell id="VWBzi6tTDOa6CH9NLCmq-1294" value="&lt;font color=&quot;#ffff66&quot; style=&quot;font-size: 25px;&quot; face=&quot;Helvetica&quot;&gt;_checkForRoundingToZeroRewardAmountSplit&lt;/font&gt;" style="text;html=1;strokeColor=#3A5431;fillColor=#375BD2;align=center;verticalAlign=middle;whiteSpace=wrap;rounded=1;fontSize=20;fontFamily=Architects Daughter;fontColor=#ffffff;gradientColor=#1A1A1A;glass=0;labelBackgroundColor=none;strokeWidth=2;" vertex="1" parent="1">
          <mxGeometry x="40" y="3490.62" width="550" height="70" as="geometry" />
        </mxCell>
        <mxCell id="VWBzi6tTDOa6CH9NLCmq-1295" value="" style="shape=waypoint;sketch=0;fillStyle=solid;size=6;pointerEvents=1;points=[];fillColor=none;resizable=0;rotatable=0;perimeter=centerPerimeter;snapToPoint=1;rounded=0;fontFamily=Architects Daughter;fontSize=25;fontColor=#000000;html=1;spacing=8;strokeWidth=4;strokeColor=#375BD2;" vertex="1" parent="1">
          <mxGeometry x="620" y="3515" width="20" height="20" as="geometry" />
        </mxCell>
        <mxCell id="VWBzi6tTDOa6CH9NLCmq-1296" value="&lt;font color=&quot;#ffff66&quot; face=&quot;Helvetica&quot; style=&quot;font-size: 25px;&quot;&gt;_checkForRoundingToZeroEmissionRateSplit&lt;/font&gt;" style="text;html=1;strokeColor=#3A5431;fillColor=#375BD2;align=center;verticalAlign=middle;whiteSpace=wrap;rounded=1;fontSize=20;fontFamily=Architects Daughter;fontColor=#ffffff;gradientColor=#1A1A1A;glass=0;labelBackgroundColor=none;strokeWidth=2;" vertex="1" parent="1">
          <mxGeometry x="677.5" y="3489.37" width="550" height="70" as="geometry" />
        </mxCell>
        <mxCell id="VWBzi6tTDOa6CH9NLCmq-1297" value="" style="shape=waypoint;sketch=0;fillStyle=solid;size=6;pointerEvents=1;points=[];fillColor=none;resizable=0;rotatable=0;perimeter=centerPerimeter;snapToPoint=1;rounded=0;fontFamily=Architects Daughter;fontSize=25;fontColor=#000000;html=1;spacing=8;strokeWidth=4;strokeColor=#375BD2;" vertex="1" parent="1">
          <mxGeometry x="1261.25" y="3514.37" width="20" height="20" as="geometry" />
        </mxCell>
        <mxCell id="VWBzi6tTDOa6CH9NLCmq-1299" style="edgeStyle=orthogonalEdgeStyle;shape=connector;rounded=0;orthogonalLoop=1;jettySize=auto;html=1;exitX=1;exitY=0.5;exitDx=0;exitDy=0;labelBackgroundColor=default;strokeColor=#375BD2;strokeWidth=2;fontFamily=Architects Daughter;fontSize=20;fontColor=#ffffff;endArrow=classic;" edge="1" parent="1" source="VWBzi6tTDOa6CH9NLCmq-1298">
          <mxGeometry relative="1" as="geometry">
            <mxPoint x="2040" y="3525.545454545454" as="targetPoint" />
          </mxGeometry>
        </mxCell>
        <mxCell id="VWBzi6tTDOa6CH9NLCmq-1298" value="&lt;font color=&quot;#ffff66&quot; face=&quot;Helvetica&quot; style=&quot;font-size: 25px;&quot;&gt;_checkForRoundingToZeroEmissionRateSplit&lt;/font&gt;" style="text;html=1;strokeColor=#3A5431;fillColor=#375BD2;align=center;verticalAlign=middle;whiteSpace=wrap;rounded=1;fontSize=20;fontFamily=Architects Daughter;fontColor=#ffffff;gradientColor=#1A1A1A;glass=0;labelBackgroundColor=none;strokeWidth=2;" vertex="1" parent="1">
          <mxGeometry x="1301.25" y="3489.37" width="550" height="70" as="geometry" />
        </mxCell>
        <mxCell id="VWBzi6tTDOa6CH9NLCmq-1300" value="&lt;div style=&quot;&quot;&gt;&lt;font style=&quot;font-size: 25px;&quot;&gt;These functions &lt;font color=&quot;#375bd2&quot;&gt;validate&lt;/font&gt; &lt;font color=&quot;#375bd2&quot;&gt;reward&lt;/font&gt; and &lt;font color=&quot;#375bd2&quot;&gt;emission rate &lt;/font&gt;splits to avoid rounding &lt;font color=&quot;#ff0000&quot;&gt;errors&lt;/font&gt;.&lt;/font&gt;&lt;br&gt;&lt;/div&gt;" style="text;html=1;strokeColor=none;fillColor=none;align=center;verticalAlign=middle;whiteSpace=wrap;rounded=0;fontSize=20;fontFamily=Helvetica;fontColor=#000000;" vertex="1" parent="1">
          <mxGeometry x="2050" y="3489.37" width="350" height="71.25" as="geometry" />
        </mxCell>
        <mxCell id="VWBzi6tTDOa6CH9NLCmq-1303" style="edgeStyle=orthogonalEdgeStyle;shape=connector;rounded=0;orthogonalLoop=1;jettySize=auto;html=1;exitX=1;exitY=0.5;exitDx=0;exitDy=0;labelBackgroundColor=default;strokeColor=#375BD2;strokeWidth=2;fontFamily=Architects Daughter;fontSize=20;fontColor=#ffffff;endArrow=classic;" edge="1" parent="1" source="VWBzi6tTDOa6CH9NLCmq-1302">
          <mxGeometry relative="1" as="geometry">
            <mxPoint x="1160" y="3665.545454545454" as="targetPoint" />
          </mxGeometry>
        </mxCell>
        <mxCell id="VWBzi6tTDOa6CH9NLCmq-1302" value="&lt;font color=&quot;#ffff66&quot; face=&quot;Helvetica&quot; style=&quot;font-size: 25px;&quot;&gt;_updateRewardPerToken&lt;/font&gt;" style="text;html=1;strokeColor=#3A5431;fillColor=#375BD2;align=center;verticalAlign=middle;whiteSpace=wrap;rounded=1;fontSize=20;fontFamily=Architects Daughter;fontColor=#ffffff;gradientColor=#1A1A1A;glass=0;labelBackgroundColor=none;strokeWidth=2;" vertex="1" parent="1">
          <mxGeometry x="677.5" y="3630" width="310" height="70" as="geometry" />
        </mxCell>
        <mxCell id="VWBzi6tTDOa6CH9NLCmq-1306" value="" style="edgeStyle=orthogonalEdgeStyle;shape=connector;rounded=0;orthogonalLoop=1;jettySize=auto;html=1;labelBackgroundColor=default;strokeColor=#375BD2;strokeWidth=2;fontFamily=Architects Daughter;fontSize=20;fontColor=#ffffff;endArrow=classic;" edge="1" parent="1" source="VWBzi6tTDOa6CH9NLCmq-1304" target="VWBzi6tTDOa6CH9NLCmq-1305">
          <mxGeometry relative="1" as="geometry" />
        </mxCell>
        <mxCell id="VWBzi6tTDOa6CH9NLCmq-1304" value="&lt;div style=&quot;&quot;&gt;&lt;font style=&quot;font-size: 25px;&quot;&gt;This function updates the reward per token for staking pools&lt;/font&gt;&lt;br&gt;&lt;/div&gt;" style="text;html=1;strokeColor=none;fillColor=none;align=center;verticalAlign=middle;whiteSpace=wrap;rounded=0;fontSize=20;fontFamily=Helvetica;fontColor=#000000;" vertex="1" parent="1">
          <mxGeometry x="1173.75" y="3639.92" width="456.25" height="50.16" as="geometry" />
        </mxCell>
        <mxCell id="VWBzi6tTDOa6CH9NLCmq-1305" value="" style="shape=singleArrow;whiteSpace=wrap;html=1;arrowWidth=0.4;arrowSize=0.4;rounded=1;glass=0;labelBackgroundColor=none;strokeColor=#3A5431;strokeWidth=2;fontFamily=Architects Daughter;fontSize=20;fontColor=#ffffff;fillColor=#375BD2;gradientColor=#1A1A1A;" vertex="1" parent="1">
          <mxGeometry x="1830.005" y="3635" width="80" height="60" as="geometry" />
        </mxCell>
        <mxCell id="VWBzi6tTDOa6CH9NLCmq-1307" value="Ensures" style="text;html=1;strokeColor=none;fillColor=none;align=center;verticalAlign=middle;whiteSpace=wrap;rounded=0;fontSize=20;fontFamily=Helvetica;fontColor=#000000;" vertex="1" parent="1">
          <mxGeometry x="1654" y="3620" width="150" height="40" as="geometry" />
        </mxCell>
        <mxCell id="VWBzi6tTDOa6CH9NLCmq-1308" value="&lt;div style=&quot;&quot;&gt;&lt;font style=&quot;font-size: 25px;&quot;&gt;&lt;font color=&quot;#375bd2&quot;&gt;Rewards&lt;/font&gt; are &lt;font color=&quot;#375bd2&quot;&gt;updated&lt;/font&gt; only &lt;font color=&quot;#375bd2&quot;&gt;once per block&lt;/font&gt;&lt;/font&gt;&lt;br&gt;&lt;/div&gt;" style="text;html=1;strokeColor=none;fillColor=none;align=center;verticalAlign=middle;whiteSpace=wrap;rounded=0;fontSize=20;fontFamily=Helvetica;fontColor=#000000;" vertex="1" parent="1">
          <mxGeometry x="1940" y="3628.75" width="350" height="71.25" as="geometry" />
        </mxCell>
        <mxCell id="VWBzi6tTDOa6CH9NLCmq-1312" value="" style="edgeStyle=orthogonalEdgeStyle;shape=connector;rounded=0;orthogonalLoop=1;jettySize=auto;html=1;labelBackgroundColor=default;strokeColor=#375BD2;strokeWidth=2;fontFamily=Architects Daughter;fontSize=20;fontColor=#ffffff;endArrow=classic;" edge="1" parent="1" source="VWBzi6tTDOa6CH9NLCmq-1310" target="VWBzi6tTDOa6CH9NLCmq-1311">
          <mxGeometry relative="1" as="geometry" />
        </mxCell>
        <mxCell id="VWBzi6tTDOa6CH9NLCmq-1310" value="&lt;font color=&quot;#ffff66&quot; face=&quot;Helvetica&quot; style=&quot;font-size: 25px;&quot;&gt;_calculatePoolsRewardPerToken&lt;/font&gt;" style="text;html=1;strokeColor=#3A5431;fillColor=#375BD2;align=center;verticalAlign=middle;whiteSpace=wrap;rounded=1;fontSize=20;fontFamily=Architects Daughter;fontColor=#ffffff;gradientColor=#1A1A1A;glass=0;labelBackgroundColor=none;strokeWidth=2;" vertex="1" parent="1">
          <mxGeometry x="677.5" y="3750" width="402.5" height="70" as="geometry" />
        </mxCell>
        <mxCell id="VWBzi6tTDOa6CH9NLCmq-1311" value="" style="shape=singleArrow;whiteSpace=wrap;html=1;arrowWidth=0.4;arrowSize=0.4;fontSize=20;fontFamily=Architects Daughter;fillColor=#375BD2;strokeColor=#3A5431;fontColor=#ffffff;gradientColor=#1A1A1A;rounded=1;glass=0;labelBackgroundColor=none;strokeWidth=2;" vertex="1" parent="1">
          <mxGeometry x="1321.25" y="3755" width="80" height="60" as="geometry" />
        </mxCell>
        <mxCell id="VWBzi6tTDOa6CH9NLCmq-1313" value="&lt;div style=&quot;&quot;&gt;&lt;font style=&quot;font-size: 25px;&quot;&gt;This function calculates the reward per token for different staking pools&lt;/font&gt;&lt;br&gt;&lt;/div&gt;" style="text;html=1;strokeColor=none;fillColor=none;align=center;verticalAlign=middle;whiteSpace=wrap;rounded=0;fontSize=20;fontFamily=Helvetica;fontColor=#000000;" vertex="1" parent="1">
          <mxGeometry x="1410" y="3759.92" width="800" height="50.16" as="geometry" />
        </mxCell>
        <mxCell id="VWBzi6tTDOa6CH9NLCmq-1317" value="" style="edgeStyle=orthogonalEdgeStyle;shape=connector;rounded=0;orthogonalLoop=1;jettySize=auto;html=1;labelBackgroundColor=default;strokeColor=#375BD2;strokeWidth=2;fontFamily=Architects Daughter;fontSize=20;fontColor=#ffffff;endArrow=classic;" edge="1" parent="1" source="VWBzi6tTDOa6CH9NLCmq-1315" target="VWBzi6tTDOa6CH9NLCmq-1316">
          <mxGeometry relative="1" as="geometry" />
        </mxCell>
        <mxCell id="VWBzi6tTDOa6CH9NLCmq-1315" value="&lt;font color=&quot;#ffff66&quot; style=&quot;font-size: 25px;&quot; face=&quot;Helvetica&quot;&gt;_calculateVestedRewardPerToken&lt;/font&gt;" style="text;html=1;strokeColor=#3A5431;fillColor=#375BD2;align=center;verticalAlign=middle;whiteSpace=wrap;rounded=1;fontSize=20;fontFamily=Architects Daughter;fontColor=#ffffff;gradientColor=#1A1A1A;glass=0;labelBackgroundColor=none;strokeWidth=2;" vertex="1" parent="1">
          <mxGeometry x="680" y="3850" width="402.5" height="70" as="geometry" />
        </mxCell>
        <mxCell id="VWBzi6tTDOa6CH9NLCmq-1316" value="" style="shape=singleArrow;whiteSpace=wrap;html=1;arrowWidth=0.4;arrowSize=0.4;fontSize=20;fontFamily=Architects Daughter;fillColor=#375BD2;strokeColor=#3A5431;fontColor=#ffffff;gradientColor=#1A1A1A;rounded=1;glass=0;labelBackgroundColor=none;strokeWidth=2;" vertex="1" parent="1">
          <mxGeometry x="1323.75" y="3855" width="80" height="60" as="geometry" />
        </mxCell>
        <mxCell id="VWBzi6tTDOa6CH9NLCmq-1318" value="&lt;div style=&quot;&quot;&gt;&lt;font style=&quot;font-size: 25px;&quot;&gt;Calculates the vested rewards earned per token for a specific bucket&lt;/font&gt;&lt;br&gt;&lt;/div&gt;" style="text;html=1;strokeColor=none;fillColor=none;align=center;verticalAlign=middle;whiteSpace=wrap;rounded=0;fontSize=20;fontFamily=Helvetica;fontColor=#000000;" vertex="1" parent="1">
          <mxGeometry x="1410" y="3859.92" width="800" height="50.16" as="geometry" />
        </mxCell>
        <mxCell id="VWBzi6tTDOa6CH9NLCmq-1325" style="edgeStyle=orthogonalEdgeStyle;shape=connector;rounded=0;orthogonalLoop=1;jettySize=auto;html=1;exitX=0.5;exitY=0;exitDx=0;exitDy=0;entryX=0.5;entryY=0;entryDx=0;entryDy=0;labelBackgroundColor=default;strokeColor=#375BD2;strokeWidth=2;fontFamily=Architects Daughter;fontSize=20;fontColor=#ffffff;endArrow=classic;" edge="1" parent="1" source="VWBzi6tTDOa6CH9NLCmq-1319" target="VWBzi6tTDOa6CH9NLCmq-1321">
          <mxGeometry relative="1" as="geometry" />
        </mxCell>
        <mxCell id="VWBzi6tTDOa6CH9NLCmq-1319" value="&lt;font color=&quot;#ffff66&quot; style=&quot;font-size: 25px;&quot; face=&quot;Helvetica&quot;&gt;_calculateEarnedBaseReward&lt;/font&gt;" style="text;html=1;strokeColor=#3A5431;fillColor=#375BD2;align=center;verticalAlign=middle;whiteSpace=wrap;rounded=1;fontSize=20;fontFamily=Architects Daughter;fontColor=#ffffff;gradientColor=#1A1A1A;glass=0;labelBackgroundColor=none;strokeWidth=2;" vertex="1" parent="1">
          <mxGeometry x="40" y="3960" width="550" height="70" as="geometry" />
        </mxCell>
        <mxCell id="VWBzi6tTDOa6CH9NLCmq-1320" value="" style="shape=waypoint;sketch=0;fillStyle=solid;size=6;pointerEvents=1;points=[];fillColor=none;resizable=0;rotatable=0;perimeter=centerPerimeter;snapToPoint=1;rounded=0;fontFamily=Architects Daughter;fontSize=25;fontColor=#000000;html=1;spacing=8;strokeWidth=4;strokeColor=#375BD2;" vertex="1" parent="1">
          <mxGeometry x="620" y="3985" width="20" height="20" as="geometry" />
        </mxCell>
        <mxCell id="VWBzi6tTDOa6CH9NLCmq-1323" value="" style="edgeStyle=orthogonalEdgeStyle;shape=connector;rounded=0;orthogonalLoop=1;jettySize=auto;html=1;labelBackgroundColor=default;strokeColor=#375BD2;strokeWidth=2;fontFamily=Architects Daughter;fontSize=20;fontColor=#ffffff;endArrow=classic;" edge="1" parent="1" source="VWBzi6tTDOa6CH9NLCmq-1321" target="VWBzi6tTDOa6CH9NLCmq-1322">
          <mxGeometry relative="1" as="geometry" />
        </mxCell>
        <mxCell id="VWBzi6tTDOa6CH9NLCmq-1321" value="&lt;font color=&quot;#ffff66&quot; face=&quot;Helvetica&quot; style=&quot;font-size: 25px;&quot;&gt;_calculateEarnedDelegatedReward&lt;/font&gt;" style="text;html=1;strokeColor=#3A5431;fillColor=#375BD2;align=center;verticalAlign=middle;whiteSpace=wrap;rounded=1;fontSize=20;fontFamily=Architects Daughter;fontColor=#ffffff;gradientColor=#1A1A1A;glass=0;labelBackgroundColor=none;strokeWidth=2;" vertex="1" parent="1">
          <mxGeometry x="670" y="3960" width="550" height="70" as="geometry" />
        </mxCell>
        <mxCell id="VWBzi6tTDOa6CH9NLCmq-1322" value="" style="shape=singleArrow;whiteSpace=wrap;html=1;arrowWidth=0.4;arrowSize=0.4;fontSize=20;fontFamily=Architects Daughter;fillColor=#375BD2;strokeColor=#3A5431;fontColor=#ffffff;gradientColor=#1A1A1A;rounded=1;glass=0;labelBackgroundColor=none;strokeWidth=2;" vertex="1" parent="1">
          <mxGeometry x="1535" y="3965" width="80" height="60" as="geometry" />
        </mxCell>
        <mxCell id="VWBzi6tTDOa6CH9NLCmq-1324" value="&lt;div style=&quot;text-align: left;&quot;&gt;&lt;font style=&quot;font-size: 25px;&quot;&gt;These functions calculate earned base and delegated rewards for stakers&lt;/font&gt;&lt;br&gt;&lt;/div&gt;" style="text;html=1;strokeColor=none;fillColor=none;align=center;verticalAlign=middle;whiteSpace=wrap;rounded=0;fontSize=20;fontFamily=Helvetica;fontColor=#000000;" vertex="1" parent="1">
          <mxGeometry x="1615" y="3969.92" width="800" height="50.16" as="geometry" />
        </mxCell>
        <mxCell id="VWBzi6tTDOa6CH9NLCmq-1328" style="edgeStyle=orthogonalEdgeStyle;shape=connector;rounded=0;orthogonalLoop=1;jettySize=auto;html=1;exitX=1;exitY=0.5;exitDx=0;exitDy=0;labelBackgroundColor=default;strokeColor=#375BD2;strokeWidth=2;fontFamily=Architects Daughter;fontSize=20;fontColor=#ffffff;endArrow=classic;" edge="1" parent="1" source="VWBzi6tTDOa6CH9NLCmq-1327">
          <mxGeometry relative="1" as="geometry">
            <mxPoint x="570" y="4092.818181818181" as="targetPoint" />
          </mxGeometry>
        </mxCell>
        <mxCell id="VWBzi6tTDOa6CH9NLCmq-1327" value="&lt;font color=&quot;#ffff66&quot; style=&quot;font-size: 24px;&quot; face=&quot;Helvetica&quot;&gt;_applyMultiplier&lt;/font&gt;" style="text;html=1;strokeColor=#3A5431;fillColor=#375BD2;align=center;verticalAlign=middle;whiteSpace=wrap;rounded=1;fontSize=20;fontFamily=Architects Daughter;fontColor=#ffffff;gradientColor=#1A1A1A;glass=0;labelBackgroundColor=none;strokeWidth=2;" vertex="1" parent="1">
          <mxGeometry x="40" y="4057" width="310" height="70" as="geometry" />
        </mxCell>
        <mxCell id="VWBzi6tTDOa6CH9NLCmq-1329" value="&lt;div style=&quot;font-size: 25px;&quot;&gt;Applies a multiplier to a staker&#39;s reward based on their staking duration and other factors&lt;br style=&quot;font-size: 25px;&quot;&gt;&lt;/div&gt;" style="text;html=1;strokeColor=none;fillColor=none;align=center;verticalAlign=middle;whiteSpace=wrap;rounded=0;fontSize=25;fontFamily=Helvetica;fontColor=#000000;" vertex="1" parent="1">
          <mxGeometry x="585" y="4066" width="1010" height="50.16" as="geometry" />
        </mxCell>
        <mxCell id="VWBzi6tTDOa6CH9NLCmq-1332" value="" style="edgeStyle=orthogonalEdgeStyle;shape=connector;rounded=0;orthogonalLoop=1;jettySize=auto;html=1;labelBackgroundColor=default;strokeColor=#375BD2;strokeWidth=2;fontFamily=Architects Daughter;fontSize=20;fontColor=#ffffff;endArrow=classic;" edge="1" parent="1" source="VWBzi6tTDOa6CH9NLCmq-1330">
          <mxGeometry relative="1" as="geometry">
            <mxPoint x="570" y="4185" as="targetPoint" />
          </mxGeometry>
        </mxCell>
        <mxCell id="VWBzi6tTDOa6CH9NLCmq-1330" value="&lt;font color=&quot;#ffff66&quot; style=&quot;font-size: 25px;&quot; face=&quot;Helvetica&quot;&gt;_calculateStakerReward&lt;/font&gt;" style="text;html=1;strokeColor=#3A5431;fillColor=#375BD2;align=center;verticalAlign=middle;whiteSpace=wrap;rounded=1;fontSize=20;fontFamily=Architects Daughter;fontColor=#ffffff;gradientColor=#1A1A1A;glass=0;labelBackgroundColor=none;strokeWidth=2;" vertex="1" parent="1">
          <mxGeometry x="40" y="4150" width="310" height="70" as="geometry" />
        </mxCell>
        <mxCell id="VWBzi6tTDOa6CH9NLCmq-1335" value="" style="edgeStyle=orthogonalEdgeStyle;shape=connector;rounded=0;orthogonalLoop=1;jettySize=auto;html=1;labelBackgroundColor=default;strokeColor=#375BD2;strokeWidth=2;fontFamily=Architects Daughter;fontSize=20;fontColor=#ffffff;endArrow=classic;" edge="1" parent="1" source="VWBzi6tTDOa6CH9NLCmq-1333" target="VWBzi6tTDOa6CH9NLCmq-1334">
          <mxGeometry relative="1" as="geometry" />
        </mxCell>
        <mxCell id="VWBzi6tTDOa6CH9NLCmq-1333" value="&lt;div style=&quot;font-size: 25px;&quot;&gt;&lt;font color=&quot;#375bd2&quot;&gt; Calculates&lt;/font&gt; a staker&#39;s rewards&lt;br style=&quot;font-size: 25px;&quot;&gt;&lt;/div&gt;" style="text;html=1;strokeColor=none;fillColor=none;align=center;verticalAlign=middle;whiteSpace=wrap;rounded=0;fontSize=25;fontFamily=Helvetica;fontColor=#000000;" vertex="1" parent="1">
          <mxGeometry x="570" y="4159.92" width="365" height="50.16" as="geometry" />
        </mxCell>
        <mxCell id="VWBzi6tTDOa6CH9NLCmq-1334" value="" style="shape=singleArrow;whiteSpace=wrap;html=1;arrowWidth=0.4;arrowSize=0.4;rounded=1;glass=0;labelBackgroundColor=none;strokeColor=#3A5431;strokeWidth=2;fontFamily=Architects Daughter;fontSize=20;fontColor=#ffffff;fillColor=#375BD2;gradientColor=#1A1A1A;" vertex="1" parent="1">
          <mxGeometry x="1157.5" y="4155" width="80" height="60" as="geometry" />
        </mxCell>
        <mxCell id="VWBzi6tTDOa6CH9NLCmq-1336" value="Including" style="text;html=1;strokeColor=none;fillColor=none;align=center;verticalAlign=middle;whiteSpace=wrap;rounded=0;fontSize=20;fontFamily=Helvetica;fontColor=#000000;" vertex="1" parent="1">
          <mxGeometry x="970" y="4150" width="150" height="40" as="geometry" />
        </mxCell>
        <mxCell id="VWBzi6tTDOa6CH9NLCmq-1337" value="&lt;div style=&quot;text-align: left;&quot;&gt;&lt;font style=&quot;font-size: 25px;&quot;&gt;&lt;font color=&quot;#375bd2&quot;&gt;Base&lt;/font&gt; and &lt;font color=&quot;#375bd2&quot;&gt;delegated&lt;/font&gt; rewards&lt;/font&gt;&lt;br&gt;&lt;/div&gt;" style="text;html=1;strokeColor=none;fillColor=none;align=center;verticalAlign=middle;whiteSpace=wrap;rounded=0;fontSize=20;fontFamily=Helvetica;fontColor=#000000;" vertex="1" parent="1">
          <mxGeometry x="1261.25" y="4159.92" width="348.75" height="50.16" as="geometry" />
        </mxCell>
        <mxCell id="VWBzi6tTDOa6CH9NLCmq-1340" value="" style="edgeStyle=orthogonalEdgeStyle;shape=connector;rounded=0;orthogonalLoop=1;jettySize=auto;html=1;labelBackgroundColor=default;strokeColor=#375BD2;strokeWidth=2;fontFamily=Architects Daughter;fontSize=20;fontColor=#ffffff;endArrow=classic;" edge="1" parent="1" source="VWBzi6tTDOa6CH9NLCmq-1338" target="VWBzi6tTDOa6CH9NLCmq-1339">
          <mxGeometry relative="1" as="geometry" />
        </mxCell>
        <mxCell id="VWBzi6tTDOa6CH9NLCmq-1338" value="&lt;font color=&quot;#ffff66&quot; style=&quot;font-size: 25px;&quot; face=&quot;Helvetica&quot;&gt;_distributeForfeitedReward&lt;/font&gt;" style="text;html=1;strokeColor=#3A5431;fillColor=#375BD2;align=center;verticalAlign=middle;whiteSpace=wrap;rounded=1;fontSize=20;fontFamily=Architects Daughter;fontColor=#ffffff;gradientColor=#1A1A1A;glass=0;labelBackgroundColor=none;strokeWidth=2;" vertex="1" parent="1">
          <mxGeometry x="1960" y="4240" width="400" height="70" as="geometry" />
        </mxCell>
        <mxCell id="VWBzi6tTDOa6CH9NLCmq-1339" value="" style="shape=singleArrow;whiteSpace=wrap;html=1;arrowWidth=0.4;arrowSize=0.4;fontSize=20;fontFamily=Architects Daughter;fillColor=#375BD2;strokeColor=#3A5431;fontColor=#ffffff;gradientColor=#1A1A1A;rounded=1;glass=0;labelBackgroundColor=none;strokeWidth=2;direction=west;" vertex="1" parent="1">
          <mxGeometry x="1640" y="4245" width="80" height="60" as="geometry" />
        </mxCell>
        <mxCell id="VWBzi6tTDOa6CH9NLCmq-1341" value="&lt;div style=&quot;text-align: right;&quot;&gt;&lt;font style=&quot;font-size: 25px;&quot;&gt;Distributes forfeited rewards to reward buckets&lt;/font&gt;&lt;br&gt;&lt;/div&gt;" style="text;html=1;strokeColor=none;fillColor=none;align=center;verticalAlign=middle;whiteSpace=wrap;rounded=0;fontSize=20;fontFamily=Helvetica;fontColor=#000000;" vertex="1" parent="1">
          <mxGeometry x="1270" y="4249.92" width="348.75" height="50.16" as="geometry" />
        </mxCell>
        <mxCell id="VWBzi6tTDOa6CH9NLCmq-1342" value="" style="shape=waypoint;sketch=0;fillStyle=solid;size=6;pointerEvents=1;points=[];fillColor=none;resizable=0;rotatable=0;perimeter=centerPerimeter;snapToPoint=1;rounded=0;fontFamily=Architects Daughter;fontSize=25;fontColor=#000000;html=1;spacing=8;strokeWidth=4;strokeColor=#375BD2;" vertex="1" parent="1">
          <mxGeometry x="1221" y="4265" width="20" height="20" as="geometry" />
        </mxCell>
        <mxCell id="VWBzi6tTDOa6CH9NLCmq-1344" style="edgeStyle=orthogonalEdgeStyle;shape=connector;rounded=0;orthogonalLoop=1;jettySize=auto;html=1;exitX=0;exitY=0.5;exitDx=0;exitDy=0;labelBackgroundColor=default;strokeColor=#375BD2;strokeWidth=2;fontFamily=Architects Daughter;fontSize=20;fontColor=#ffffff;endArrow=classic;" edge="1" parent="1" source="VWBzi6tTDOa6CH9NLCmq-1343">
          <mxGeometry relative="1" as="geometry">
            <mxPoint x="620" y="4274.636363636363" as="targetPoint" />
          </mxGeometry>
        </mxCell>
        <mxCell id="VWBzi6tTDOa6CH9NLCmq-1343" value="&lt;font color=&quot;#ffff66&quot; style=&quot;font-size: 25px;&quot; face=&quot;Helvetica&quot;&gt;_updateStakerRewardPerToken&lt;/font&gt;" style="text;html=1;strokeColor=#3A5431;fillColor=#375BD2;align=center;verticalAlign=middle;whiteSpace=wrap;rounded=1;fontSize=20;fontFamily=Architects Daughter;fontColor=#ffffff;gradientColor=#1A1A1A;glass=0;labelBackgroundColor=none;strokeWidth=2;" vertex="1" parent="1">
          <mxGeometry x="773.75" y="4240" width="400" height="70" as="geometry" />
        </mxCell>
        <mxCell id="VWBzi6tTDOa6CH9NLCmq-1345" value="&lt;div style=&quot;font-size: 25px;&quot;&gt; Updates a staker&#39;s reward per token values&lt;br style=&quot;font-size: 25px;&quot;&gt;&lt;/div&gt;" style="text;html=1;strokeColor=none;fillColor=none;align=center;verticalAlign=middle;whiteSpace=wrap;rounded=0;fontSize=25;fontFamily=Helvetica;fontColor=#000000;" vertex="1" parent="1">
          <mxGeometry x="110" y="4254.84" width="490" height="50.16" as="geometry" />
        </mxCell>
        <mxCell id="VWBzi6tTDOa6CH9NLCmq-1348" value="" style="edgeStyle=orthogonalEdgeStyle;shape=connector;rounded=0;orthogonalLoop=1;jettySize=auto;html=1;labelBackgroundColor=default;strokeColor=#375BD2;strokeWidth=2;fontFamily=Architects Daughter;fontSize=20;fontColor=#ffffff;endArrow=classic;" edge="1" parent="1" source="VWBzi6tTDOa6CH9NLCmq-1346" target="VWBzi6tTDOa6CH9NLCmq-1347">
          <mxGeometry relative="1" as="geometry" />
        </mxCell>
        <mxCell id="VWBzi6tTDOa6CH9NLCmq-1346" value="&lt;font color=&quot;#ffff66&quot; style=&quot;font-size: 25px;&quot; face=&quot;Helvetica&quot;&gt;_getReward&lt;/font&gt;" style="text;html=1;strokeColor=#3A5431;fillColor=#375BD2;align=center;verticalAlign=middle;whiteSpace=wrap;rounded=1;fontSize=20;fontFamily=Architects Daughter;fontColor=#ffffff;gradientColor=#1A1A1A;glass=0;labelBackgroundColor=none;strokeWidth=2;" vertex="1" parent="1">
          <mxGeometry x="35" y="4350" width="225" height="70" as="geometry" />
        </mxCell>
        <mxCell id="VWBzi6tTDOa6CH9NLCmq-1347" value="" style="shape=singleArrow;whiteSpace=wrap;html=1;arrowWidth=0.4;arrowSize=0.4;fontSize=20;fontFamily=Architects Daughter;fillColor=#375BD2;strokeColor=#3A5431;fontColor=#ffffff;gradientColor=#1A1A1A;rounded=1;glass=0;labelBackgroundColor=none;strokeWidth=2;" vertex="1" parent="1">
          <mxGeometry x="400" y="4355" width="80" height="60" as="geometry" />
        </mxCell>
        <mxCell id="VWBzi6tTDOa6CH9NLCmq-1349" value="&lt;div style=&quot;font-size: 25px;&quot;&gt; Returns a staker&#39;s earned rewards&lt;br style=&quot;font-size: 25px;&quot;&gt;&lt;/div&gt;" style="text;html=1;strokeColor=none;fillColor=none;align=center;verticalAlign=middle;whiteSpace=wrap;rounded=0;fontSize=25;fontFamily=Helvetica;fontColor=#000000;" vertex="1" parent="1">
          <mxGeometry x="490" y="4359.92" width="400" height="50.16" as="geometry" />
        </mxCell>
        <mxCell id="VWBzi6tTDOa6CH9NLCmq-1351" value="" style="shape=waypoint;sketch=0;fillStyle=solid;size=6;pointerEvents=1;points=[];fillColor=none;resizable=0;rotatable=0;perimeter=centerPerimeter;snapToPoint=1;rounded=0;fontFamily=Architects Daughter;fontSize=25;fontColor=#000000;html=1;spacing=8;strokeWidth=4;strokeColor=#375BD2;" vertex="1" parent="1">
          <mxGeometry x="915" y="4375" width="20" height="20" as="geometry" />
        </mxCell>
        <mxCell id="VWBzi6tTDOa6CH9NLCmq-1355" value="" style="edgeStyle=orthogonalEdgeStyle;shape=connector;rounded=0;orthogonalLoop=1;jettySize=auto;html=1;labelBackgroundColor=default;strokeColor=#375BD2;strokeWidth=2;fontFamily=Architects Daughter;fontSize=20;fontColor=#ffffff;endArrow=classic;" edge="1" parent="1" source="VWBzi6tTDOa6CH9NLCmq-1352" target="VWBzi6tTDOa6CH9NLCmq-1354">
          <mxGeometry relative="1" as="geometry" />
        </mxCell>
        <mxCell id="VWBzi6tTDOa6CH9NLCmq-1352" value="&lt;font color=&quot;#ffff66&quot; style=&quot;font-size: 25px;&quot; face=&quot;Helvetica&quot;&gt;_getUnvestedRewards&lt;/font&gt;" style="text;html=1;strokeColor=#3A5431;fillColor=#375BD2;align=center;verticalAlign=middle;whiteSpace=wrap;rounded=1;fontSize=20;fontFamily=Architects Daughter;fontColor=#ffffff;gradientColor=#1A1A1A;glass=0;labelBackgroundColor=none;strokeWidth=2;" vertex="1" parent="1">
          <mxGeometry x="960" y="4345" width="300" height="70" as="geometry" />
        </mxCell>
        <mxCell id="VWBzi6tTDOa6CH9NLCmq-1353" value="&lt;div style=&quot;text-align: left;&quot;&gt;&lt;font style=&quot;font-size: 25px;&quot;&gt; Calculates the amount of unavailable rewards in a reward bucket&lt;/font&gt;&lt;br&gt;&lt;/div&gt;" style="text;html=1;strokeColor=none;fillColor=none;align=center;verticalAlign=middle;whiteSpace=wrap;rounded=0;fontSize=20;fontFamily=Helvetica;fontColor=#000000;" vertex="1" parent="1">
          <mxGeometry x="1547.5" y="4359.92" width="412.5" height="50.16" as="geometry" />
        </mxCell>
        <mxCell id="VWBzi6tTDOa6CH9NLCmq-1354" value="" style="shape=singleArrow;whiteSpace=wrap;html=1;arrowWidth=0.4;arrowSize=0.4;fontSize=20;fontFamily=Architects Daughter;fillColor=#375BD2;strokeColor=#3A5431;fontColor=#ffffff;gradientColor=#1A1A1A;rounded=1;glass=0;labelBackgroundColor=none;strokeWidth=2;" vertex="1" parent="1">
          <mxGeometry x="1450" y="4350" width="80" height="60" as="geometry" />
        </mxCell>
        <mxCell id="VWBzi6tTDOa6CH9NLCmq-1356" value="" style="shape=waypoint;sketch=0;fillStyle=solid;size=6;pointerEvents=1;points=[];fillColor=none;resizable=0;rotatable=0;perimeter=centerPerimeter;snapToPoint=1;rounded=0;fontFamily=Architects Daughter;fontSize=25;fontColor=#000000;html=1;spacing=8;strokeWidth=4;strokeColor=#375BD2;" vertex="1" parent="1">
          <mxGeometry x="2005" y="4370" width="20" height="20" as="geometry" />
        </mxCell>
        <mxCell id="VWBzi6tTDOa6CH9NLCmq-1359" value="" style="edgeStyle=orthogonalEdgeStyle;shape=connector;rounded=0;orthogonalLoop=1;jettySize=auto;html=1;labelBackgroundColor=default;strokeColor=#375BD2;strokeWidth=2;fontFamily=Architects Daughter;fontSize=20;fontColor=#ffffff;endArrow=classic;" edge="1" parent="1" source="VWBzi6tTDOa6CH9NLCmq-1357" target="VWBzi6tTDOa6CH9NLCmq-1358">
          <mxGeometry relative="1" as="geometry" />
        </mxCell>
        <mxCell id="VWBzi6tTDOa6CH9NLCmq-1357" value="&lt;font color=&quot;#ffff66&quot; style=&quot;font-size: 25px;&quot; face=&quot;Helvetica&quot;&gt;_validateAddedRewards&lt;/font&gt;" style="text;html=1;strokeColor=#3A5431;fillColor=#375BD2;align=center;verticalAlign=middle;whiteSpace=wrap;rounded=1;fontSize=20;fontFamily=Architects Daughter;fontColor=#ffffff;gradientColor=#1A1A1A;glass=0;labelBackgroundColor=none;strokeWidth=2;" vertex="1" parent="1">
          <mxGeometry x="2050" y="4340" width="400" height="70" as="geometry" />
        </mxCell>
        <mxCell id="VWBzi6tTDOa6CH9NLCmq-1358" value="" style="shape=singleArrow;whiteSpace=wrap;html=1;arrowWidth=0.4;arrowSize=0.4;fontSize=20;fontFamily=Architects Daughter;fillColor=#375BD2;strokeColor=#3A5431;fontColor=#ffffff;gradientColor=#1A1A1A;rounded=1;glass=0;labelBackgroundColor=none;strokeWidth=2;direction=west;" vertex="1" parent="1">
          <mxGeometry x="2210" y="4495" width="80" height="60" as="geometry" />
        </mxCell>
        <mxCell id="VWBzi6tTDOa6CH9NLCmq-1360" value="&lt;div style=&quot;text-align: right;&quot;&gt;&lt;font style=&quot;font-size: 25px;&quot;&gt;Validates added rewards and emission rates&lt;/font&gt;&lt;br&gt;&lt;/div&gt;" style="text;html=1;strokeColor=none;fillColor=none;align=center;verticalAlign=middle;whiteSpace=wrap;rounded=0;fontSize=20;fontFamily=Helvetica;fontColor=#000000;" vertex="1" parent="1">
          <mxGeometry x="1680" y="4499.92" width="501.25" height="50.16" as="geometry" />
        </mxCell>
        <mxCell id="VWBzi6tTDOa6CH9NLCmq-1361" value="" style="shape=waypoint;sketch=0;fillStyle=solid;size=6;pointerEvents=1;points=[];fillColor=none;resizable=0;rotatable=0;perimeter=centerPerimeter;snapToPoint=1;rounded=0;fontFamily=Architects Daughter;fontSize=25;fontColor=#000000;html=1;spacing=8;strokeWidth=4;strokeColor=#375BD2;" vertex="1" parent="1">
          <mxGeometry x="1630" y="4515" width="20" height="20" as="geometry" />
        </mxCell>
        <mxCell id="VWBzi6tTDOa6CH9NLCmq-1364" value="" style="edgeStyle=orthogonalEdgeStyle;shape=connector;rounded=0;orthogonalLoop=1;jettySize=auto;html=1;labelBackgroundColor=default;strokeColor=#375BD2;strokeWidth=2;fontFamily=Architects Daughter;fontSize=20;fontColor=#ffffff;endArrow=classic;" edge="1" parent="1" source="VWBzi6tTDOa6CH9NLCmq-1362" target="VWBzi6tTDOa6CH9NLCmq-1363">
          <mxGeometry relative="1" as="geometry" />
        </mxCell>
        <mxCell id="VWBzi6tTDOa6CH9NLCmq-1362" value="&lt;font color=&quot;#ffff66&quot; style=&quot;font-size: 25px;&quot; face=&quot;Helvetica&quot;&gt;_isOperator&lt;/font&gt;" style="text;html=1;strokeColor=#3A5431;fillColor=#375BD2;align=center;verticalAlign=middle;whiteSpace=wrap;rounded=1;fontSize=20;fontFamily=Architects Daughter;fontColor=#ffffff;gradientColor=#1A1A1A;glass=0;labelBackgroundColor=none;strokeWidth=2;" vertex="1" parent="1">
          <mxGeometry x="1301.25" y="4490" width="300" height="70" as="geometry" />
        </mxCell>
        <mxCell id="VWBzi6tTDOa6CH9NLCmq-1363" value="" style="shape=singleArrow;whiteSpace=wrap;html=1;arrowWidth=0.4;arrowSize=0.4;fontSize=20;fontFamily=Architects Daughter;fillColor=#375BD2;strokeColor=#3A5431;fontColor=#ffffff;gradientColor=#1A1A1A;rounded=1;glass=0;labelBackgroundColor=none;strokeWidth=2;direction=west;" vertex="1" parent="1">
          <mxGeometry x="1031.25" y="4495" width="80" height="60" as="geometry" />
        </mxCell>
        <mxCell id="VWBzi6tTDOa6CH9NLCmq-1365" value="&lt;div style=&quot;font-size: 25px;&quot;&gt;Checks if an address is an operator or a removed operator&lt;br style=&quot;font-size: 25px;&quot;&gt;&lt;/div&gt;" style="text;html=1;strokeColor=none;fillColor=none;align=center;verticalAlign=middle;whiteSpace=wrap;rounded=0;fontSize=25;fontFamily=Helvetica;fontColor=#000000;" vertex="1" parent="1">
          <mxGeometry x="360" y="4499.92" width="650" height="50.16" as="geometry" />
        </mxCell>
        <mxCell id="VWBzi6tTDOa6CH9NLCmq-1368" style="edgeStyle=orthogonalEdgeStyle;shape=connector;rounded=0;orthogonalLoop=1;jettySize=auto;html=1;exitX=1;exitY=0.5;exitDx=0;exitDy=0;entryX=0.88;entryY=1.032;entryDx=0;entryDy=0;entryPerimeter=0;labelBackgroundColor=default;strokeColor=#375BD2;strokeWidth=2;fontFamily=Architects Daughter;fontSize=20;fontColor=#ffffff;endArrow=classic;" edge="1" parent="1" source="VWBzi6tTDOa6CH9NLCmq-1366" target="VWBzi6tTDOa6CH9NLCmq-1357">
          <mxGeometry relative="1" as="geometry" />
        </mxCell>
        <mxCell id="VWBzi6tTDOa6CH9NLCmq-1366" value="&lt;img alt=&quot;Function - Free electronics icons&quot; src=&quot;data:image/png;base64,iVBORw0KGgoAAAANSUhEUgAAAOEAAADhCAMAAAAJbSJIAAAA8FBMVEWtxOb///8AAABSYnOwx+qyyu1UZXZVZne0zO+sw+asw+Wnvd6oweVNXGxRYXKdstFIVmWHmbQ8SFRDUF6Tp8SjudmOob0YHSLt7e0eJCo0PkkwOUMJCgxwf5VEUV8iKTBgbYBFRUXk6/Z5eXnC0+yBkqt4iJ/Pz88UFxtmc4cmLjaEhIShoaG+vr6tra309PRlZWUqKirJyclbW1vg4OCTk5PZ4/NsbGzN2u82NjYeHh7t8voTExM/Pz+0tLRSUlLGztuosLxCR00ECxOLlKKSn7QvLy+Smqbg5e22usFpbXRZXWOzwNOhsMdxeYWipqsGiJ6DAAAcH0lEQVR4nO2d+X/bNrLAdQAUqYsSdVkSdcS2ZFnxFcd2nNhNurttuu12+/7//+YRBAYEQPAARSWv75P5oY1si8SXAAYzgxmwUv3/LpXv3YCjyw/Cv7/8IPz7yw/C8uTNx0+1QB7op7cfHq9u7k++wX2PSnhycfX2/Tv2oUaFEb6hn66OeXsqRyR8+Egp2EdGyLqN/e6efrp5f3Vxe6RmHLMP5V57Rz/9fEqk+knivQv++frl6uEYrSid8Pb+7BP7J+unfzyfY6eN5vST67QDcXb009Ppi/CXRxmz5RLeXn8Qeu2MtnuLmk6lYg8YIaoE0vLDD9NWu105f/5Z7u1ypVxC1tKbavX0+dxe0E9rTJhwl34ahoQu/eCRD44zpp9+Ylf5cHdfYpvKJfxAm/rPc6ftOIAxswkTGvaH7qjVrITS2mwXa29Sp/CX9A8bT+GQPSGT8rG0haRcwnva1N2IYtSm3nozph8qKJAKF4Qwtu0QsILZAO477crzafWGfrorSbmWQnj9kemIf09o68aUxW3aWMRKEre/9oJvkUfhtO1/0mu8KaNl1VIIb4J14Cv5xxNGXXHq5ReEUau/YI+FTebPh7cslIMJ2Zi6fjkP1gBEdMZs6xoCUkoKCJPylV3/5NDBeijhCXvi80CzkGYOtiM7z8BMFNyjF7w8Pw1v8OXTgZ15cB8+1sRVwMGH0NG+dBcrMikDI+GpWr0gq8hBi8fh85ARevahaBwRV8ZeDxOtUzn9El78/QFrR3HCC/q/U7qu++uDO0+EtOnVUJ89v3fpbTkG4cXHGlEBp3a7GZiYk8WoiHLJEgfNDrfnChISk/NDNdCfTgVva4vmMfiCLtwwwLfFAYsRXlDf578otMGaR+Ijl6ZT4F/P35jwmj3ZafNYZFxwc10j3kklXDrui/RloT5kIYjaZZnaJYnRHexxoFbPA9/sXe2N+YQsRPjACP3jdyKxdVrkf07lJfQ3r78JYfUX6u18A75IAo1WSOuYEVIb8cXGgSuwGpqt8UgWU0A0qhVTrEaED++I/XQamKCt2rpp1EhUGY4D6YMYPp7gArA0fjI0xU0IiY14Un1uk/u1zDoBb/yaLB1TwnHBxd+A8DO5/sfztmHTpOYJcmnqQzbDUMCvhoAGhFe0YYMiKwSEoUTZGytitAgXqJcjEV5By0xMbFAoyIsTTlr0V7ad+4K4vwyWxnD1f8itb/L3ISzz+S0ZhNx+CzmphGgz8Da5ERG5mtN+qp681s5KJ7yliF5+wJEH0w2iaaLsCCH16Ht5L8mk/Uy2CHIiGmian0kgrZH/ebdWIUkjWBfwklFNp9PVNCJEnSKTGzXplfMh5id8dlwTBYiae9ZZDRvZLPjiWfW6xahqro3r0KGeCWKTbYHkQ8xDGIYQglUCudvc6zRqAWCtVu/DNCSE9Q7H4v+q1Wb5DQjuNfKtq0MJr8giS9f5/K1ozmoakQklmeW3ITBDfJcrepNNSBb6iyfTdV4LyAhV84bKPH8v2iHix3zhqUzCi/D2fUMDRLM6EFkGgHVrp//l3KwX562nUgjBFdwaqYIEwGmDENaX+t/W9vkR7e3MQe1ciBmEJ+/g9m5+RMRXP18crP68GwLWrd5KGKheBGyAGP5hm1g3txm+RgbhA9tvN7GTcdTkXoP35n7ZteogVncJqnZmWQKimdEb+P3Vk69fDiKsVt+Ht7YMANcRoFVniPNOhMcgO+Gq5jVIn/IuzW/AUUSb7Fimm6jZupQ02GRBbk5gVC6tcEjup/NOox4Xq+N5FNzqAaHhthym0cbU2E0m4XOwwK5aBncdQYdMWLdZltp/nBF+sQJCI4VWaYJTlrZuZBGetit4bKBlAh0ANlVtmgAWA+WANZNHGTxM+Nqb4oQvoe9jdFvBn590470W71ABcFj0VhdFCC/eBV+zHaNbhoL7vMV7Cceq9wazmbfsyZSRKh2abg+weZi6+ZZMGKwTj88FACVEAaTR24MxM5kJqtXia+bYfP8jdK1/SR2GiYRhgHlfaEc+mLnQaD5MrU40FonM68BowZJ5WWSPtVWbDtFpEcKLQsoNBDEcn2PEnPxdD34HCnFSweahYuQSO6gIIculM/Dp2R0xyQSCYepZSj+JMlB/ebndLhamiRxh3ti5OSHkH6wMQ36431n2BgMIVHSTejAU6MXuq/TjjfnMIAbqSULORgLhyR29m5n6dlBPauuMIeh93poPD0BxJo2WXyqYRDv1GjVxCF8Q03htuPmykZvaYQRT/pN5rzsQPumfwMKYEI9Ja+/MCKvOZa1meqO61NJJQxmj82HFxnarzxl7bCGZSN8zjfdXXPaItHk3iYTnFeyODR+mErxng5TbLHWmKKMgDutERREZZ8WBYntjQhjYowaBJyCU+7Ajj8EBbziPNL52Y+O4AGHkcuuUTRIhLmLNSIT+QOkgQYHwp94Bi8Dbr1b7SVFCyGd8n4/w81W1ahxbkwj3nucNwKUHTSmlhWEG43GTIJDGrCAh87pfteuFhpD8abEEPGyxdjcE29piI3IhttvuSFNVfhbmhIHxVvMX+tEYJwwTRqebImkWuKFrN1M0kv0HWaRzHWHDnBAvLptIH3qLE7LomtFOQirhXkdopfRhAUKS0OjodUrsp5/ZpDVfdqMglNxu5vN3xHlo73XzkOmkesEsMn38NEb4E73LpNAoZYTzbqfTqauGtRChQEP2sx7XpavJZPJ6GKGD8hBCjHtR5C5CIDEwu5eKTSYoEB5ShfVwL3yxMCExwC/u1IBGrA9Pwg173ywkpCOMFjuwyTYwTm2mZ3iUQ/Y9ihJi9OsXkhSaQVitvmz3RRR2JdKQTGI22bqJAycXt7gHstR1Ya1bjLC1oFGSk0zCc2SP3UL3UAh3rA+70WZTb7HZRp7EFPSMvBtV7PHyQo3HTMK2afyQi+o9QRfpHeBIzyibUQX8QyI2GyuvWYTFDDYqTTncBNPMmtd0wmMc8iDtF32+EP+6zyAsZHPDTVqkO3wfAvugaxoyAxW+asKw7Yz74/HwgIoN9nzPkglPbk5olLu42M3RqNWC5Y5HhDW9GC32gO8WiLWJEsaH350py4VEeF2r3f3Wyp+FlcwJ6pOv6NZA3r2f9CK7h/1odWhCfOBE9fqxpHeJkBZILk1dew0hOPuR/WbVvSikNvEEs47r1vrB921hhNMIb9mdikWBBQELXBiKhLHR8/bT6WrudRqS4crBOyVkxrfV1EWREKoMRocCRqZNpy4JMa9ju09ClKZ3OKKjDlORkNVezw6s0bKjdd9TYPQixEuNw2waSSEsZ5ByvyEvoNiLJRSpkGF6n0B49f61hEEamW5eA4amntQKfCz6mwbE2vyDZ0jF/e2DlAwu9+ntr+v97sBBGhEyRTqfTmfdOKPVnftkl60urpbzAyciuqSXukoirCLcLOQ3iTeJRmnoXIS+kz/ryvqz0Z3RBXJliebAoQsVKLkvSYSnB9ikXARNM7e6PGC/8vjGr9X1IgN2KgAW2HaSBQKxr7cJhMV2tdMQJVN8zgBlXyJynQ4GDMOKoVwkEJ6XQqj6iQJi2Iua0oRQtiUsFZAzf5VAePgdqMChH6r48tpQPiBMRF9H+Pbq4t9tjMrpxQREv5NMuCilGBz1X2eXv4vpipwwPDpg3tk2SxqoWy2GTCgmYRYK7mmk2bTl4DcnZMkXheKkOhER+zyVnahTIFxtKlH6VBnmGohsmnJCVvVT3sEBNg/a9DFuMYW57PR6PWaG9uwKhrWzUC5NksipGZzwLb1VwTiXTgCR5Ii3NLndy+DnDNEwXyBTtIQ0U9Y0hTVVcD+YZ36ftL41iROGe8LIre8NCp/ySVuradhtD/fvBUHNcZ+mbusI6e5WYCcedBaK5q4YvVRPLmKEN2/ff/UP937Vu7HGt6ZxQtjXL0d5R7K4DBNa4uthtfo0GpbahYLoyvPKVJ+CYHb5Ew3huVPyeIlEUyY7PdSJSRCbDZd7DaFhLBgjgwJ0NGZRUd/fTSbT6f4yrbZCvbLJk4dI5o2G0HBCXK58KQZ6mfrXyJYlbYjividfemawlQEu4pWG0Mg5RPHaniL779pL92OXNkhxZ5nRfAuqKKGu/tww0z5RbI3izW+2ImYunimEn2+u74ejZv4iX53zwDTxQZsPFaHIQJAezn1pdzN2hbAwEL6T2pgMhlr0HsmEqNXfGlYVUMGtFs4gRMNtP7v6C6G2hpBVcGU0DY9nk3lYKot03hEhRC5Rmh3jKYlanemqHja/pSnBXIY3JRsA0xxap30aJ2QXSv82s6WJnawl7KMAkNrYS9P8cFo3vCKIOsIBqQinezh+dllGCmGq0Qb1t+RYBXAcVp1OpwtVoX0b8xE2MHI0eWH0ZBTMAkbYCy5dZ6ubZyPMN6kyEVMI07ShUCiyrvSZk7cncW3I8Z2sx5EazH80AQHkEcXdyIWNna4YEBj0hVSWLEQxO0ohTGkVFtcHHiRchRV4Gs8hQMwPWBG2iCNPMiWok1peE5gTmj78cvfhj8ZlilmCdQtgKmHuGvuE0vY0wjTEJvuT+Ip/inDy1xIA6U69pUtEqOWusU8qjA5Twnr636VUlycTpqWZ4GHCjWjKTFIz8hWgJwCyNAeNgUMRkyIfEPbW9GEyoQAoB1zYDqGch/AaNXmfPVCFym9plVixrD65JGwWAW8SEEGdmxAK20mrqDq7tvL4ppnV6M2A3e80Iqs8u8BWqPzucsTdrMdLh62ux7G8htCn+tQintZuQshLe0nhK0P053K+Qd2yluHNXzuWULqcFbxDUXp/z6p36FOaLuU9VavRmYdNmDXEYas/EA+641Oc8MVB+nykaKNlGi5Rg52u/JwwDvYr+ouoAH2eHoeBBx7M6PDMjEBnTQeaLWOrM1/t2S+4XtPamOB7fVUIbx8uft9uL7XfsUGZ+3RUWvWuZk+XQbKJyTtxlt6FPGwMW+Ldbj1hTxz6Naob1lvRrf5mcfV49lYhZOFSbZZCVCgyjZUuJ4BGozTdsRNm+DJvWgMfpauEbSSEnGhkcsLHlPYIzchZgB4dkjBI7UIpCJcTMU/ld1tDyLYt9HoBR3mjK7kZVsPq9HrdhpJtwW2c9DFakc8i6smXDvRLr9dRLi3YOCnGqa4P2cHjCRszgtG9FG/XmVPl5+89cfZwJ2CWveAjfuqTVNsebfVPPXHSR2M0DRBrCNmZ/9OEVTQy2qIsIKsnrsW+FyfMsd6LVulE4JMsVUFxc8K0M4Ga5xpCOFs9yRSywXcZ8HupKaOTqB0wSkd5jDa+RPMZYC3VrSoP1n+eIZaswVyEnzSEgfv05q/FdqhrARGbpU76/DmvajGBnNGoOrs5GrmjlITV8NIQ8oF1sKExVKMCKabEfHLpACZ2yVFtsv/P43V8Z4Ys+bpIFmqON4HAos8HqdYgBkSl7DUpiwS5wZW3G/bH7IylBIdprj49KrFDQnmYU0uoMduQKzUWjhBIyE33obZZyc5P0Oty2gl0YYKjwvPe5ShOR5lXYEO81xHqkk2acm9Azq8Y8BbnDEwlS/pWuN0bEzXrBqaacD3J24Cnp7jLSmgJgvpvtYTxhCE1wM7u0uCtGIyDv3Kj4CmUWMh9vNIpMFvujFiFzWQb+CXNDQdaNWRNzUQJ8dpqypBE+OyotSQK4UQdhH2qRXAL2gWTSd7V0C5CttxS9mwavJKhQoPAUWoOWATysFIIYdBpNU31CTeHsj+nELLn3AA9yv3sKJYEec+Sqp1kE4KShkfT4wObI+pr2xXCET1hK6p+Eghv7x8DD1p2K2VCODMIPNVG1HC+qIFC6IrjNAchVH7D1wTfDzMkfvCUJ45vdSMCN0f3Vx/exNdDeFeTbJkCob9arfbcagFtJ0bI4e0pUREJEfZDbVYuEE6Da3OrBdYZcQscFgDQ1PTSlvxeIrHR4rgUCMEy1fbhqiHmMrNpKCX0Qph/Ih1cloewK6bvQ/hcWl9G7Ieyac5W5FgsQznLJSKEM3ekiQiEU9HAh4kwENsND3qnI/TTCKWKBZgA8howNyJ8TiC8fdV8gxOKly6L0Ne0+1BCR960kDUNfWmNvFetJQR9NxcvDZvL0yhGFgisXbkJYZRKs2sU+0tSmrLSETax5ODLhKETvOrIfTiGdgfCR6pW07CO5SZydzCbzUAzaglhdpFLw7camrMxuLrjmqbnBdeGDS+xvfa8sxklEj7U3l/9qVSucTU2nUwme/XYI8Em5JEOWC16kgOURhhceTL1VINXcLww+xmsFnVpE0EiDKPBbx4v9IREVONbSUhgw4TvU/CwM+KJaxCrkj08LaFkm8wVi3fG/RyeGA/n3ciGqUjI922TCVXjWyGcqob3okJCrMh2gRmMR8VB0BLKDhicNwSPxhuFl8YVvm+oVr/HCSHueZZCqNQjqEklYHnzm8y37sgdCoHruu455yGcqTaZvx66o+GWD8m93vIWCWHL4jqF8EWu5EaufDlP48O9CjYUWDQNeZBqExds+SnAMiNuRvriOWfgPSkOsngYBQxSbX4piB1Y3zmaod/ThAPalEGqf9GDWtsOa0HCadie/uFJ03BBn450rEKM8M/LqbQKtGQWCCZqN0X9nvJb36o31uuks26UQyZgFOrL93m9LeiAQd1arxfyCX0Ijf/4qpxJKxM+3IQvQJDjWMPNpt+H+cg1tiaO4fPqZejCtY0DSQxEIbdPrg1/zZ+P5jhsDsgHMSbXjgWWnJfbi7OTZEJ20t5K/J5DY208mhg7sxJkGu0m8vrzzBSrQHA8mthREwOi7Sig1ye/O7FCZ4WQxYV1HslQbUbQDnGkTgaCQQoNzHeuJFK9Z/L4xGjNPIp68+c60cZiNYfwKPOQ6a5YcB+BAyN5GY2Ot5oEeuF1Opf2NKPQe54C9KjyW/AyrPpgPiWp/pO9HNXnk3SiGyDtGKBKCGdeKgEsNOJtlk5IIqc5h0lRyn5NpCuyC9D5+I80MVybHlWkbEntkhBHLbuiOeZTIaTB/YE6SqNU+12uHURhMckaqIJC1e39xiVaTORjgoILWa7mPULqanFX+/T4pxqG5+/L4scAZkkjQkw/6kZYFD3dseaap9fhvShl+4f5frEzlOKEF1e3sZSFyLDZgV2R9LQt8LEixPSCmGiHFACTrs0vbfFeFE8OAP809tYL7RlnKMk4nYetsLrebNDQNMTqznc7OlGjB52essrfRsOGvzWYebokAavhTXZ7mgXBV2LxQCmIk/6kwmgJ1ewoyDKiPg7VI7uBmlFgsQAiWU+iyZJxsl2UUhlOgG444WPF7YFmpU+sJ1V+i2dNQlA1dsZ+wjl1wVosmFpCyvM8elnDbtaLIK3ugK+OK2GqZL2yArlRllDQQ6DR9kvhZQNWlI1U6zX0ld+I/UX8tbp6wic89ETTDQnV2dKmzAxaMRPN5RU3SaaZe6RCGsSuI/hT/h7mfE80cPzIypD37Fy6qt7EWPSED2T+i7rYTq/OTnA1EgwPWbCr/y6EZRKOWVYLoxEekZNLNONRx0cPOZGi34mIYTMS6s+zezBsm5v0ah1ZryiAqtnVPq0+3MW7UEsI75aRbAacUICe8gonrV2lRdRn4IYGoqXZTa9ptvE1NncyIRx/Kb8NLaE6O4Uwd7GSoG6kJ5RMGM9TaCcdrq+dh/AiQDnYaguIswUPGImE800U1/FN3i40EnTMgmefhFnycET/5Ug4qEcaoshtouSD57WE1InabZV2RIjzpo3heGCr3gVCP3D2ANE3qptBI95VY9sWNnm60IcbG/FsabXyu7Ya48Q3W+p1KfGE/4i/Lh2yv0hys838h91kspuwDiWmMCAavo0Djdgy0MdRjHsSXHvHBjDJKWSISmpa6Jz8J/GtT3rCk9rXC9V2ixDDVdzWhBpCYx8PJ6R0x/jEauq/kEVOV51HsybD9yUqc5AtqL5GjaYQVomJrks+we5lh2ZoaglDtxLZrlvgVDuEtp3L8MFoK//YXZtDNUmIn9V4pUdJe/kFiQ7HQj0QWMK6tJfDKsERu7aWEM41VkcWggjBR7M+ZL+s2InV3UooMJRdSYXSOisn8URMeNJJrwtKJXwhJndCsr0aDQ+fc0llsjhuBO6T/5iqv8RXk6US3hLdleT+4L5ibE3KOWGGSEuJVPpeiouCfv4SZeabEV6/pvYMag0jcV23VeIJAmgoXzvl0o5NNneTX2mVQgjGW3Lp7GHvg09HzH1ph6z1Ka+0SutDMN7KqtEuW8I3ISXao3kIIW+47MNVypLmauqi2ImsJoT0uM9/Gb8N7RtJWBKW/TL5VEJy8NCbk0OOTj6isM2ABEsmL2H1y1mwKpZ+gkwZwvNv1VPmDQlDiz18q06ugMS3k8g6/5Tx4uMMQipPbezGAyPfVxyw1h4yGp+LsPpEbOESzm0sU9g8THl7pQkhdfqTylK/j7SfyFZgwuvkTAnhkOhSzm48XEKN0H4mxlqmJs1HCHvfxm9CPY5gktvRDiNPmUM0JyEcg32s07nMJFgmZqidacqYETLE+v+FeRj69L18L443IAwRzw5580VZfM1Bur9bmDBAvCPrYvgC5O84GXnk+DG7yYaE1VBrnVYcNPLTihuPLFHBqfZtjgcRUnlBlVmgcb5bL/K8niP0IUhoSaSFTY6M+N8QMHuhL0x4kxXZOBpa+N9glbjOY6oVJ4SykzLPqs3F11x7qOI4JGTx9lOWsX0IIUtePPiEf0OxhysS9WYbTBnu0mGEcNxwsXd6FRSEaHz9T8O2FiOkVvg19fuR+03WRshPjyUDHYewevIlDBw8B6v/qDYo9np5M+FpdQaWzCGE1epjOBFe6G7eusxQdwIhT7kxUjEHEIL8g952UdYx7nE0Ogcc/BeNyJgsEqUQfqwdVe3g5pYkAzjt85cwAeYsu0UlE14ddWnELVI8scTt8Py869rHQh14GCFMDrbx2yzhfW2RtNY0Q2HIPMGkXfqjEp7Q5f/xtBKoVQfVvHHCSVpFBLHHp3vT9jcjrFbvye5UlaQytsMI7eqy4OsnRTQ65nmSWdHBWQ5htfr5lUa7Ts+Z41bkRckCnj3a0mntQNbum+9MWIVEHXiPMPM5Cg1XPNqStb0VqM9AfzL7sPgELIkQhIXjpnQTZ7Tut4wnJRyguKFnBJFn9i5HPDRLSiKEzdS/bBLKCRNivEY/R3oNQthu0r+D3aQlS1F7/9HAz02Wkggf7sCsenmutJkvAPFVcsa8VGUW7cyPxpu1N2VvugDjjHlHiZlqZlLWKK3ePr6CWnh5mouTsrmfeuvFlu2VO83WyB32qR3ksMPQgqnnBJ3/qaSpJ0lphIFc3LFpA2PWdci0ZFqRnqsAaf8sTY0lJLro/PmUHz5y+BooSpmEXFieysfT5/NKu83cuz0lZLmjJEnHaWKmXP5H+N6Hz2Y+fJYchZD1Rbj/fPvyO/00Q+1AHEZ4GYxKfP70C/3EHL+H2tl1SbMvkqMQPtC3YbL5xMJzH15OifwmMbF9u6S8wjLkKISB3F7cQB3Zo8T0WehfHruLV7qUJ8ciFIQtJEwLMUL2ksmT2t3bq4dyJ54i34Cw+nB/c/V4x0quwjH76evdN7gvlW9B+H3lB+HfX34Q/v3lB+HfX/4XZ8AuZkEZf+cAAAAASUVORK5CYII=&quot;&gt;" style="text;html=1;strokeColor=none;fillColor=none;align=center;verticalAlign=middle;whiteSpace=wrap;rounded=0;" vertex="1" parent="1">
          <mxGeometry x="75" y="4460" width="220" height="210" as="geometry" />
        </mxCell>
        <mxCell id="VWBzi6tTDOa6CH9NLCmq-1369" value="" style="html=1;shadow=0;dashed=0;align=center;verticalAlign=middle;shape=mxgraph.arrows2.arrow;dy=0.6;dx=40;direction=south;notch=0;fontFamily=Architects Daughter;fontSize=20;fontColor=#ffffff;fillColor=#375BD2;strokeColor=#3A5431;gradientColor=#1A1A1A;rounded=1;glass=0;labelBackgroundColor=none;strokeWidth=2;" vertex="1" parent="1">
          <mxGeometry x="235" y="4710" width="70" height="138.75" as="geometry" />
        </mxCell>
        <mxCell id="VWBzi6tTDOa6CH9NLCmq-1375" style="edgeStyle=orthogonalEdgeStyle;shape=connector;rounded=0;orthogonalLoop=1;jettySize=auto;html=1;exitX=1;exitY=0.5;exitDx=0;exitDy=0;labelBackgroundColor=default;strokeColor=#375BD2;strokeWidth=2;fontFamily=Architects Daughter;fontSize=20;fontColor=#ffffff;endArrow=classic;" edge="1" parent="1" source="VWBzi6tTDOa6CH9NLCmq-1374">
          <mxGeometry relative="1" as="geometry">
            <mxPoint x="680" y="4909.181818181818" as="targetPoint" />
          </mxGeometry>
        </mxCell>
        <mxCell id="VWBzi6tTDOa6CH9NLCmq-1374" value="&lt;div style=&quot;line-height: 87%;&quot;&gt;&lt;h1 style=&quot;background-image: none; background-position: initial; background-size: initial; background-repeat: initial; background-attachment: initial; background-origin: initial; background-clip: initial; border: none; box-sizing: border-box; margin: 0.25em 0px 0.25rem; padding: 0px; vertical-align: baseline; line-height: 24.96px;&quot; class=&quot;type__headline__xs&quot;&gt;&lt;font color=&quot;#ffff66&quot; style=&quot;font-size: 30px;&quot; face=&quot;Helvetica&quot;&gt;Modifiers&lt;/font&gt;&lt;br&gt;&lt;/h1&gt;&lt;/div&gt;" style="text;html=1;strokeColor=#3A5431;fillColor=#375BD2;align=center;verticalAlign=middle;whiteSpace=wrap;rounded=1;fontSize=20;fontFamily=Architects Daughter;glass=0;labelBackgroundColor=none;fontColor=#ffffff;gradientColor=#1A1A1A;strokeWidth=2;" vertex="1" parent="1">
          <mxGeometry x="80" y="4870" width="380" height="80" as="geometry" />
        </mxCell>
        <mxCell id="VWBzi6tTDOa6CH9NLCmq-1376" value="&lt;font color=&quot;#ffff66&quot; face=&quot;Helvetica&quot; style=&quot;font-size: 25px;&quot;&gt;onlyRewarder&lt;/font&gt;" style="text;html=1;strokeColor=#3A5431;fillColor=#375BD2;align=center;verticalAlign=middle;whiteSpace=wrap;rounded=1;fontSize=20;fontFamily=Architects Daughter;fontColor=#ffffff;gradientColor=#1A1A1A;glass=0;labelBackgroundColor=none;strokeWidth=2;" vertex="1" parent="1">
          <mxGeometry x="700" y="4760" width="300" height="70" as="geometry" />
        </mxCell>
        <mxCell id="VWBzi6tTDOa6CH9NLCmq-1377" value="&lt;font color=&quot;#ffff66&quot; style=&quot;font-size: 25px;&quot; face=&quot;Helvetica&quot;&gt;onlyStakingPool&lt;/font&gt;" style="text;html=1;strokeColor=#3A5431;fillColor=#375BD2;align=center;verticalAlign=middle;whiteSpace=wrap;rounded=1;fontSize=20;fontFamily=Architects Daughter;fontColor=#ffffff;gradientColor=#1A1A1A;glass=0;labelBackgroundColor=none;strokeWidth=2;" vertex="1" parent="1">
          <mxGeometry x="700" y="4875" width="300" height="70" as="geometry" />
        </mxCell>
        <mxCell id="VWBzi6tTDOa6CH9NLCmq-1378" value="&lt;font color=&quot;#ffff66&quot; face=&quot;Helvetica&quot; style=&quot;font-size: 25px;&quot;&gt;whenOpen&lt;/font&gt;" style="text;html=1;strokeColor=#3A5431;fillColor=#375BD2;align=center;verticalAlign=middle;whiteSpace=wrap;rounded=1;fontSize=20;fontFamily=Architects Daughter;fontColor=#ffffff;gradientColor=#1A1A1A;glass=0;labelBackgroundColor=none;strokeWidth=2;" vertex="1" parent="1">
          <mxGeometry x="700" y="4990" width="300" height="70" as="geometry" />
        </mxCell>
        <mxCell id="VWBzi6tTDOa6CH9NLCmq-1379" value="" style="shape=curlyBracket;whiteSpace=wrap;html=1;rounded=1;flipH=1;labelPosition=right;verticalLabelPosition=middle;align=left;verticalAlign=middle;glass=0;labelBackgroundColor=none;strokeColor=#3A5431;strokeWidth=2;fontFamily=Architects Daughter;fontSize=20;fontColor=#ffffff;fillColor=#375BD2;gradientColor=#1A1A1A;" vertex="1" parent="1">
          <mxGeometry x="1020" y="4747.5" width="20" height="325" as="geometry" />
        </mxCell>
        <mxCell id="VWBzi6tTDOa6CH9NLCmq-1382" value="" style="edgeStyle=orthogonalEdgeStyle;shape=connector;rounded=0;orthogonalLoop=1;jettySize=auto;html=1;labelBackgroundColor=default;strokeColor=#375BD2;strokeWidth=2;fontFamily=Architects Daughter;fontSize=20;fontColor=#ffffff;endArrow=classic;" edge="1" parent="1" source="VWBzi6tTDOa6CH9NLCmq-1380" target="VWBzi6tTDOa6CH9NLCmq-1381">
          <mxGeometry relative="1" as="geometry" />
        </mxCell>
        <mxCell id="VWBzi6tTDOa6CH9NLCmq-1380" value="&lt;div style=&quot;font-size: 25px;&quot;&gt;Are used to restrict access to certain functions&lt;br style=&quot;font-size: 25px;&quot;&gt;&lt;/div&gt;" style="text;html=1;strokeColor=none;fillColor=none;align=center;verticalAlign=middle;whiteSpace=wrap;rounded=0;fontSize=25;fontFamily=Helvetica;fontColor=#000000;" vertex="1" parent="1">
          <mxGeometry x="1060" y="4884.92" width="360" height="50.16" as="geometry" />
        </mxCell>
        <mxCell id="VWBzi6tTDOa6CH9NLCmq-1381" value="" style="shape=singleArrow;whiteSpace=wrap;html=1;arrowWidth=0.4;arrowSize=0.4;rounded=1;glass=0;labelBackgroundColor=none;strokeColor=#3A5431;strokeWidth=2;fontFamily=Architects Daughter;fontSize=20;fontColor=#ffffff;fillColor=#375BD2;gradientColor=#1A1A1A;" vertex="1" parent="1">
          <mxGeometry x="1640" y="4880" width="80" height="60" as="geometry" />
        </mxCell>
        <mxCell id="VWBzi6tTDOa6CH9NLCmq-1383" value="Based on" style="text;html=1;strokeColor=none;fillColor=none;align=center;verticalAlign=middle;whiteSpace=wrap;rounded=0;fontSize=20;fontFamily=Helvetica;fontColor=#000000;" vertex="1" parent="1">
          <mxGeometry x="1455.63" y="4870" width="150" height="40" as="geometry" />
        </mxCell>
        <mxCell id="VWBzi6tTDOa6CH9NLCmq-1384" value="&lt;div style=&quot;font-size: 25px;&quot;&gt;&lt;font color=&quot;#375bd2&quot;&gt;Roles and contract state&lt;/font&gt;&lt;br style=&quot;font-size: 25px;&quot;&gt;&lt;/div&gt;" style="text;html=1;strokeColor=none;fillColor=none;align=center;verticalAlign=middle;whiteSpace=wrap;rounded=0;fontSize=25;fontFamily=Helvetica;fontColor=#000000;" vertex="1" parent="1">
          <mxGeometry x="1740" y="4884.92" width="280" height="50.16" as="geometry" />
        </mxCell>
        <mxCell id="VWBzi6tTDOa6CH9NLCmq-1385" value="&lt;img alt=&quot;New Message Dialog Chat Speech Bubble Notification Flat Icon Vector Stock  Illustration - Download Image Now - iStock&quot; src=&quot;https://encrypted-tbn0.gstatic.com/images?q=tbn:ANd9GcRl9dnl1ctkJH7pHVOD_3b_DzNLk2fCtfFMHg&amp;amp;usqp=CAU&quot;&gt;" style="text;html=1;strokeColor=none;fillColor=none;align=center;verticalAlign=middle;whiteSpace=wrap;rounded=0;" vertex="1" parent="1">
          <mxGeometry x="1755.63" y="4670" width="220" height="210" as="geometry" />
        </mxCell>
        <mxCell id="VWBzi6tTDOa6CH9NLCmq-1386" value="&lt;font color=&quot;#375bd2&quot; style=&quot;font-size: 20px;&quot;&gt;Made by Catellatech C4 Wardens&lt;/font&gt;" style="text;html=1;strokeColor=none;fillColor=none;align=center;verticalAlign=middle;whiteSpace=wrap;rounded=0;" vertex="1" parent="1">
          <mxGeometry x="105" y="5110" width="320" height="30" as="geometry" />
        </mxCell>
      </root>
    </mxGraphModel>
  </diagram>
</mxfile>
